<?xml version="1.0" encoding="UTF-8"?><svg width="64" height="64" version="1.1" viewBox="0 0 64 64" xmlns="http://www.w3.org/2000/svg" xmlns:xlink="http://www.w3.org/1999/xlink"><!--Generated by IJSVG (https://github.com/iconjar/IJSVG)--><path d="M248,8c-137,0 -248,111 -248,248c0,137 111,248 248,248c137,0 248,-111 248,-248c0,-137 -111,-248 -248,-248Zm0,96c48.6,0 88,39.4 88,88c0,48.6 -39.4,88 -88,88c-48.6,0 -88,-39.4 -88,-88c0,-48.6 39.4,-88 88,-88Zm0,344c-58.7,0 -111.3,-26.6 -146.5,-68.2c18.8,-35.4 55.6,-59.8 98.5,-59.8c2.4,0 4.8,0.4 7.1,1.1c13,4.2 26.6,6.9 40.9,6.9c14.3,0 28,-2.7 40.9,-6.9c2.3,-0.7 4.7,-1.1 7.1,-1.1c42.9,0 79.7,24.4 98.5,59.8c-35.2,41.6 -87.8,68.2 -146.5,68.2Z" transform="scale(0.125)" fill="#000"></path></svg>