<?xml version="1.0" encoding="UTF-8"?><svg width="1200" height="1200" version="1.1" viewBox="0 0 1200 1200" xmlns="http://www.w3.org/2000/svg" xmlns:xlink="http://www.w3.org/1999/xlink"><!--Generated by IJSVG (https://github.com/iconjar/IJSVG)--><path d="M504,256c0,136.997 -111.043,248 -248,248c-136.957,0 -248,-111.003 -248,-248c0,-136.917 111.043,-248 248,-248c136.957,0 248,111.083 248,248Zm-248,50c-25.405,0 -46,20.595 -46,46c0,25.405 20.595,46 46,46c25.405,0 46,-20.595 46,-46c0,-25.405 -20.595,-46 -46,-46Zm-43.673,-165.346l7.418,136c0.347,6.364 5.609,11.346 11.982,11.346h48.546c6.373,0 11.635,-4.982 11.982,-11.346l7.418,-136c0.375,-6.874 -5.098,-12.654 -11.982,-12.654h-63.383c-6.884,0 -12.356,5.78 -11.981,12.654Z" transform="scale(2.34375)" fill="#000"></path></svg>