<?xml version="1.0" encoding="UTF-8"?><svg width="1200" height="1200" version="1.1" viewBox="0 0 1200 1200" xmlns="http://www.w3.org/2000/svg" xmlns:xlink="http://www.w3.org/1999/xlink"><!--Generated by IJSVG (https://github.com/iconjar/IJSVG)--><defs><mask id="a" maskContentUnits="userSpaceOnUse" maskUnits="objectBoundingBox"><use fill="#FFF" xlink:href="#c"></use></mask><mask id="b" maskContentUnits="userSpaceOnUse" maskUnits="objectBoundingBox"><use fill="#FFF" xlink:href="#d"></use></mask><path id="c" d="M53.456,52.022l1.55939e-06,-1.67572e-06c-5.82811,6.26292 -14.0008,9.81629 -22.556,9.807l1.5565e-06,1.51147e-10c-1.28132,-0.000124391 -2.56141,-0.079274 -3.83299,-0.236998l-2.76452e-06,-3.96781e-07c-3.89967,-0.559705 -7.67244,-1.79271 -11.15,-3.644l-4.26285e-06,-2.37475e-06c-2.93645,-1.63584 -5.58737,-3.73827 -7.849,-6.225l1.282,-3.1l13.91,-6.212c0.625,3.723 7.806,8.175 7.806,8.175c0,0 7.213,-3.412 8.087,-8.211l12.777,6.281Z"></path><path id="d" d="M14.112,46.496l6.814,-3.042l10.209,13.978l10.328,-13.938l5.949,2.831v20.033h-33.3v-19.862Z"></path></defs><g transform="scale(18.0838)"><path fill="#3DBC93" d="M52.7494,9.05037c12.0672,12.0672 12.0672,31.6319 0,43.6991c-12.0672,12.0672 -31.6319,12.0672 -43.6991,0c-12.0672,-12.0672 -12.0672,-31.6319 -7.10543e-15,-43.6991c12.0672,-12.0672 31.6319,-12.0672 43.6991,-7.10543e-15"></path><path fill="#F9DCA4" fill-rule="evenodd" d="M23.255,38.68l15.907,0.121v12.918l-15.907,-0.121v-12.918Z"></path><path opacity="0.11" fill="#000" fill-rule="evenodd" d="M39.165,38.778v3.58l-9.07277e-08,1.34994e-05c-0.00265678,0.395251 -0.0354189,0.789726 -0.098002,1.18l2.28559e-07,-1.39825e-06c-0.0787269,0.481626 -0.211221,0.952904 -0.394998,1.405c-5.374,4.164 -13.939,0.748 -15.306,-6.365Z"></path><path fill="#FFE8BE" fill-rule="evenodd" d="M31.129,8.432c21.281,0 12.987,35.266 0,35.266c-12.266,0 -21.281,-35.266 0,-35.266Z"></path><path fill="#F9DCA4" fill-rule="evenodd" d="M18.365,24.046c-3.07,1.339 -0.46,7.686 1.472,7.658l2.96847e-07,9.19887e-07c-0.80138,-2.48336 -1.29572,-5.05549 -1.472,-7.65899Z"></path><path fill="#F9DCA4" fill-rule="evenodd" d="M44.135,24.046c3.07,1.339 0.465,7.686 -1.466,7.657l1.26567e-06,-3.93262e-06c0.799123,-2.48299 1.29145,-5.05442 1.466,-7.65698Z"></path><path fill="#ECBE6A" fill-rule="evenodd" d="M44.123,24.17c0,0 7.96,-11.785 -2.636,-16.334l3.15932e-07,5.02531e-07c-2.72049,-4.3273 -7.90377,-6.42961 -12.87,-5.22c-5.842,1.189 -8.013,4.084 -8.013,4.084c0,0 -5.53,5.014 -10.44,5.117l-5.31539e-07,-3.73945e-07c1.83034,1.28767 4.04714,1.90823 6.28,1.758c-0.672,1.68 -1.965,7.21 1.989,10.854c4.368,-2.868 8.012,-8.477 8.012,-8.477c0,0 0.982,3.257 0.207,4.86l1.41986e-06,-2.69407e-07c2.87891,-0.546249 5.59115,-1.75515 7.922,-3.531c2.542,-2.036 3.893,-4.297 5.31,-4.326c3.256,-0.069 4.213,9.74 4.24,11.216Z"></path><use fill="#498BD9" fill-rule="evenodd" xlink:href="#c"></use><g mask="url(#a)"><use fill="#545F69" fill-rule="evenodd" xlink:href="#d"></use><path mask="url(#b)" fill="#434955" fill-rule="evenodd" d="M37.79,42.881h0.732v21.382h-0.732v-21.382Zm-14.775,0h0.731v21.382h-0.73v-21.382Zm-2.981,0h0.731v21.382h-0.731v-21.382Zm-2.944,0h0.731v21.382h-0.73v-21.382Zm-2.981,0h0.731v21.382h-0.731v-21.382Zm20.708,0h0.731v21.382h-0.731v-21.382Zm-2.981,0h0.731v21.382h-0.731v-21.382Zm-2.944,0h0.731v21.382h-0.731v-21.382Zm-2.981,0h0.731v21.382h-0.731v-21.382Zm20.785,0h0.732v21.382h-0.732v-21.382Zm-2.98,0h0.73v21.382h-0.73v-21.382Zm-2.944,0h0.73v21.382h-0.73Z"></path></g><path fill="#58B0E0" fill-rule="evenodd" d="M23.265,41.27l7.802,9.316l-6.305,3.553l-4.823,-10.591l3.326,-2.278Z"></path><path fill="#58B0E0" fill-rule="evenodd" d="M39.155,41.45l-8.088,9.136l6.518,3.553l4.777,-10.719l-3.207,-1.97Z"></path><path fill="#464449" fill-rule="evenodd" d="M21.637,23.157h6.416l-9.55353e-09,3.28981e-12c0.419832,-0.000144507 0.82246,0.166807 1.119,0.464v0.002l9.35594e-08,9.33049e-08c0.296795,0.295988 0.463723,0.697839 0.464,1.117v2.893l3.20867e-08,-2.56087e-05c-0.00108779,0.87381 -0.709165,1.58191 -1.58297,1.58303h-6.416l4.52371e-08,7.52216e-11c-0.41898,-0.000696721 -0.820484,-0.16799 -1.116,-0.465h-0.002l1.11316e-07,1.11072e-07c-0.296947,-0.296295 -0.463879,-0.698514 -0.464,-1.118v-2.893l-6.10479e-08,9.70793e-05c0.000250702,-0.419161 0.167154,-0.821022 0.463931,-1.11703l0.002,-0.002l6.03715e-08,-6.05681e-08c0.295681,-0.296643 0.697163,-0.463568 1.116,-0.464Zm6.416,0.85h-6.416l3.70917e-08,-7.29337e-11c-0.193808,0.000381081 -0.379621,0.0772941 -0.517,0.214l-0.001,0.002l-1.49245e-09,1.4998e-09c-0.136706,0.137379 -0.213619,0.323192 -0.214,0.517v2.893l-8.43913e-09,-1.68864e-05c9.4739e-05,0.19406 0.0774548,0.380096 0.214988,0.517005l-2.21003e-08,-2.20771e-08c0.137216,0.137072 0.32305,0.214353 0.517,0.215h6.416l-7.44909e-09,3.03402e-11c0.40359,-0.00164397 0.730356,-0.32841 0.732,-0.732v-2.89299l6.49898e-10,3.08878e-05c0,-0.194176 -0.0769417,-0.38044 -0.213978,-0.518009l7.98645e-09,8.01413e-09c-0.137213,-0.137688 -0.323615,-0.215056 -0.518,-0.215Z"></path><path fill="#464449" fill-rule="evenodd" d="M34.548,23.157h6.416l-2.81376e-08,-8.12506e-12c0.419486,0.000121098 0.821705,0.167053 1.118,0.464v0.002l1.34769e-08,1.34162e-08c0.297162,0.295824 0.464459,0.697695 0.465,1.117v2.893l3.20867e-08,-2.56087e-05c-0.00108779,0.87381 -0.709165,1.58191 -1.58297,1.58303h-6.416l4.8493e-08,7.53424e-11c-0.419283,-0.00065144 -0.821114,-0.167931 -1.117,-0.465l-0.001,-0.002l2.22855e-08,2.21967e-08c-0.296824,-0.295641 -0.464083,-0.697064 -0.465,-1.116v-2.893l-2.34438e-08,1.51354e-05c0.000647436,-0.419283 0.167923,-0.821115 0.464989,-1.117l0.002,-0.001l-3.54929e-08,3.56348e-08c0.295641,-0.296824 0.697064,-0.464083 1.116,-0.465Zm6.416,0.85h-6.416l1.9897e-08,1.70068e-11c-0.193916,-0.000165738 -0.37993,0.0768304 -0.517,0.214l-0.001,0.002l3.9257e-08,-3.91838e-08c-0.137263,0.137007 -0.214276,0.323062 -0.214,0.517v2.893l-5.4855e-09,6.4517e-06c-0.000164019,0.193916 0.0768337,0.37993 0.214005,0.516998l0.001,0.001l7.30793e-09,7.31325e-09c0.13707,0.13717 0.323084,0.214166 0.517,0.214h6.416l-7.44909e-09,3.03402e-11c0.40359,-0.00164397 0.730356,-0.32841 0.732,-0.732v-2.893l6.49905e-10,3.08878e-05c0,-0.194176 -0.0769417,-0.38044 -0.213978,-0.518009h-0.001l1.39566e-08,1.4005e-08c-0.136968,-0.137443 -0.322962,-0.214791 -0.517,-0.215Z"></path><path fill="#464449" d="M29.415,24.506h3.845v0.876h-3.845Z"></path></g></svg>