<?xml version="1.0" encoding="UTF-8"?><svg width="64" height="64" version="1.1" viewBox="0 0 64 64" xmlns="http://www.w3.org/2000/svg" xmlns:xlink="http://www.w3.org/1999/xlink"><!--Generated by IJSVG (https://github.com/iconjar/IJSVG)--><path d="M224,256c70.7,0 128,-57.3 128,-128c0,-70.7 -57.3,-128 -128,-128c-70.7,0 -128,57.3 -128,128c0,70.7 57.3,128 128,128Zm0,-224c52.9,0 96,43.1 96,96c0,52.9 -43.1,96 -96,96c-52.9,0 -96,-43.1 -96,-96c0,-52.9 43.1,-96 96,-96Zm91.9,272.2l-39.7,137.8l-33.9,-101.7l25,-25c10.1,-10.1 2.9,-27.3 -11.3,-27.3h-64c-14.3,0 -21.4,17.2 -11.3,27.3l25,25l-33.9,101.7l-39.7,-137.7c-73.2,1.2 -132.1,60.7 -132.1,134.1v25.6c0,26.5 21.5,48 48,48h352c26.5,0 48,-21.5 48,-48v-25.6c0,-73.4 -58.9,-132.9 -132.1,-134.2Zm-267.9,175.8c-8.8,0 -16,-7.2 -16,-16v-25.6c0,-47.2 32.8,-87.5 76.9,-98.9l40.6,140.5h-101.5Zm144.9,0l31.1,-93.4l31.1,93.4h-62.2Zm223.1,-16c0,8.8 -7.2,16 -16,16h-101.5l40.5,-140.5c44.1,11.4 76.9,51.7 76.9,98.9v25.6Z" transform="scale(0.125)" fill="#000"></path></svg>