<?xml version="1.0" encoding="UTF-8"?><svg width="64" height="64" version="1.1" viewBox="0 0 64 64" xmlns="http://www.w3.org/2000/svg" xmlns:xlink="http://www.w3.org/1999/xlink"><!--Generated by IJSVG (https://github.com/iconjar/IJSVG)--><path d="M224,256c70.7,0 128,-57.3 128,-128c0,-70.7 -57.3,-128 -128,-128c-70.7,0 -128,57.3 -128,128c0,70.7 57.3,128 128,128Zm95.8,32.6l-47.8,191.4l-32,-136l32,-56h-96l32,56l-32,136l-47.8,-191.4c-71.3,3.4 -128.2,61.7 -128.2,133.8v41.6c0,26.5 21.5,48 48,48h352c26.5,0 48,-21.5 48,-48v-41.6c0,-72.1 -56.9,-130.4 -128.2,-133.8Z" transform="scale(0.125)" fill="#000"></path></svg>