<?xml version="1.0" encoding="UTF-8"?><svg width="36" height="36" version="1.1" viewBox="0 0 36 36" xmlns="http://www.w3.org/2000/svg" xmlns:xlink="http://www.w3.org/1999/xlink"><!--Generated by IJSVG (https://github.com/iconjar/IJSVG)--><g transform="scale(0.28125)"><path fill="#000" d="M87.44,43.79v-0.27h-0.44v0.27h0.44Zm2.94,7.08v0.13h0.31l1.4905e-08,-7.81068e-07c0.00281864,-0.147703 0.0333477,-0.293564 0.0900003,-0.43v-0.27c-0.13,0 -0.26,0.21 -0.38,0.58Zm-11.48,8.92l1.61956e-07,2.77332e-07c-0.643555,-1.10202 -1.43415,-2.11128 -2.35,-3c0,-0.32 0.5,-0.79 1.59,-1.42l3.11,-2.71l1.63961e-07,-2.55915e-07c0.823373,-1.28515 1.25108,-2.78386 1.23,-4.31v-0.46c-0.12,-1.38 -1.12,-2.49 -3,-3.34c-1.12,-0.753333 -3.12,-1.17 -6,-1.25l-1.28125e-08,1.71242e-09c-3.26703,0.436645 -6.45753,1.32514 -9.47999,2.64l-7.37051e-07,5.24465e-07c-1.16657,0.830099 -2.37844,1.59462 -3.63,2.29v0.23l5.51992e-09,-1.04517e-09c0.130764,-0.0247594 0.253997,-0.0795297 0.36,-0.16l-1.74884e-08,4.29516e-09c0.112633,-0.0276626 0.226364,0.0412192 0.254027,0.153852c0.00450966,0.0183618 0.00651889,0.0372485 0.00597321,0.0561482l0.23,-0.12h0.11v0.1l1.76589e-07,-1.80173e-07c-0.755495,0.770827 -1.6056,1.44284 -2.53,2l0.13,0.24h-0.11l-0.28,-0.1c0,0.08 -0.11,0.14 -0.34,0.16v0.1l0.27,0.34l-3.32257e-08,-8.41254e-10c-0.134737,-0.00341138 -0.267393,-0.0340245 -0.39,-0.09l-6.28849e-08,8.78589e-09c-0.450105,0.0628859 -0.862193,0.286692 -1.16,0.63l0.16,-0.69l2.47798e-07,-1.03377e-06c0.513471,-2.14211 0.900803,-4.31251 1.16,-6.5v-0.12l4.90304e-07,3.24696e-07c-0.431584,-0.28581 -0.813326,-0.640525 -1.13,-1.05l1.20033e-07,-1.81368e-06c0.0107978,-0.163154 0.0107978,-0.326843 -2.03813e-08,-0.489997v-0.1h-0.11c-1.22667,1.84667 -3.59667,4.99667 -7.11,9.45c-2.66667,3.16667 -4.04667,4.92667 -4.14,5.28c-1.09,1.13 -1.61,1.81 -1.56,2c-0.29,0.19 -0.41,0.37 -0.36,0.58l-1.01963e-09,3.82045e-10c-0.0620609,0.0232532 -0.131222,-0.00820655 -0.154475,-0.0702674c-0.00240096,-0.00640796 -0.00424941,-0.0130095 -0.00552512,-0.0197326l-6.5889e-08,1.0733e-07c-0.461429,0.751643 -1.21514,1.27707 -2.08,1.45l-1,0.22l-1.45437e-09,2.16886e-10c-0.125636,0.0187359 -0.212296,0.135773 -0.19356,0.261409c0.000931056,0.00624332 0.00211874,0.0124457 0.00356003,0.0185913v0.12l0.36,-0.08v0.1l-0.82,0.32l-1.45,0.34h-0.76c-0.11,0.11 0.61,0 0.33,0.06l-1,0.22c-0.58,0.13 -0.89,0.08 -1,-0.15h-0.11l1.20371e-08,5.38408e-08c0.0176674,0.0790246 0.0176673,0.160975 -2.40741e-08,0.24l0.119993,-0.159998l-0.76,0.18c-0.0533333,-0.353333 -1.08333,-1.64 -3.09,-3.86c0,-0.43 0.67,-1.05 2.12,-1.86l4.08,-3.59c0.913333,-1.17333 1.45667,-3.05667 1.63,-5.65l-0.05,-0.59c-0.16,-1.83 -1.48,-3.3 -4,-4.44c-1.47,-1 -4.12,-1.53 -7.94,-1.61l-3.85961e-06,5.24898e-07c-4.25825,0.579111 -8.41902,1.72946 -12.37,3.42l-4.18567e-07,2.98854e-07c-1.53232,1.09407 -3.12849,2.09584 -4.78,3v0.32l1.36235e-07,-2.3234e-08c0.171477,-0.0292444 0.334963,-0.0939576 0.48,-0.19l-1.62845e-08,4.37146e-09c0.144018,-0.0386605 0.292108,0.0467486 0.330769,0.190767c0.00606163,0.0225807 0.00916462,0.0458532 0.00923111,0.0692333l0.32,-0.18h0.16v0.15l-1.19286e-07,1.16887e-07c-1.011,0.990671 -2.13156,1.86296 -3.34,2.6l0.18,0.28h-0.150005l-0.34,-0.12c0,0.09 -0.15,0.16 -0.48,0.19v0.17l0.37,0.41l-7.69797e-08,-6.78654e-10c-0.171481,-0.0015118 -0.341129,-0.0354414 -0.5,-0.1l-2.75205e-07,5.71184e-08c-0.904917,0.187815 -1.68281,0.761192 -2.13,1.57l0.18,0.28l4.01895e-07,-4.38091e-07c0.307956,-0.335692 0.665418,-0.622336 1.06,-0.85v0.46l-6.33509e-08,1.33303e-08c-0.169607,0.0356886 -0.331917,0.0999363 -0.48,0.19l0.42,0.560002l-3.92785e-07,4.15633e-07c0.723374,-0.765451 1.53972,-1.43734 2.43,-2c0.44,0.11 0.67,0.25 0.68,0.4h0.34l-6.38924e-07,4.88075e-07c2.16325,-1.65251 4.5726,-2.95505 7.14,-3.86v0.32c-0.44,0.666667 -0.736667,1 -0.89,1l-5.20519e-08,-1.04981e-06c0.0107289,0.216389 0.0914439,0.423441 0.229999,0.59c0.04,0.4 -1.03,3.1 -3.21,8.1c-4.9,11.5533 -9.02666,20.1067 -12.38,25.66l-3.8544e-08,-2.04797e-07c0.0307734,0.163509 0.0992535,0.31759 0.2,0.45l1.61651e-07,-2.63568e-08c0.558706,-0.0910958 1.09294,-0.295262 1.57,-0.6h0.18v0.32h0.31l0.32,-0.18c0,0.09 0.11,0.14 0.33,0.12v0.32l7.80291e-08,-9.53625e-07c-0.0398627,0.48718 -0.205233,0.955728 -0.479999,1.36l-5.0139e-07,7.28788e-07c-0.501271,0.728615 -0.867118,1.54161 -1.08,2.4v0.15h0.31l4.58787e-07,-4.98046e-07c1.21801,-1.32224 2.24772,-2.80623 3.06,-4.41l4.01778e-06,-1.07155e-06c3.1039,-0.82782 6.11851,-1.95997 9,-3.38l3.9793e-07,-1.10925e-08c1.70918,-0.0476444 3.36301,-0.616364 4.74,-1.63v-0.17l-0.78,0.23h-0.18v-0.17l-1.2775e-07,8.73625e-09c1.12112,-0.0766685 2.20782,-0.419476 3.17,-1c2.97333,-2.29333 5.22,-3.91667 6.74,-4.87c3.12,-2.29333 5.14333,-4.52667 6.07,-6.7l0.52,-0.12l-1.5171e-07,-8.35446e-09c0.249811,0.0137567 0.500189,0.0137568 0.75,1.67089e-08c0,-0.08 0,-0.13 0.1,-0.15c0.7,-0.07 0.36,0 0.81,-0.06l1.17,-0.27c-0.07,0 -0.1,0.06 -0.08,0.13l0.18,-0.11h-0.09h0.2l-0.09,0.06l-7.24507e-08,-1.37883e-08c0.142058,0.0270355 0.287942,0.0270355 0.43,2.75765e-08l0.08,0.34l-5.42,8.33l-1.18,1.48l-0.58,1.92h0.11l0.58,-0.24l-0.19,0.75l0.06,0.22l0.16,0.2c-0.07,0 -0.1,0.07 -0.08,0.15v0.12l0.24,-0.06c0.353333,-0.306667 0.503333,-0.586667 0.45,-0.84l-1.97047e-07,-5.07621e-08c0.247945,0.063874 0.505104,0.0841761 0.76,0.0600001v0.12c-0.23,0.06 -0.35,0.24 -0.37,0.56v0.12h0.13c1.94,-2.12 6.69,-9.35 10.5,-14.27c-0.12,-0.533333 1.88,-1.27333 6,-2.22h0.13c0.146667,0.666667 -0.186667,2.22333 -1,4.67l7.30158e-07,-1.8053e-06c-0.318419,0.787283 -0.556299,1.60479 -0.71,2.44l-1.05104e-06,2.72707e-06c-0.402249,1.04369 -0.710147,2.12134 -0.919999,3.22l-1.45,4.76l-1.62918e-07,4.25891e-07c-0.955603,2.49809 -1.67867,5.07903 -2.16,7.70999l-3.42595e-10,7.45928e-11c0.131789,-0.0286973 0.268211,-0.0286973 0.4,-1.49186e-10l0.2,-0.18l-2.68147e-09,-1.41314e-08c0.0123552,0.0651123 0.0751551,0.10788 0.140267,0.0955251c0.00672303,-0.00127571 0.0133246,-0.00312416 0.0197326,-0.00552512l0.00999799,-0.379988h0.63c0.19,0 0.34,-0.28 0.48,-0.71c0,-0.64 0.1,-1 0.39,-1.06l-2.82901e-07,1.53294e-06c0.147466,-0.799071 0.389153,-1.57784 0.72,-2.32l-3.55775e-07,2.0814e-06c0.153619,-0.898725 0.426004,-1.77305 0.809999,-2.6c0.55,-2 1,-3 1.21,-3.06l0.06,0.24l-0.4,1l9.18852e-07,-4.41289e-06c-0.520529,2.4999 -1.22921,4.9569 -2.12,7.35l0.21,0.89h0.13c1.73333,-3.72667 4.22667,-11.1067 7.48,-22.14l-9.76755e-08,1.24757e-06c0.0728466,-0.930445 0.59054,-1.76844 1.39,-2.25l-0.19,-0.2v-0.1l4.10012e-08,-6.33447e-09c0.304802,-0.0470903 0.582052,-0.203488 0.78,-0.44c0,-0.08 -0.34,-0.21 -1,-0.37l1.62,-7l-2.80209e-07,3.02052e-07c0.178956,-0.192906 0.388417,-0.35507 0.62,-0.48v0.35l-7.9391e-08,1.50323e-08c-0.130764,0.0247595 -0.253997,0.0795297 -0.36,0.16l0.31,0.44l-5.14995e-07,5.63033e-07c0.544444,-0.595228 1.15891,-1.12239 1.83,-1.57c0.34,0.09 0.5,0.21 0.52,0.32h0.24l-4.45983e-07,3.3803e-07c1.64664,-1.24806 3.47893,-2.23001 5.43,-2.91v0.23c-0.326667,0.493333 -0.55,0.743333 -0.67,0.75l-4.40478e-08,-5.34016e-07c0.0131858,0.159859 0.0646329,0.314201 0.15,0.45l1.18857e-06,-3.91291e-06c-0.641811,2.11291 -1.44759,4.1725 -2.40999,6.15999l8.03756e-07,-1.98364e-06c-2.72047,6.714 -5.87376,13.2444 -9.44,19.55l-3.93977e-08,-1.58652e-07c0.0309116,0.124479 0.0889638,0.240583 0.17,0.34l2.92162e-07,-4.68574e-08c0.421586,-0.0676147 0.823883,-0.224442 1.18,-0.46h0.11v0.23h0.26l0.23,-0.12c0,0.0666667 0.0833333,0.0933333 0.25,0.08v0.25l3.82294e-08,-4.28273e-07c-0.0342052,0.383192 -0.172525,0.74974 -0.4,1.06l-6.00925e-08,8.2902e-08c-0.396545,0.547063 -0.685039,1.16478 -0.85,1.82v0.12002h0.24l8.44729e-07,-9.16703e-07c0.924903,-1.00371 1.70572,-2.13117 2.32,-3.35l5.30582e-07,-1.42927e-07c2.34411,-0.631451 4.62143,-1.4888 6.79999,-2.56l-3.44637e-07,8.94133e-09c1.305,-0.0338572 2.56832,-0.466598 3.62,-1.24v-0.12l-0.61,0.18h-0.13v-0.12l2.18748e-07,-1.60225e-08c0.849832,-0.0622471 1.67258,-0.326211 2.4,-0.77c2.25,-1.73 4,-3 5.12,-3.7c3.6,-2.62 5.27,-5.13 5.07,-7.55Zm-0.61,0.16l0.08,0.94c-0.11,0.23 -0.23,0.35 -0.34,0.36l-0.14,-1.6c0.26,0.09 0.39,0.19 0.4,0.3Zm-70.56,-7.58h-0.16v-0.29l0.62,-0.08v0.15l-4.55934e-08,8.21666e-09c-0.168079,0.0302906 -0.32809,0.0949756 -0.47,0.19Zm-3.14,31.41l1.0593e-07,5.31851e-08c-0.309527,-0.155407 -0.654106,-0.227768 -1,-0.21v-0.46c0,-0.18 0.08,-0.3 0.31,-0.34c0.23,-0.04 0.33,0.13 0.34,0.43l-1.73953e-07,2.39322e-07c0.263003,-0.361836 0.561118,-0.696797 0.89,-1l0.34,0.14c-0.11,0.93 -0.4,1.41 -0.86,1.44Zm33.55,-35.1c-0.16,0 -0.48,-0.48 -0.93,-1.45v-0.29c0.3,0 0.61,0.46 0.93,1.45v0.29Zm-0.44,-3.48l-0.13,0.31l-4.57,-1.9c3.04,0.1 4.60333,0.63 4.69,1.59Zm-19.24,16.52l-0.64,0.06v-0.29l0.64,-0.06v0.29Zm-0.52,-9.92h0.16v0.46c-0.15,0 -0.34,0.23 -0.59,0.66v-0.32c0.29,-0.34 0.44,-0.61 0.42,-0.79Zm-1.36,3.2l0.06,0.61h-0.16l-0.06,-0.61Zm-0.71,1.14h0.31c0,0.5 -0.17,0.77 -0.42,0.79h-0.16l3.97442e-09,-5.56165e-09c0.161352,-0.22579 0.25501,-0.492889 0.27,-0.77Zm-0.53,1.58h0.18v0.15l-0.29,0.48h-0.31v-0.15l-1.1294e-08,-8.64475e-10c0.22027,0.01686 0.412501,-0.148036 0.429361,-0.368306c0.00312331,-0.0408048 -3.38053e-05,-0.0818473 -0.0093611,-0.121694Zm-0.52,1.43l-0.09,0.76h-0.16l-0.07,-0.75h0.32Zm-5.23,14.85c-0.21,1 -0.43,1.57 -0.66,1.59v-0.15l1.59142e-08,2.469e-07c-0.0361238,-0.560441 0.211866,-1.10151 0.66,-1.44Zm-1,2.08v0.15l6.08296e-09,2.24202e-08c0.0390462,0.143914 -0.045966,0.292233 -0.18988,0.331279c-0.0293349,0.00795904 -0.0598032,0.0109076 -0.09012,0.00872128v-0.15c0,-0.18 0.0933333,-0.293333 0.28,-0.34Zm-0.28,4.31h0.48v0.17l-9.70675e-08,1.65542e-08c-0.171477,0.0292444 -0.334963,0.0939576 -0.48,0.19h-0.31c0,-0.16 0.08,-0.28 0.28,-0.34Zm13.79,-4.26l-9.03373e-09,3.914e-09c-1.69393,0.733919 -3.30332,1.64926 -4.8,2.73c-2.91333,1.02 -4.34667,1.65667 -4.3,1.91l2.23502e-06,-8.06298e-07c-1.77562,0.640566 -3.51195,1.38519 -5.19998,2.22999l2.83966e-08,4.258e-10c-0.29683,-0.00445088 -0.588283,-0.0798857 -0.85,-0.22l-4.30102e-08,-6.02487e-07c-0.0381888,-0.534951 0.23928,-1.04299 0.710001,-1.3l9.54469e-09,-8.79012e-10c0.446441,-0.0411142 0.896164,0.0275458 1.31,0.2l1.25444e-07,-5.62128e-08c0.812159,-0.363936 1.66009,-0.64211 2.53,-0.83v-0.32l-1,0.08l8.05156e-07,-4.99666e-07c0.878582,-0.545233 1.81841,-0.984936 2.8,-1.31h0.48v0.15c-0.83,0.07 -1.29,0.32 -1.39,0.75c0,0.2 0.13,0.28 0.34,0.26c0.62,-0.39 0.93,-0.62 0.92,-0.69c1.18667,-0.226667 4.45667,-1.93667 9.81,-5.13v0.29c0,0.14 -0.45,0.53 -1.37,1.2Zm-8.22,2.7l2.09611e-07,-1.67907e-08c0.756498,-0.0605984 1.46615,-0.390587 2,-0.93c0.22,0 0.34,0.07 0.35,0.26l-5.49792e-07,1.45916e-07c-0.781209,0.207335 -1.52167,0.545447 -2.19,0.999999h-0.16v-0.31Zm13.31,-10.19l-4.11,3.26l1.68641e-06,-1.19231e-06c-1.5726,1.11185 -3.21982,2.11421 -4.92998,2.99999c-4.86667,2.66667 -7.89,4.05667 -9.07,4.17h-0.18c0.146667,-0.546667 2.31333,-4.98333 6.5,-13.31l1.02329e-06,-1.64612e-07c3.00196,-0.482912 5.92932,-1.35003 8.71,-2.58l1,-0.08l-4.57182e-07,8.16541e-08c1.59256,-0.284437 3.23025,0.135016 4.49,1.15l0.06,0.61c-0.746667,2.14 -1.56333,3.39333 -2.45,3.76Zm-8,-4.52l0.66,-0.06v0.15l-0.66,0.06v-0.15Zm9.29,-1.57h0.48c0.45,0.21 0.68,0.4 0.7,0.57v0.15l-6.77484e-08,8.95049e-10c-0.488172,0.00644942 -0.942346,-0.249262 -1.19,-0.67Zm1.31,-7.48l3.33884e-07,-3.14548e-07c-1.06821,1.00635 -2.24942,1.88554 -3.52,2.62c-0.63,0.06 -3,1 -7.07,2.76l-2.91297e-08,-1.32197e-08c-0.203483,-0.0923449 -0.427463,-0.130249 -0.65,-0.11v-0.29l-6.56425e-08,2.38703e-06c0.0221339,-0.804887 0.298698,-1.58207 0.789999,-2.22c0.32,-1.68 0.66,-2.64 1,-2.87l3.4,-7.65c-0.04,-0.473333 0.686667,-0.836667 2.18,-1.09h0.48v0.44c1.46,-0.22 2.38,-0.35 2.73,-0.38c2.7,-0.23 4.11,0.32 4.22,1.63h0.31l-0.07,-0.77l0.410001,-0.140002l-6.19873e-09,-2.55329e-09c0.670528,0.276193 1.15336,0.87596 1.28,1.59l4.7996e-08,-9.14154e-07c-0.031278,0.595739 -0.27625,1.16024 -0.689999,1.59c-0.2,0 -0.33,-0.13 -0.34,-0.43h-0.34l-0.07,0.93c-1.36667,2.04667 -2.36667,3.1 -3,3.16c-0.56,0.77 -0.9,1.16 -1,1.16Zm2.09,5.36l4.49278e-08,3.59088e-08c-0.191527,-0.153079 -0.425349,-0.243816 -0.67,-0.26v-0.46h0.31l0.68,0.4l6.08298e-09,2.24202e-08c0.0390462,0.143914 -0.045966,0.292233 -0.18988,0.331279c-0.0293349,0.00795904 -0.0598032,0.0109076 -0.09012,0.00872128Zm2.12,2.57c0.3,0.12 0.48,0.25 0.51,0.37h-0.15v0h-0.09l-0.22,0.18l-0.05,-0.55Zm0.21,1.29v-0.12l0.39,-0.09v0.12l-0.39,0.09Zm0.94,1.05c0.4,-0.07 0.6,-0.09 1.34,-0.26v0.12l-1.42,0.33l-3.10317e-08,5.87149e-07c0.00334494,-0.0632892 0.00334496,-0.126711 6.20633e-08,-0.19Zm1.38,0.59l1.74267e-07,-3.71747e-09c-0.479581,0.0102304 -0.956251,0.077367 -1.42,0.2v-0.12l1.18,-0.38l0.57,-0.13l0.06,0.22c-0.25,0.06 -0.07,0.06 -0.36,0.21Zm1.26,-0.3l-5.31222e-09,1.42336e-09c-0.138701,0.0371639 -0.281268,-0.0451486 -0.318432,-0.18385c-0.000547548,-0.00204354 -0.00107013,-0.00409368 -0.00156764,-0.00614997l0.36,-0.08l3.38692e-09,-1.33154e-09c0.113078,-0.044456 0.240784,0.0111729 0.28524,0.124251c0.00826726,0.0210285 0.0132457,0.0432051 0.0147601,0.0657495l-0.34,0.08Zm3.41,-3.67v-0.12l0.59,-0.14l0.06,0.22h-0.62Zm3.64,22.34l3.12956e-08,-1.52453e-07c0.0250566,-0.122061 0.0250566,-0.247939 -1.11386e-08,-0.37h0.13l2.36639e-09,-9.94063e-10c0.106928,-0.0449182 0.230024,0.00535101 0.274942,0.112279c0.00774021,0.0184257 0.0128105,0.0378619 0.0150576,0.0577206v0.12l-0.48,0.11Zm2.56,-21.39h-0.26l-2.39155e-07,9.9542e-08c-0.344016,0.143188 -0.698357,0.260187 -1.06,0.349999l-0.24,0.06l6.02245e-09,-2.03851e-09c-0.125551,0.0424972 -0.261781,-0.0248312 -0.304278,-0.150382c-0.00218494,-0.00645506 -0.00409396,-0.0130003 -0.00572186,-0.0196178l1.71,-0.39l0.56,-0.26l0.19,0.21l-9.31727e-08,1.27933e-08c-0.210717,0.0289331 -0.41045,0.111581 -0.58,0.24Zm1.31,-0.42v-0.12l3.39472e-09,-1.07932e-09c0.123879,-0.0393866 0.234568,-0.112026 0.32,-0.21l1.21,-0.28v0.12l-3.0627e-07,6.79508e-08c-0.522779,0.115987 -1.03465,0.276575 -1.53,0.48Zm0.19,-2.49l2.14039e-08,-7.86467e-09c-0.126308,0.0464109 -0.24195,0.117837 -0.34,0.21c0,-0.08 -0.19,-0.08 -0.5,0c-0.06,-0.23 0.84,-0.56 2.69,-1l0.26,-0.06l0.06,0.22c-1.3,0.38 -2,0.6 -2.17,0.62Zm3.26,-3.52c-0.16,1.52 -0.65,2.35 -1.58,2.52v-0.12l-0.82,0.32l-0.36,0.08l2.17205e-08,-6.13311e-09c-0.163471,0.0461583 -0.336529,0.0461583 -0.5,1.22662e-08l-0.11,-0.28l-8.10896e-07,1.27704e-06c1.08469,-1.70823 2.27361,-3.34801 3.56,-4.91h0.28l1.43117e-07,3.27955e-06c0.035949,0.823786 -0.128775,1.64397 -0.480001,2.39Zm5.77,-4.94h-0.11v-0.23h0.48v0.12l-3.29024e-08,9.11542e-09c-0.125768,0.0348432 -0.246701,0.0852319 -0.36,0.15Zm-2.38,23.9l1.55642e-07,8.1452e-08c-0.230979,-0.120878 -0.489475,-0.17947 -0.75,-0.17v-0.35c0,-0.12 0.0733333,-0.203333 0.22,-0.25c0.16,0 0.25,0.09 0.27,0.34l-1.84204e-07,2.74725e-07c0.190221,-0.2837 0.415316,-0.542391 0.67,-0.77l0.25,0.1c-0.09,0.71 -0.31,1.08 -0.64,1.11Zm25.45,-26.65c-0.12,0 -0.35,-0.36 -0.72,-1.12v-0.23c0.23,0 0.48,0.34 0.72,1.09v0.26Zm-0.34,-2.66l-0.11,0.24l-3.45,-1.44c2.3,0.07 3.49,0.48 3.56,1.2Zm-14.59,12.54h-0.48v-0.23h0.48v0.22Zm-0.4,-7.54h0.13v0.35c-0.12,0 -0.27,0.166667 -0.45,0.5v-0.23l7.95629e-09,-7.87796e-09c0.168651,-0.16699 0.277598,-0.384885 0.31,-0.62Zm-1,2.42v0.46h-0.13v-0.46Zm-0.55,0.87h0.24c0,0.393333 -0.103333,0.6 -0.31,0.62h-0.13l-3.04849e-08,4.71026e-08c0.118215,-0.182655 0.187118,-0.392809 0.2,-0.61Zm-0.39,1.19h0.11v0.12l-0.21,0.37h-0.24v-0.1c0.25,0 0.36,-0.15 0.34,-0.38Zm-0.39,1.08l-0.08,0.6h-0.11v-0.59h0.24Zm-4,11.3c-0.16,0.78 -0.326667,1.18 -0.5,1.2v-0.1l-3.1791e-08,-8.11509e-07c-0.0167409,-0.427337 0.173034,-0.836655 0.510001,-1.1Zm-0.74,1.57v0.1l8.86686e-10,2.92816e-09c0.0336134,0.111002 -0.0291225,0.228236 -0.140124,0.261849c-0.0258532,0.0078288 -0.0529739,0.0105962 -0.0798755,0.00815056v-0.12c0,-0.12 0.0733333,-0.203333 0.22,-0.25Zm-0.21,3.28h0.37v0.12l8.75744e-10,-1.67873e-10c-0.127499,0.0244412 -0.249487,0.0718807 -0.36,0.14h-0.24c0,-0.133333 0.0733333,-0.216667 0.22,-0.25Zm10.46,-3.23l7.14391e-08,-3.16734e-08c-1.28014,0.567567 -2.50248,1.25744 -3.65,2.06c-2.24,0.78 -3.34,1.27 -3.33,1.46l1.40172e-06,-5.31554e-07c-1.32368,0.501961 -2.616,1.08301 -3.86998,1.73999l2.27618e-08,9.76144e-10c-0.224395,-0.00962307 -0.443487,-0.0712426 -0.64,-0.18l1.15645e-09,1.05446e-08c-0.0453127,-0.413164 0.169671,-0.811282 0.54,-1l-3.9209e-08,3.70673e-09c0.340575,-0.0321973 0.68386,0.0192954 1,0.15l3.90579e-07,-1.67276e-07c0.622513,-0.266609 1.26868,-0.474186 1.93,-0.62v-0.23l-0.76,0.06l-5.77422e-07,3.58421e-07c0.671321,-0.416708 1.38966,-0.752382 2.14,-1h0.37v0.1c-0.63,0.06 -1,0.24 -1.06,0.58l-6.44021e-09,2.23061e-07c-0.0033471,0.115931 0.0879206,0.212626 0.203852,0.215973c0.0188996,0.000545658 0.0377863,-0.00146359 0.0561482,-0.00597327c0.47,-0.31 0.69,-0.48 0.69,-0.54c0.893333,-0.16 3.37333,-1.46 7.44,-3.9v0.23c0,0.1 -0.34,0.4 -1,0.91Zm-6.24,2l1.22368e-07,-9.45589e-09c0.582596,-0.0450198 1.13102,-0.292694 1.55,-0.7l-1.74884e-08,4.29517e-09c0.112633,-0.0276626 0.226364,0.0412192 0.254027,0.153852c0.00450966,0.0183618 0.00651889,0.0372485 0.00597321,0.0561482l-2.5541e-07,6.55813e-08c-0.586329,0.150551 -1.14615,0.389992 -1.66,0.71h-0.13v-0.22Zm10.09,-7.68l-3.1,2.5l7.04846e-08,-5.04394e-08c-1.19873,0.857824 -2.45878,1.62655 -3.77,2.3c-3.68667,2 -5.98333,3.05333 -6.89,3.16h-0.13c0.113333,-0.42 1.76333,-3.78667 4.95,-10.1l1.3001e-06,-2.18898e-07c2.27921,-0.38375 4.50036,-1.05581 6.60999,-2l0.75,-0.07l-4.68678e-07,8.31864e-08c1.20894,-0.214577 2.45124,0.110613 3.4,0.889999v0.46c-0.57,1.6 -1.18,2.54 -1.85,2.83Zm-6.09,-3.43h0.48v0.12h-0.48v-0.12Zm7.05,-1.2h0.37c0.34,0.17 0.52,0.32 0.53,0.44v0.1l1.00268e-08,-3.80041e-10c-0.374998,0.0142131 -0.726388,-0.18272 -0.91,-0.51Zm1,-5.67l-3.6435e-07,3.4745e-07c-0.805567,0.768201 -1.69831,1.43944 -2.66,2l-7.42777e-07,2.20592e-07c-1.84316,0.547388 -3.63902,1.24299 -5.37,2.08l-6.10926e-08,-2.2036e-08c-0.156834,-0.0565698 -0.323599,-0.0803934 -0.49,-0.07v-0.23l3.30484e-08,-1.29793e-06c0.0155598,-0.611087 0.221857,-1.202 0.590001,-1.69c0.24,-1.29 0.51,-2 0.79,-2.17l2.6,-5.81c0,-0.34 0.52,-0.62 1.64,-0.84h0.37v0.35c1.1,-0.18 1.79,-0.283333 2.07,-0.31c2,-0.18 3.12,0.23 3.21,1.24h0.24v-0.56h0.24l1.69297e-08,6.09165e-09c0.519792,0.187031 0.900758,0.636571 1,1.18l-1.69008e-08,1.5492e-07c-0.0500611,0.458882 -0.262933,0.884625 -0.600003,1.2c-0.16,0 -0.25,-0.09 -0.27,-0.34h-0.24l-0.07,0.7c-1,1.57 -1.79,2.39 -2.26,2.42c-0.42,0.57 -0.68,0.86 -0.8,0.87Zm1.09,3.88v-0.35h0.24l0.52,0.32l5.02676e-09,3.65067e-08c0.0165738,0.120367 -0.0675671,0.231379 -0.187934,0.247953c-0.0106245,0.00146293 -0.0213417,0.00214701 -0.032066,0.00204676l1.2462e-08,9.49691e-09c-0.148069,-0.112839 -0.324698,-0.182105 -0.51,-0.2Zm-43.39,22.62l-0.24,0.06l-0.21,0.18l-9.8791e-10,-8.73095e-09c0.0130399,0.115244 0.117035,0.198098 0.232279,0.185058c0.0198587,-0.00224702 0.039295,-0.00731734 0.0577206,-0.0150576c0.16,0 0.22,-0.13 0.19,-0.28v-0.12Zm-0.92,-1.84v0.12c0.16,0 0.22,-0.13 0.19,-0.28v-0.12l2.20615e-09,-2.15238e-10c-0.120928,0.0117983 -0.209396,0.119395 -0.197598,0.240323c0.00131035,0.0134307 0.00385365,0.0267123 0.00759773,0.039677Zm6.56,-15.6l0.28,-0.07l-0.06,-0.24l-0.28,0.07l0.06,0.24Zm84.55,7.1l-8.51079e-08,2.36898e-08c-1.23214,0.342967 -2.50151,0.53438 -3.78,0.57v0.23h0.26h0.14v0l0.31,-0.12c2.8,-0.31 3.13,-0.2 3.1,-0.51v-0.11Zm-15.25,2v0.23v0v-0.23Zm-1.75,-6.14l-0.25,-0.08l7.21609e-08,-1.63441e-07c-0.141104,0.319594 -0.241879,0.65551 -0.3,0.999999v0.1c0.2,0 0.37,-0.34 0.54,-1Zm17.58,4.07v0.23l0.41,0.07v-0.23l-0.41,-0.07Zm-19.29,2.38l-0.63,-0.07l-0.11,0.24v0.12l3.77,-0.32v-0.23l-3,0.26Zm-1.71,-8.26v-0.12h-0.13l-0.23,0.15l0.13,0.22c0.18,0 0.26,-0.1 0.24,-0.26Zm22.78,4.16h0.18c0.1,0 0.15,-0.09 0.14,-0.24l-0.1,-0.22l-3.62807e-09,-2.01084e-11c-0.510212,-0.00282683 -1.01271,0.12452 -1.46,0.37v-0.11l-0.77,0.07c0,-0.23 -0.08,-0.35 -0.19,-0.34h-0.4c-0.47,0 -0.69,0 -0.92,0.2c0,-0.08 0,-0.12 -0.08,-0.12h-0.45l-0.26,0.15c0,-0.08 0,-0.12 -0.08,-0.12l-0.16,0.14v-0.12h-0.62h-0.15v0.23l0.32,0.08h0.3l-1.93508e-09,-1.13451e-09c0.10254,0.0601175 0.222051,0.0847227 0.34,0.07l0.26,-0.13v0.09l7.52709e-07,-1.95779e-07c-0.808822,0.210373 -1.63059,0.367378 -2.46,0.47l-1.25645e-08,-1.07301e-08c-0.0701007,-0.059866 -0.15795,-0.0950059 -0.25,-0.1v0l6.20153e-09,3.02293e-10c-0.110326,-0.00537805 -0.195403,-0.0991747 -0.190025,-0.209501c8.11486e-06,-0.000166469 1.64378e-05,-0.000332928 2.49688e-05,-0.000499377l0.52,-0.07l2.69424e-07,8.54569e-08c0.114913,0.0364484 0.231759,0.0664946 0.35,0.09c0.42,-0.21 0.44,-0.29 0.66,-0.31v-0.23l1.31631e-06,-2.42169e-07c-0.87758,0.161454 -1.7677,0.245112 -2.65999,0.25h-0.08v-0.23c2.31,-0.28 1.54,-0.12 2.33,-0.34c0,0.08 0,0.12 0.08,0.12l-5.57861e-10,5.75881e-10c0.0853868,-0.0881459 0.198251,-0.144578 0.32,-0.16h0.16l-3.4911e-07,-1.06731e-08c0.906317,0.0277081 1.81119,-0.0904661 2.68,-0.349999v0.1l0.26,-0.13h0.24c0,-0.23 0.34,-0.27 0.46,-0.28v-0.25c-2.81,0.57 -3.55,0.41 -4.33,0.63v-0.1l2.27402e-07,-5.26361e-08c-0.327566,0.075821 -0.664545,0.102779 -0.999999,0.0800001l1.91906e-08,-5.80845e-09c-0.0893958,0.0270575 -0.169196,0.0791012 -0.23,0.15c0,-0.08 0,-0.12 -0.09,-0.12v0l-2.39,0.39c0,-0.07 0,-0.1 -0.09,-0.09l1.36685e-07,-4.00239e-08c-0.834451,0.244343 -1.69268,0.398557 -2.56,0.46l-1.66036e-08,3.01951e-09c-0.111554,0.020287 -0.217343,0.0646504 -0.31,0.13c0,-0.07 0,-0.1 -0.13,-0.09l-1,0.08l-0.68,0.17c0,-0.07 0,-0.1 -0.13,-0.09l1.90176e-08,-5.50213e-09c-0.326649,0.0945053 -0.661453,0.158118 -1,0.19v0c-0.17,0 0.08,0 0,-0.1l-0.21,0.12c-0.3,0 -0.14,0 -1.16,0c-1.8,0.22 -1.6,0.25 -1.8,0.26h-0.67l2.35994e-09,9.90184e-09c0.0115237,0.0483513 -0.0183309,0.0968897 -0.0666823,0.108413c-0.01091,0.00260023 -0.02221,0.00313832 -0.0333177,0.00158655c-0.76,-0.1 -1.16,-0.22 -1.16,-0.36c0.1,-0.726667 0.276667,-1.1 0.53,-1.12h0.13l-0.11,0.24h0.13c0.24,-0.13 0.35,-0.25 0.34,-0.36v-0.25h-0.24v-0.23l-6.85996e-09,-4.90653e-08c-0.0223894,-0.160139 0.0019166,-0.323336 0.07,-0.47l0.55,-0.89v0.23h0.26v-0.23l-0.15,-0.21l-9.43818e-08,9.63821e-08c0.128822,-0.131553 0.291464,-0.224985 0.47,-0.27v-0.12h-0.35v-0.35l2.9787e-07,-5.33265e-07c0.450422,-0.806374 0.786954,-1.67126 1,-2.57l0.25,0.1c0.16,0 0.23,-0.1 0.22,-0.27h-0.24v-0.1l-1.81686e-08,-1.77459e-07c-0.0172585,-0.168571 0.0139649,-0.338565 0.0900001,-0.49l-7.92335e-08,7.07439e-08c0.346169,-0.309078 0.536759,-0.756231 0.52,-1.22c0.07,0 0.11,0 0.12,0.11c0.33,-0.19 0.58,-0.68 0.76,-1.5l-1.22122e-06,2.72985e-06c0.902412,-2.0172 1.66097,-4.09572 2.26999,-6.22c2,-5.52 2,-6.1 2.25,-7.41h-0.24l2.84846e-08,2.58848e-07c0.0181993,0.165382 -0.0131248,0.332444 -0.0900001,0.48l-5.86844e-08,-2.67922e-08c-0.122607,-0.0559755 -0.255263,-0.0865886 -0.39,-0.09v-0.1l-1.43919e-08,8.93073e-07c0.0100158,-0.621524 0.224385,-1.22246 0.609999,-1.71h0.0500015l0.21,0.8h0.24l3.98031e-08,-3.34966e-07c0.0400845,-0.337333 0.103571,-0.671472 0.19,-1c0,-0.12 -0.1,-0.2 -0.29,-0.21l-0.23,0.15c0,-0.17 0,-0.61 0,-1.3h-0.12l-8.67567e-08,-6.91965e-08c-0.161444,-0.128767 -0.27429,-0.308616 -0.32,-0.51l-1.33,0.13l1.54438e-09,8.8738e-09c-0.0251516,-0.144518 -0.0759517,-0.283371 -0.15,-0.41c0,-0.12 0.29,-0.24 0.9,-0.36l0.27,0.1l0.25,-0.15c0,0.08 0.06,0.12 0.15,0.11l0.25,-0.15c0,0.08 0.06,0.12 0.15,0.11h0.12v-0.27c-0.19,0 -0.68,0 -1.46,0l-0.25,0.17v-0.180003c-6.25333,0.513333 -9.80333,0.81 -10.65,0.89c-0.11,0 -0.55,0 -1.32,0c0,0.1 -0.08,0.16 -0.27,0.18l-0.27,-0.12l-0.91,0.23l-1.53693e-07,1.37045e-08c-0.359287,0.032037 -0.720713,0.032037 -1.08,-2.7409e-08l2.62534e-08,-2.09143e-08c-0.146064,0.116359 -0.323776,0.18605 -0.51,0.2l2.67,-0.17l-4.21559e-08,2.8608e-08c-0.19225,0.130465 -0.417757,0.203322 -0.65,0.21l-1.48729e-08,2.02135e-09c-0.18171,0.024696 -0.366628,-0.00670523 -0.53,-0.09l1.77213e-07,-5.45689e-08c-0.655254,0.20177 -1.32346,0.358798 -1.99999,0.469999l-0.27,-0.1l-4.36,0.67l3.89348e-09,1.77945e-09c-0.184463,-0.0843063 -0.38879,-0.115475 -0.59,-0.09l-1.90209e-07,2.49555e-08c-0.39284,0.0515407 -0.780801,0.135153 -1.16,0.249999l-2.11,0.88l0.16,0.26l6.08144e-08,-1.08054e-08c0.153289,-0.0272361 0.299527,-0.0850512 0.43,-0.17l0.75,0.07l-0.09,0.7l8.95412e-08,-3.18384e-08c-0.601596,0.213911 -1.0535,0.718539 -1.2,1.34c-1,0.46 -1.55,0.78 -1.55,1v0.12h0.16l0.28,-0.15l0.33,0.39v0.54c0,0.166667 -1.73667,3.83333 -5.21,11c-3,6.9 -4.6,10.67 -4.75,11.35c-1,0.29 -1.63,0.71 -1.81,1.27c0,0.18 0.33,0.3 0.92,0.34v0.27l-0.27,0.45v0.54c0,0.28 0.753333,0.493333 2.26,0.64c0,-0.09 0,-0.15 0.14,-0.16l2.02003e-07,-1.3716e-05c-0.00995093,0.675705 -0.104007,1.34754 -0.279997,2h0.16l1.10962e-07,-1.08331e-07c0.529542,-0.516985 0.879928,-1.18973 0.999987,-1.91998h0.13c0.15,0 0.31,0.16 0.49,0.52c-0.186667,0.0733333 -0.853333,1.55667 -2,4.45l0.16,0.26h0.22c1.36667,-3.46667 2.22667,-5.38333 2.58,-5.75c1.8,-0.16 4.91,-0.493333 9.33,-1l0.28,-0.17l-3.44924e-09,7.04503e-08c-0.00351097,0.0717111 0.0517762,0.132691 0.123487,0.136202c0.0157521,0.00077122 0.031513,-0.00133025 0.0465128,-0.00620173h0.29l0.28,-0.17l-3.44926e-09,7.04503e-08c-0.00351097,0.0717111 0.0517762,0.132691 0.123487,0.136202c0.0157521,0.00077122 0.031513,-0.00133025 0.0465128,-0.00620173l3.35,-0.29c0.89,-0.07 1.3,-0.34 1.27,-0.8c0,-0.12 0.51,-0.26 1.57,-0.41l5.42958e-08,-6.09248e-10c0.156941,-0.00176101 0.312868,0.0253567 0.46,0.08c0,-0.08 0.52,-0.17 1.58,-0.26c0,-0.56 0.21,-0.86 0.52,-0.89v-0.27l-3.30715e-07,3.82107e-08c-0.340825,0.0393788 -0.676218,0.116519 -1,0.23l1.30514e-07,1.65707e-09c-0.447774,-0.00568517 -0.893651,-0.0593244 -1.33,-0.16l5.45768e-09,-3.46422e-09c-0.131298,0.0833405 -0.277208,0.141026 -0.43,0.17l-2.33,0.07l-0.28,0.15c0,-0.0866667 -0.0566667,-0.123333 -0.17,-0.11h-0.13l-0.3,0.15c0,-0.08 -0.25,-0.15 -0.74,-0.21l-0.3,0.18h-0.58v-0.15c3,-0.326667 4.48,-0.733333 4.44,-1.22l-1.776e-08,4.25419e-09c0.139644,-0.0334499 0.279964,0.0526371 0.313414,0.192281c0.00609093,0.0254278 0.00831137,0.051629 0.00658638,0.0777192l0.88,-0.22v-0.27l-7.18,0.2c0,0.09 0,0.15 -0.14,0.16l-0.88,-0.07l2.29641e-08,-1.34993e-09c-0.201926,0.0118702 -0.396239,0.0812679 -0.56,0.2l-0.33,-0.12l-1.53823e-07,9.54931e-09c-0.676122,0.0419735 -1.34623,0.152541 -2,0.329999l4.71635e-07,3.7164e-08c-0.665632,-0.0524505 -1.33436,-0.0524508 -1.99999,-8.26052e-07l-1.61,0.14l-0.75,-0.08c0,-0.48 0.89,-2.81 2.79,-7l-5.30109e-08,1.87681e-07c0.281394,-0.996253 0.811305,-1.90467 1.54,-2.64l-3.05456e-08,-4.26645e-10c0.159577,0.0022289 0.316677,0.0397963 0.46,0.11l1.15,-0.39l0.59,0.09l-3.56241e-07,3.90174e-08c1.18253,-0.129517 2.34265,-0.415344 3.45,-0.85l-1.45351e-07,2.09364e-08c0.252018,-0.0363006 0.509052,-0.0123108 0.75,0.0699999l0.88,-0.21l2.61,-0.22l-7.25996e-07,6.89213e-08c1.22962,-0.116732 2.44321,-0.364814 3.62,-0.74v-0.27c-0.48,0 -0.74,0 -0.75,-0.23c0,-0.36 -0.38,-0.51 -1.06,-0.46v-0.27l0.72,-0.21l1.88,-0.16v-0.27c-0.07,0 -0.46,0 -1.16,0v-0.29l0.73,-0.07c0.2,0 0.28,-0.11 0.26,-0.3c-1,0 -1.47,0 -1.48,-0.15c-6.82,0.333333 -10.24,0.396667 -10.26,0.19l-6.81745e-08,1.48011e-08c-0.154712,0.0335888 -0.300998,0.0982267 -0.43,0.19l-0.18,-0.28c1.80667,-3.84 2.86667,-5.77333 3.18,-5.8l6.63438e-08,-9.16609e-07c-0.0184459,0.254851 -0.0972849,0.501652 -0.229999,0.72v0.12h0.29c0.72,-1.71 1.32,-2.6 1.83,-2.64c2.14,-0.19 -0.3,-0.33 4.29,-1l5.3287e-09,2.91244e-09c0.125941,0.0688337 0.266517,0.106549 0.41,0.11c1.8,-0.36 4.30667,-0.74 7.52,-1.14v-0.27l-1.71,0.16v-0.27l4.2047e-08,-3.14972e-09c0.186224,-0.01395 0.363936,-0.0836408 0.51,-0.2v0.15l3.71965e-08,-8.89356e-09c0.142337,-0.0340323 0.275469,-0.0988917 0.39,-0.19l-1.05078e-07,1.77477e-08c0.229656,-0.0387891 0.465617,-0.011029 0.68,0.0799999l3.51375e-07,-9.86448e-08c0.4689,-0.131639 0.946858,-0.228567 1.43,-0.289999l1.07,-0.1c0.26,-0.17 0.38,-0.32 0.37,-0.46v-0.12l-1.08355e-07,8.2561e-09c-0.314598,0.0239707 -0.631002,0.00377466 -0.939999,-0.0599999l-6.11729e-09,-5.21222e-08c-0.0173817,-0.1481 0.0885867,-0.28225 0.236687,-0.299632c0.00110357,-0.00012952 0.00220793,-0.000252226 0.00331301,-0.000368111l2,-0.19l0.91,-0.23c0,0.1 0.06,0.14 0.13,0.14l3.71965e-08,-8.89356e-09c0.142337,-0.0340323 0.275469,-0.0988917 0.39,-0.19h0.15l-7.75051e-09,1.68981e-08c-0.161599,0.352327 -0.295341,0.716775 -0.399999,1.09h-0.26l-5.18364e-09,-6.42622e-08c-0.013646,-0.169171 -0.0648928,-0.333161 -0.15,-0.48h-0.13c-2.42,6.75 -3.5,9.89 -5.74,15.07c-0.41,1.32 -0.75,2.06 -1.05,2.22l-6.4402e-09,2.23061e-07c-0.0033471,0.115931 0.0879206,0.212626 0.203852,0.215973c0.0188996,0.000545658 0.0377863,-0.00146359 0.0561482,-0.00597327l5.78703e-08,7.57843e-07c0.0515865,0.675554 -0.109244,1.35034 -0.46,1.93c-1,3 -1.72,4.61 -2.08,4.91l0.23,1.41l5.02676e-09,3.65067e-08c0.0165738,0.120367 -0.0675671,0.231379 -0.187934,0.247953c-0.0106245,0.00146293 -0.0213417,0.00214701 -0.032066,0.00204676h-0.24c0,-0.39 -0.18,-0.58 -0.43,-0.55h-0.13l3.33648e-07,-5.25691e-07c-0.335454,0.528537 -0.578901,1.11011 -0.72,1.72h0.24l3.84258e-08,-1.90406e-08c0.283685,-0.140571 0.459466,-0.433539 0.45,-0.75h0.48l0.28,0.1l1.72217e-08,-2.23707e-08c-0.188357,0.244673 -0.296617,0.541513 -0.31,0.85l0.13,0.22l-0.32,0.75v0.12l4.79793e-08,-1.94196e-09c0.323357,-0.0130879 0.642365,0.0780572 0.91,0.26l8.00579e-08,-1.10943e-08c0.267724,-0.0371009 0.522021,-0.140194 0.74,-0.3c0.28,0 1.32,0 3.12,0l0.9,-0.31l-1.96271e-07,-8.99433e-10c0.644216,0.00295218 1.28823,-0.0237414 1.92999,-0.079996h0.39l0.21,-0.14v0.12l-2.33523e-07,3.42431e-08c0.630501,-0.0924546 1.27158,-0.0857064 1.9,0.0199997v0.12h-0.55v0.23l3.78777e-08,-2.48565e-09c0.160557,-0.0105363 0.314068,-0.0698475 0.44,-0.17c0.14,0 0.22,0.07 0.23,0.23l-1.05397e-07,1.11503e-08c-0.255801,0.0270619 -0.507531,0.0841206 -0.75,0.17l-0.24,-0.08c-0.38,0.1 -0.3,0.13 -0.56,0.15l-0.38,-0.07l5.41093e-10,2.37048e-09c0.0110613,0.0484592 -0.0192557,0.0967102 -0.0677149,0.107771c-0.00730661,0.00166781 -0.0147929,0.00241644 -0.0222851,0.00222851l-6.19424e-09,1.00359e-07c-0.00680454,0.110247 0.0770523,0.205136 0.187299,0.211941c0.014262,0.000880263 0.0285773,0.00022956 0.0427007,-0.00194096h0.39l2,-0.18l0.77,-0.17c0,0.07 0,0.1 0.1,0.09l0.37,-0.14l0.7,-0.06c0.54,0 0.53,-0.08 1.7,-0.27c0,-0.07 0,-0.1 0.07,-0.11v0.1l2.30296e-07,-2.79239e-08c0.789463,-0.095724 1.57134,-0.246084 2.33999,-0.449998v0.06c0.48,-0.11 0.21,-0.08 0.34,-0.18c0,0.08 0,0.12 0.08,0.12h0.34v-0.25h-0.68v0h-0.07h-0.09v0l1.09943e-07,-2.05933e-08c-0.250485,0.0469181 -0.505254,0.0670315 -0.759998,0.0600001l-1.71,0.09v-0.12l1,-0.13h0.34l0.2,-0.14v0.12c1.34,-0.11 1.82,0.22 8,-1.1c0.34,0 0.31,-0.31 0.52,-0.89l2.94744e-08,-2.54265e-09c-0.114506,0.00987798 -0.229365,-0.0144861 -0.33,-0.07l4.51764e-07,-1.09691e-07c-0.58073,0.141005 -1.17325,0.228042 -1.77,0.26c-0.08,0 -0.15,-0.07 -0.18,-0.21v-0.1h1l-9.20964e-09,9.78744e-10c0.354446,-0.0376685 0.69605,-0.153814 1,-0.34c0,0.08 -0.19,0.13 -0.07,0.12Zm-45.91,0.77h-0.44l-3.29903e-08,1.56151e-07c0.146607,-0.693925 0.381871,-1.36611 0.7,-2h0.29l1.37824e-07,-1.03935e-06c-0.0913151,0.68862 -0.276362,1.36152 -0.55,2Zm0.53,-2.12v-0.12c0,-0.15 0.08,-0.25 0.29,-0.3v0.12c0,0.18 -0.08,0.28 -0.29,0.3Zm5.82,4.5v0.12l-0.73,0.07v-0.12l0.73,-0.07Zm-0.88,-0.07c0,0.15 -0.21,0.32 -0.7,0.48l-0.89,-0.07h-0.29v-0.27l1.91,-0.18Zm5.93,-27.08h-0.4v-0.15c0,-0.15 0.07,-0.25 0.26,-0.3h0.16l0.3,0.12l1.49673e-08,9.53172e-08c0.022275,0.141856 -0.0746643,0.27491 -0.21652,0.297185c-0.0176823,0.00277657 -0.035604,0.00371981 -0.05348,0.00281472Zm6.66,-1.3h0.14v0.27h-0.4l-6.11729e-09,-5.21222e-08c-0.0173817,-0.1481 0.0885867,-0.28225 0.236687,-0.299632c0.00110357,-0.00012952 0.00220793,-0.000252226 0.00331301,-0.000368111Zm-1.68,0.59l-0.66,-0.07v-0.22l-3.21938e-07,2.15146e-08c0.574145,-0.0383692 1.14157,-0.145811 1.69,-0.319999c0,0.1 0.1,0.14 0.27,0.12v0.27h-0.26l-1.48729e-08,2.02135e-09c-0.18171,0.024696 -0.366628,-0.00670523 -0.53,-0.09l-3.70782e-08,2.52388e-08c-0.152167,0.103579 -0.327154,0.16877 -0.51,0.19Zm0.83,2.41v-0.12l1.07,-0.1v0.12l-1.07,0.1Zm1.15,-0.93v-0.15h0.52v0.15h-0.52Zm0.12,-1.83h-0.14l0.12,-0.29l1.19,-0.11v0.15l-6.17503e-07,7.23911e-08c-0.399359,0.0468176 -0.794079,0.1271 -1.18,0.239999Zm0.61,2.57v-0.27h0.52c0.18,0 0.273333,0.0833333 0.28,0.25l-0.78,0.07Zm3.16,-4.3l-0.67,0.19h-0.12l2.79844e-07,-2.48131e-08c-0.402542,0.0356925 -0.807453,0.0356926 -1.21,4.53124e-07c0.87,-0.06 1.7,-0.12 2,-0.17Zm-0.72,3v0.12l-0.92,0.08v-0.12l0.92,-0.08Zm1.51,0.72c0,-0.11 -0.19,-0.19 -0.55,-0.22l-0.92,0.26h-0.71c-0.16,-0.11 -0.24,-0.19 -0.25,-0.24h0.82l1.84,-0.3h0.94v0.15l-1.61364e-07,1.40077e-08c-0.401186,0.0348262 -0.797083,0.115348 -1.18,0.24Zm9.49,-2.45h0.21l1.62689e-07,-1.61723e-07c0.319513,-0.317616 0.696105,-0.57207 1.11,-0.75l9.17816e-08,-5.4429e-07c-0.20506,1.21606 -0.749264,2.34953 -1.57,3.27l-0.52,-0.32l-1.81345e-07,4.25661e-07c0.307354,-0.721435 0.56463,-1.46319 0.77,-2.22Zm-1.6,2.75h0.13c-0.18,0.34 -0.34,0.51 -0.47,0.52v-0.35l3.2742e-08,-5.60168e-09c0.131461,-0.022491 0.255213,-0.077492 0.36,-0.16Zm-1,2.47l-7.28177e-09,5.71136e-08c0.0800538,-0.627891 0.328885,-1.22232 0.72,-1.72v0.02c-0.13,0.93 -0.34,1.43 -0.61,1.46v0.59l-8.73627e-09,1.00155e-08c-0.183146,0.209963 -0.295159,0.472493 -0.32,0.75h-0.13l-0.07,-0.81c0.15,0 0.27,-0.15 0.35,-0.39Zm-0.4,1.34l4.38611e-08,-3.94267e-07c-0.0383988,0.345167 -0.129455,0.682413 -0.27,1h-0.13v-0.35c0.18,-0.41 0.33,-0.62 0.43,-0.62Zm-7.53,21.76v-0.1h0.24v0.35c-0.13,0 -0.22,-0.07 -0.26,-0.23Zm10.74,0.28c0,-0.08 0,-0.12 -0.13,-0.11l-0.61,0.03v-0.1v0l1.43,-0.12v0.12l5.23557e-08,3.96132e-09c-0.262669,-0.019874 -0.524962,0.0430762 -0.75,0.18Zm-0.72,-0.3c0.06,0 0,0.06 0,0.07c0,0.01 -0.07,0 0,-0.07Zm0.07,-1.68l-0.8,0.07v-0.17h0.71l0.63,-0.16c0,0.07 0,0.1 0.13,0.09c0.75,-0.13 0.68,-0.17 1,-0.2c0.12,0 0.2,0.07 0.21,0.21l-1.93,0.17Zm2.8,-0.24l2.11993e-07,4.30408e-08c-0.259817,-0.0527504 -0.525197,-0.0729058 -0.79,-0.0600001v-0.1l0.72,-0.07v0.1c-0.07,0 0.2,0 0.07,0.12Zm0.06,-0.13v-0.1h0.39v0.1h-0.39Zm0.87,-0.07v-0.1l3.92348e-08,-1.02722e-08c0.103866,-0.0271938 0.199817,-0.0785961 0.28,-0.15l4.86304e-09,-7.11225e-10c0.153012,-0.0223784 0.295194,0.0835209 0.317572,0.236533c0.00113855,0.0077848 0.00194848,0.0156141 0.00242763,0.0234671Zm1.11,-0.14v-0.12h0.48v0.12h-0.48Zm0.66,-0.06c0,-0.14 0,-0.22 0.17,-0.24l0.16,0.21l-3.10975e-09,-1.25246e-08c-0.0119778,-0.0482409 0.0174192,-0.0970578 0.0656601,-0.109036c0.00143848,-0.000357163 0.00288557,-0.000678738 0.00433993,-0.000964429l0.12,0.22l-0.52,-0.07Zm-7,3v-0.23h-0.07v0.23Zm16.37,-4.24c0.07,0 0.11,-0.09 -0.07,-0.12c-0.18,-0.03 0.09,0.12 -0.09,0.13v0.08l0.1,-0.07l-0.1,0.08v0l-0.2,0.25l0.39,-0.14v0v-0.23Zm0.68,0.53h-0.07v0.23h0.55c0,-0.15 -0.37,-0.2 -0.49,-0.2Zm-0.85,-0.41v0v0Z"></path><path fill="#F9DC3E" d="M90,50.13v0.15h0.31l1.4905e-08,-7.81068e-07c0.00281864,-0.147703 0.0333477,-0.293564 0.0900003,-0.43v-0.27c-0.13,0 -0.26,0.21 -0.38,0.58Zm-3,-7.13v-0.27h-0.44v0.27h0.44Zm-8.52,16l-2.61688e-07,-4.48012e-07c-0.643658,-1.10195 -1.43424,-2.1112 -2.35,-3c0,-0.32 0.5,-0.79 1.59,-1.42l3.12,-2.58l1.63961e-07,-2.55915e-07c0.823373,-1.28515 1.25108,-2.78386 1.23,-4.31v-0.46c-0.12,-1.38 -1.12,-2.49 -3,-3.34c-1.12,-0.753333 -3.12,-1.17 -6,-1.25l-2.75252e-06,3.59996e-07c-3.24026,0.423787 -6.40669,1.29195 -9.40999,2.58l-9.32317e-08,6.6329e-08c-1.16664,0.829997 -2.37851,1.59451 -3.63,2.29v0.23l6.05194e-08,-1.16286e-08c0.130655,-0.0251051 0.253813,-0.0798416 0.36,-0.16l-1.74884e-08,4.29516e-09c0.112633,-0.0276626 0.226364,0.0412192 0.254027,0.153852c0.00450966,0.0183618 0.00651889,0.0372485 0.00597321,0.0561482l0.23,-0.12h0.11v0.1l3.2059e-07,-3.28092e-07c-0.752471,0.770077 -1.59917,1.44206 -2.52,2l0.13,0.24h-0.11l-0.28,-0.1c0,0.08 -0.11,0.14 -0.34,0.16v0.1l0.27,0.34l-3.32257e-08,-8.41226e-10c-0.134737,-0.00341138 -0.267393,-0.0340245 -0.39,-0.09l-6.28849e-08,8.78589e-09c-0.450105,0.0628859 -0.862193,0.286692 -1.16,0.63l0.16,-0.69l1.35607e-06,-5.65624e-06c0.513561,-2.14209 0.900894,-4.3125 1.16,-6.5v-0.12l4.90304e-07,3.24696e-07c-0.431584,-0.28581 -0.813326,-0.640525 -1.13,-1.05l1.20033e-07,-1.81368e-06c0.0107978,-0.163154 0.0107978,-0.326843 -2.03814e-08,-0.489997v-0.1h-0.11c-1.23333,1.84667 -3.60333,4.99667 -7.11,9.45c-2.66667,3.16667 -4.04667,4.92667 -4.14,5.28c-1.09,1.13 -1.61,1.81 -1.56,2c-0.29,0.19 -0.41,0.37 -0.36,0.58l-1.01966e-09,3.82045e-10c-0.0620609,0.0232532 -0.131222,-0.00820655 -0.154475,-0.0702674c-0.00240096,-0.00640796 -0.00424941,-0.0130095 -0.00552512,-0.0197326l-6.5889e-08,1.0733e-07c-0.461429,0.751643 -1.21514,1.27707 -2.08,1.45l-1,0.22l-1.45437e-09,2.16886e-10c-0.125636,0.0187359 -0.212296,0.135773 -0.19356,0.261409c0.000931056,0.00624332 0.00211874,0.0124457 0.00356003,0.0185913v0.12l0.36,-0.08v0.1l-0.82,0.32l-1.45,0.34h-0.76c-0.11,0.11 0.61,0 0.33,0.06l-1,0.22c-0.58,0.13 -0.89,0.08 -1,-0.15h-0.11l-7.41255e-09,-3.25225e-08c0.0180029,0.0789872 0.0180029,0.161013 1.48251e-08,0.24l-0.06,-0.23l-0.76,0.18c-0.0533333,-0.353333 -1.08333,-1.64 -3.09,-3.86c0,-0.43 0.67,-1.05 2.12,-1.86l4.16999,-3.52999c0.913333,-1.17333 1.45667,-3.05667 1.63,-5.65l-0.06,-0.61c-0.16,-1.83 -1.48,-3.3 -4,-4.44c-1.47,-1 -4.12,-1.53 -7.94,-1.61l-4.05945e-06,5.38269e-07c-4.2525,0.563868 -8.4098,1.69737 -12.36,3.37l-4.18567e-07,2.98854e-07c-1.53232,1.09407 -3.12849,2.09584 -4.78,3v0.32l1.36235e-07,-2.3234e-08c0.171477,-0.0292444 0.334963,-0.0939576 0.48,-0.19l-1.62845e-08,4.37146e-09c0.144018,-0.0386605 0.292108,0.0467486 0.330769,0.190767c0.00606163,0.0225807 0.00916462,0.0458532 0.00923111,0.0692333l0.32,-0.18h0.16v0.15l-1.19286e-07,1.16887e-07c-1.011,0.990671 -2.13156,1.86296 -3.34,2.6l0.18,0.28h-0.139996l-0.34,-0.12c0,0.09 -0.15,0.16 -0.48,0.19v0.17l0.37,0.41l-7.69797e-08,-6.78654e-10c-0.171481,-0.0015118 -0.341129,-0.0354414 -0.5,-0.1l-2.75205e-07,5.71184e-08c-0.904917,0.187815 -1.68281,0.761192 -2.13,1.57l0.18,0.28l-1.59712e-08,1.70588e-08c0.311723,-0.33295 0.672567,-0.61623 1.07,-0.840002v0.46l-6.33509e-08,1.33303e-08c-0.169607,0.0356886 -0.331917,0.0999363 -0.48,0.19l0.38,0.58l-1.10085e-06,1.16465e-06c0.723445,-0.765374 1.53978,-1.43726 2.43,-2c0.44,0.11 0.67,0.25 0.68,0.4h0.34l-6.38924e-07,4.88075e-07c2.16325,-1.65251 4.5726,-2.95505 7.14,-3.86v0.32c-0.44,0.666667 -0.736667,1 -0.89,1l-5.20519e-08,-1.04981e-06c0.0107289,0.216389 0.0914439,0.423441 0.229999,0.59c0.04,0.4 -1.03,3.1 -3.21,8.1c-4.85333,11.5667 -8.97333,20.13 -12.36,25.69l-2.94627e-08,-1.54681e-07c0.0311234,0.1634 0.0995691,0.317403 0.2,0.45l9.66424e-08,-1.58064e-08c0.558632,-0.0913675 1.09281,-0.295514 1.57,-0.6h0.18v0.32h0.31l0.32,-0.18c0,0.09 0.11,0.14 0.33,0.12v0.32l-5.82076e-08,7.20887e-07c-0.0413201,0.511739 -0.221071,1.0026 -0.52,1.42l-3.52827e-07,5.13117e-07c-0.50108,0.728722 -0.866911,1.54168 -1.08,2.4v0.15h0.31l4.81551e-07,-5.22832e-07c1.21791,-1.32232 2.24761,-2.8063 3.06,-4.41l4.75826e-09,-1.26934e-09c3.10384,-0.828006 6.11843,-1.96015 9,-3.38l3.9793e-07,-1.10925e-08c1.70918,-0.0476444 3.36301,-0.616364 4.74,-1.63v-0.17l-0.78,0.23h-0.18v-0.17l-1.2775e-07,8.73625e-09c1.12112,-0.0766685 2.20782,-0.419476 3.17,-1c2.97333,-2.29333 5.22,-3.91667 6.74,-4.87c3.12,-2.29333 5.14667,-4.52667 6.08,-6.7l0.52,-0.12l1.25044e-07,6.89614e-09c0.24981,0.013777 0.50019,0.013777 0.75,-1.37923e-08c0,-0.08 0,-0.13 0.1,-0.15c0.7,-0.07 0.36,0 0.81,-0.06l1.14,-0.440001h0.2l-0.09,0.06l-4.39788e-08,-8.44581e-09c0.142036,0.0272769 0.287964,0.0272769 0.43,1.68916e-08l0.08,0.34l-5.31,8.45l-1.18,1.48l-0.58,1.94h0.11l0.58,-0.24l-0.19,0.75l0.06,0.22l0.16,0.2c-0.07,0 -0.1,0.07 -0.08,0.15v0.12l0.24,-0.06c0.353333,-0.306667 0.503333,-0.586667 0.45,-0.84l-1.97047e-07,-5.07621e-08c0.247945,0.063874 0.505104,0.0841761 0.76,0.0600001v0.12c-0.23,0.06 -0.35,0.24 -0.37,0.56v0.12h0.13c1.94,-2.12 6.69,-9.35 10.5,-14.27c-0.12,-0.533333 1.88,-1.27333 6,-2.22h0.13c0.146667,0.666667 -0.186667,2.22333 -1,4.67l-5.13238e-08,1.34657e-07c-0.294756,0.773346 -0.512477,1.57389 -0.65,2.39l-4.32473e-07,1.12163e-06c-0.402401,1.04364 -0.710303,2.1213 -0.919999,3.21999l-1.46,4.78l-1.94401e-06,5.08128e-06c-0.955712,2.49806 -1.67878,5.07901 -2.16,7.71l-8.19325e-08,1.67244e-08c0.131973,-0.0269388 0.268027,-0.0269388 0.4,-3.34488e-08l0.21,-0.18l-2.68147e-09,-1.41314e-08c0.0123552,0.0651123 0.0751551,0.10788 0.140267,0.0955251c0.00672303,-0.00127571 0.0133246,-0.00312416 0.0197326,-0.00552512l-0.08,-0.34h0.63c0.19,0 0.34,-0.28 0.48,-0.71c0,-0.64 0.1,-1 0.39,-1.06l-2.75755e-07,1.49326e-06c0.147558,-0.799049 0.389241,-1.57781 0.72,-2.32l-3.55775e-07,2.0814e-06c0.153619,-0.898725 0.426004,-1.77305 0.809999,-2.6c0.55,-2 1,-3 1.21,-3.06l0.06,0.24l-0.4,1l1.32308e-06,-6.38391e-06c-0.519513,2.50667 -1.2282,4.97038 -2.11999,7.36997l0.21,0.89h0.13c1.73333,-3.72667 4.22667,-11.1067 7.48,-22.14l-9.76755e-08,1.24757e-06c0.0728466,-0.930445 0.59054,-1.76844 1.39,-2.25l-0.19,-0.2v-0.1l4.10012e-08,-6.33449e-09c0.304802,-0.0470903 0.582052,-0.203488 0.78,-0.44c0,-0.08 -0.34,-0.21 -1,-0.37l1.62,-7l-8.17415e-08,8.7992e-08c0.179078,-0.192772 0.388516,-0.354917 0.62,-0.48v0.35l-3.3362e-08,6.4104e-09c-0.130655,0.0251051 -0.253813,0.0798416 -0.36,0.16l0.319992,0.440024l-5.14995e-07,5.63033e-07c0.544444,-0.595228 1.15891,-1.12239 1.83,-1.57c0.34,0.09 0.5,0.21 0.52,0.32h0.24l-4.64537e-07,3.5175e-07c1.64118,-1.24271 3.46655,-2.22119 5.41,-2.9v0.23c-0.326667,0.493333 -0.55,0.743333 -0.67,0.75l-4.40478e-08,-5.34016e-07c0.0131858,0.159859 0.0646329,0.314201 0.15,0.45l-6.43676e-08,2.11821e-07c-0.642043,2.11284 -1.44782,4.17241 -2.41,6.16l2.29807e-06,-5.69524e-06c-2.71024,6.71669 -5.85351,13.2504 -9.41,19.56l-3.93977e-08,-1.58652e-07c0.0309116,0.124479 0.0889638,0.240583 0.17,0.34l3.35259e-07,-5.53092e-08c0.41811,-0.0689774 0.816863,-0.225751 1.17,-0.459995h0.11v0.23h0.26l0.23,-0.12c0,0.0666667 0.0833333,0.0933333 0.25,0.08v0.25l5.09098e-08,-5.61987e-07c-0.0347026,0.383078 -0.172974,0.749497 -0.4,1.06l-6.00925e-08,8.2902e-08c-0.396545,0.547063 -0.685039,1.16478 -0.85,1.82v0.12h0.24l8.44729e-07,-9.16703e-07c0.924903,-1.00371 1.70572,-2.13117 2.32,-3.35l1.49341e-06,-4.08312e-07c2.35957,-0.64513 4.65046,-1.51928 6.84,-2.61l-3.44637e-07,8.94133e-09c1.305,-0.0338572 2.56832,-0.466598 3.62,-1.24v-0.12l-0.61,0.18h-0.110001v-0.12l2.18748e-07,-1.60225e-08c0.849832,-0.0622471 1.67258,-0.326211 2.4,-0.77c2.25,-1.73 4,-3 5.12,-3.7c3.58,-2.59 5.26,-5.13 5.06,-7.59Zm-0.62,0.16l0.08,0.94c-0.11,0.23 -0.23,0.35 -0.34,0.36l-0.14,-1.6c0.26,0.09 0.39,0.19 0.4,0.3Zm-70.55,-7.54h-0.16v-0.29l0.64,-0.06v0.15l-4.55934e-08,8.21669e-09c-0.168079,0.0302906 -0.32809,0.0949756 -0.47,0.19Zm-3.14,31.38l1.0593e-07,5.31851e-08c-0.309527,-0.155407 -0.654106,-0.227768 -1,-0.21v-0.46c0,-0.18 0.08,-0.3 0.31,-0.34c0.23,-0.04 0.33,0.13 0.34,0.43l-3.41667e-07,4.70206e-07c0.262952,-0.361877 0.561071,-0.696843 0.89,-1l0.34,0.14c-0.11,0.93 -0.4,1.41 -0.86,1.44Zm33.55,-35.1c-0.16,0 -0.48,-0.48 -0.93,-1.45v-0.29c0.3,0 0.61,0.46 0.93,1.45v0.29Zm-0.45,-3.48l-0.13,0.31l-4.56,-1.9c3.04,0.1 4.60333,0.63 4.69,1.59Zm-19.27,16.58l-0.64,0.06v-0.29l0.64,-0.06v0.29Zm-0.52,-9.92h0.16v0.46c-0.15,0 -0.34,0.23 -0.59,0.66v-0.32c0.29,-0.34 0.44,-0.61 0.42,-0.79Zm-1.35,3.19l0.06,0.61h-0.16l-0.03,-0.63Zm-0.71,1.14h0.31c0,0.5 -0.17,0.77 -0.42,0.79h-0.16l3.97441e-09,-5.56165e-09c0.161352,-0.22579 0.25501,-0.492889 0.27,-0.77Zm-0.5,1.59h0.18v0.15l-0.29,0.48h-0.31v-0.15l-1.1294e-08,-8.64461e-10c0.22027,0.01686 0.412501,-0.148036 0.429361,-0.368306c0.00312331,-0.0408048 -3.38053e-05,-0.0818473 -0.0093611,-0.121694Zm-0.52,1.43l-0.09,0.76h-0.16l-0.07,-0.75h0.32Zm-5.23,14.82c-0.21,1 -0.43,1.57 -0.66,1.59v-0.15l2.95773e-08,4.91792e-07c-0.0338165,-0.562277 0.218102,-1.10371 0.67,-1.44Zm-1,2.08v0.15l6.08298e-09,2.24202e-08c0.0390462,0.143914 -0.045966,0.292233 -0.18988,0.331279c-0.0293349,0.00795904 -0.0598032,0.0109076 -0.09012,0.00872128v-0.15c0,-0.18 0.0933333,-0.293333 0.28,-0.34Zm-0.28,4.31h0.48v0.17l-9.70675e-08,1.65542e-08c-0.171477,0.0292444 -0.334963,0.0939576 -0.48,0.19h-0.31c0,-0.16 0.08,-0.28 0.28,-0.34Zm13.79,-4.26l2.07227e-06,-8.97944e-07c-1.69389,0.733989 -3.30328,1.64933 -4.8,2.73c-2.91333,1.02667 -4.35667,1.65667 -4.33,1.89l4.60446e-06,-1.73106e-06c-1.76706,0.664333 -3.4934,1.43233 -5.17,2.3l2.83966e-08,4.258e-10c-0.29683,-0.00445088 -0.588283,-0.0798857 -0.85,-0.22l-4.30102e-08,-6.02487e-07c-0.0381888,-0.534951 0.23928,-1.04299 0.710001,-1.3l-1.16247e-08,9.03185e-10c0.448082,-0.0348138 0.897868,0.0407238 1.30999,0.220002l9.51567e-08,-4.265e-08c0.812133,-0.364004 1.66007,-0.64218 2.53,-0.83v-0.32l-1,0.08l1.11364e-06,-6.90826e-07c0.878672,-0.545069 1.81848,-0.984764 2.8,-1.31h0.48v0.15c-0.83,0.07 -1.29,0.32 -1.39,0.75c0,0.2 0.13,0.28 0.34,0.26c0.62,-0.39 0.93,-0.62 0.92,-0.69c1.18,-0.226667 4.45,-1.93667 9.81,-5.13v0.29c0,0.14 -0.45,0.53 -1.37,1.2Zm-8.22,2.7l2.09611e-07,-1.67907e-08c0.756498,-0.0605984 1.46615,-0.390587 2,-0.93c0.22,0 0.34,0.07 0.35,0.26l-2.84698e-07,7.56322e-08c-0.781145,0.207517 -1.52158,0.545615 -2.19,1h-0.16v-0.31Zm13.31,-10.18l-4.11,3.26l9.3162e-07,-6.60682e-07c-1.57345,1.11585 -3.22428,2.11838 -4.93998,2.99999c-4.86667,2.66667 -7.89,4.05667 -9.07,4.17h-0.18c0.146667,-0.546667 2.31333,-4.98333 6.5,-13.31l7.62872e-07,-1.22777e-07c3.00191,-0.483128 5.92925,-1.35024 8.71,-2.58l1,-0.08l-4.57182e-07,8.16541e-08c1.59256,-0.284437 3.23025,0.135016 4.49,1.15l0.06,0.61c-0.74,2.13 -1.56,3.38 -2.44,3.75Zm-8,-4.52l0.66,-0.06v0.15l-0.66,0.06v-0.15Zm9.23,-1.57h0.48c0.45,0.21 0.68,0.4 0.7,0.57v0.15l-6.9195e-08,-1.02171e-09c-0.495071,-0.00731005 -0.947054,-0.283096 -1.18,-0.72Zm1.31,-7.48l3.33884e-07,-3.14548e-07c-1.06821,1.00635 -2.24942,1.88554 -3.52,2.62c-0.63,0.06 -3,1 -7.07,2.76l-2.91297e-08,-1.32197e-08c-0.203483,-0.0923449 -0.427463,-0.130249 -0.65,-0.11v-0.29l-6.56425e-08,2.38703e-06c0.0221339,-0.804887 0.298698,-1.58207 0.789999,-2.22c0.32,-1.68 0.66,-2.64 1,-2.87l3.4,-7.65c-0.04,-0.473333 0.686667,-0.836667 2.18,-1.09h0.48v0.44c1.46,-0.22 2.38,-0.35 2.73,-0.38c2.7,-0.23 4.11,0.32 4.22,1.63h0.31l-0.07,-0.77h0.34l-6.19873e-09,-2.55329e-09c0.670528,0.276193 1.15336,0.87596 1.28,1.59l4.7996e-08,-9.14154e-07c-0.031278,0.595739 -0.27625,1.16024 -0.689999,1.59c-0.21,0 -0.33,-0.13 -0.34,-0.43h-0.34l-0.07,0.93c-1.36667,2.04667 -2.36667,3.1 -3,3.16c-0.56,0.77 -0.9,1.16 -1,1.16Zm2.09,5.36l4.49278e-08,3.59088e-08c-0.191527,-0.153079 -0.425349,-0.243816 -0.67,-0.26v-0.46h0.31l0.68,0.4l6.08297e-09,2.24202e-08c0.0390462,0.143914 -0.045966,0.292233 -0.18988,0.331279c-0.0293349,0.00795904 -0.0598032,0.0109076 -0.09012,0.00872128Zm2.16,2.56c0.3,0.12 0.48,0.25 0.51,0.37h-0.15v0h-0.09l-0.22,0.18l-0.06,-0.62Zm0.2,1.29v-0.12l0.39,-0.09v0.12l-0.39,0.09Zm0.94,1.05c0.4,-0.07 0.6,-0.09 1.34,-0.26v0.12l-1.42,0.33l-2.36829e-08,4.65576e-07c0.00321956,-0.0632924 0.00321958,-0.126708 4.73657e-08,-0.19Zm1.38,0.59l1.74267e-07,-3.71747e-09c-0.479581,0.0102304 -0.956251,0.077367 -1.42,0.2v-0.12l1.19,-0.38l0.57,-0.13l0.06,0.22c-0.26,0.06 -0.07,0.06 -0.37,0.21Zm1.26,-0.3l-5.31222e-09,1.42336e-09c-0.138701,0.0371639 -0.281268,-0.0451486 -0.318432,-0.18385c-0.000547548,-0.00204354 -0.00107013,-0.00409368 -0.00156764,-0.00614997l0.36,-0.08l3.38692e-09,-1.33154e-09c0.113078,-0.044456 0.240784,0.0111729 0.28524,0.124251c0.00826726,0.0210285 0.0132457,0.0432051 0.0147601,0.0657495l-0.34,0.08Zm3.41,-3.67v-0.12l0.59,-0.14l0.06,0.22h-0.62Zm3.64,22.34l3.12956e-08,-1.52453e-07c0.0250566,-0.122061 0.0250566,-0.247939 -1.11386e-08,-0.37h0.13l2.36639e-09,-9.94063e-10c0.106928,-0.0449182 0.230024,0.00535101 0.274942,0.112279c0.00774021,0.0184257 0.0128105,0.0378619 0.0150576,0.0577206v0.12l-0.48,0.11Zm2.61,-21.39h-0.26l1.08689e-07,-4.52653e-08c-0.34399,0.14326 -0.698335,0.260261 -1.06,0.349999l-0.24,0.06l6.02245e-09,-2.03851e-09c-0.125551,0.0424972 -0.261781,-0.0248312 -0.304278,-0.150382c-0.00218494,-0.00645506 -0.00409396,-0.0130003 -0.00572186,-0.0196178l1.68,-0.399999l0.56,-0.26l0.19,0.21l-4.99426e-08,6.964e-09c-0.2106,0.029366 -0.410227,0.11197 -0.58,0.24Zm1.31,-0.42v-0.12l3.39472e-09,-1.07932e-09c0.123879,-0.0393866 0.234568,-0.112026 0.32,-0.21l1.21,-0.28v0.12l-1.06232e-06,2.3559e-07c-0.522792,0.115939 -1.03467,0.276528 -1.53,0.48Zm0.19,-2.45l2.14039e-08,-7.86467e-09c-0.126308,0.0464109 -0.24195,0.117837 -0.34,0.21c0,-0.08 -0.19,-0.08 -0.5,0c-0.06,-0.23 0.84,-0.56 2.69,-1l0.26,-0.06l0.06,0.22c-1.3,0.38 -2,0.6 -2.17,0.62Zm3.26,-3.52c-0.13,1.48 -0.65,2.32 -1.57,2.53v-0.12l-0.82,0.32l-0.36,0.08l-3.03252e-08,8.66449e-09c-0.163397,0.0466857 -0.336603,0.0466857 -0.5,-1.7329e-08l-0.07,-0.33l1.05053e-06,-1.65415e-06c1.08482,-1.70815 2.27373,-3.34791 3.56,-4.91h0.28l1.43117e-07,3.27955e-06c0.035949,0.823786 -0.128775,1.64397 -0.480001,2.39Zm5.77,-4.94h-0.11v-0.23h0.48v0.12l-3.29024e-08,9.11542e-09c-0.125768,0.0348432 -0.246701,0.0852319 -0.36,0.15Zm-2.4,23.86l1.05452e-07,5.54256e-08c-0.230818,-0.121317 -0.489431,-0.179937 -0.75,-0.17v-0.35c0,-0.12 0.0733333,-0.203333 0.22,-0.25c0.16,0 0.25,0.09 0.27,0.34l-1.13585e-07,1.6929e-07c0.190305,-0.283636 0.415391,-0.542317 0.67,-0.77l0.25,0.1c-0.09,0.71 -0.31,1.08 -0.64,1.11Zm25.47,-26.69c-0.12,0 -0.35,-0.36 -0.72,-1.12v-0.23c0.23,0 0.48,0.34 0.72,1.09v0.26Zm-0.34,-2.66l-0.11,0.24l-3.45,-1.44c2.3,0.07 3.49,0.48 3.56,1.2Zm-14.61,12.59h-0.48v-0.23h0.48v0.23Zm-0.4,-7.54h0.13v0.35c-0.12,0 -0.27,0.166667 -0.45,0.5v-0.23l7.95629e-09,-7.87796e-09c0.168651,-0.16699 0.277598,-0.384885 0.31,-0.62Zm-1,2.42v0.46h-0.13v-0.46Zm-0.55,0.87h0.24c0,0.393333 -0.103333,0.596667 -0.31,0.61h-0.13l-3.04849e-08,4.71026e-08c0.118215,-0.182655 0.187118,-0.392809 0.2,-0.61Zm-0.39,1.19h0.11v0.13l-0.21,0.37h-0.24v-0.12c0.25,0 0.36,-0.15 0.34,-0.38Zm-0.41,1.13l-0.08,0.6h-0.12v-0.59h0.24Zm-4,11.3c-0.16,0.78 -0.326667,1.18 -0.5,1.2v-0.1l-3.1791e-08,-8.11509e-07c-0.0167409,-0.427337 0.173034,-0.836655 0.510001,-1.1Zm-0.74,1.57v0.1l8.867e-10,2.92816e-09c0.0336134,0.111002 -0.0291225,0.228236 -0.140124,0.261849c-0.0258532,0.0078288 -0.0529739,0.0105962 -0.0798755,0.00815056v-0.12c0,-0.12 0.0733333,-0.203333 0.22,-0.25Zm-0.16,3.24h0.37v0.12l8.75744e-10,-1.67873e-10c-0.127499,0.0244412 -0.249487,0.0718807 -0.36,0.14h-0.24c0,-0.133333 0.0733333,-0.216667 0.22,-0.25Zm10.46,-3.23l7.14391e-08,-3.16734e-08c-1.28014,0.567567 -2.50248,1.25744 -3.65,2.06c-2.24,0.78 -3.34,1.27 -3.33,1.46l1.24232e-06,-4.60543e-07c-1.33343,0.494317 -2.63579,1.06869 -3.89998,1.71999l2.27618e-08,9.76144e-10c-0.224395,-0.00962307 -0.443487,-0.0712426 -0.64,-0.18l1.15645e-09,1.05446e-08c-0.0453127,-0.413164 0.169671,-0.811282 0.54,-1l-3.9209e-08,3.70673e-09c0.340575,-0.0321973 0.68386,0.0192954 1,0.15l6.44496e-07,-2.75957e-07c0.622534,-0.266554 1.2687,-0.474129 1.93,-0.62v-0.23l-0.75,0.07l-5.77422e-07,3.58421e-07c0.671321,-0.416708 1.38966,-0.752382 2.14,-1h0.37v0.1c-0.63,0.06 -1,0.24 -1.06,0.58l-6.44021e-09,2.23061e-07c-0.0033471,0.115931 0.0879206,0.212626 0.203852,0.215973c0.0188996,0.000545658 0.0377863,-0.00146359 0.0561482,-0.00597327c0.47,-0.31 0.69,-0.48 0.69,-0.54c0.893333,-0.16 3.37333,-1.46 7.44,-3.9v0.23c0,0.09 -0.34,0.39 -1,0.9Zm-6.24,2l1.22368e-07,-9.45589e-09c0.582596,-0.0450198 1.13102,-0.292694 1.55,-0.7c0.16,0 0.25,0.06 0.26,0.21l2.40817e-08,-6.17675e-09c-0.58638,0.150401 -1.14622,0.389852 -1.66,0.709999h-0.13v-0.22Zm10.08,-7.74l-3.1,2.5l1.04596e-07,-7.64265e-08c-1.20329,0.879223 -2.47009,1.66805 -3.79,2.36c-3.68667,2 -5.98333,3.05333 -6.89,3.16h-0.13c0.113333,-0.42 1.76333,-3.78667 4.95,-10.1l1.3001e-06,-2.18898e-07c2.27921,-0.38375 4.50036,-1.05581 6.60999,-2l0.750004,-0.060002l-4.68678e-07,8.31864e-08c1.20894,-0.214577 2.45124,0.110613 3.4,0.889999v0.46c-0.529999,1.65 -1.1,2.55 -1.82,2.83Zm-6.09,-3.43h0.48v0.12h-0.48v-0.12Zm7.05,-1.2h0.37c0.34,0.17 0.52,0.32 0.53,0.44v0.1l1.00268e-08,-3.80041e-10c-0.374998,0.0142131 -0.726388,-0.18272 -0.91,-0.51Zm1,-5.67l-3.6435e-07,3.4745e-07c-0.805567,0.768201 -1.69831,1.43944 -2.66,2l3.36276e-07,-1.03605e-07c-1.85581,0.571767 -3.66181,1.29417 -5.39999,2.16l-2.4463e-08,-8.77721e-09c-0.156902,-0.056296 -0.323611,-0.0801114 -0.49,-0.07v-0.23l-9.12931e-08,1.35949e-05c0.0041037,-0.611313 0.199968,-1.20592 0.55998,-1.7c0.24,-1.29 0.51,-2 0.79,-2.17l2.61001,-5.83001c0,-0.34 0.52,-0.62 1.64,-0.84h0.37v0.35c1.1,-0.18 1.79,-0.283333 2.07,-0.31c2,-0.18 3.12,0.23 3.21,1.24h0.24v-0.56h0.24l1.69297e-08,6.09165e-09c0.519792,0.187031 0.900758,0.636571 1,1.18l6.68805e-08,-1.94564e-06c-0.0155192,0.45148 -0.188919,0.883212 -0.489999,1.22c-0.16,0 -0.25,-0.09 -0.27,-0.34h-0.24l-0.07,0.7c-1.12,1.52 -1.87,2.36 -2.37,2.36c-0.42,0.57 -0.68,0.86 -0.8,0.87Zm1.09,3.88v-0.35h0.24l0.52,0.32l5.02676e-09,3.65067e-08c0.0165738,0.120367 -0.0675671,0.231379 -0.187934,0.247953c-0.0106245,0.00146293 -0.0213417,0.00214701 -0.032066,0.00204676l1.2462e-08,9.49691e-09c-0.148069,-0.112839 -0.324698,-0.182105 -0.51,-0.2Zm-43.41,22.67l-0.24,0.06l-0.21,0.18l-9.87924e-10,-8.73096e-09c0.0130399,0.115244 0.117035,0.198098 0.232279,0.185058c0.0198587,-0.00224702 0.039295,-0.00731734 0.0577206,-0.0150576c0.16,0 0.22,-0.13 0.19,-0.28v-0.12Zm-0.94,-1.84v0.12c0.16,0 0.22,-0.13 0.19,-0.28v-0.12l2.20615e-09,-2.15238e-10c-0.120928,0.0117983 -0.209396,0.119395 -0.197598,0.240323c0.00131035,0.0134307 0.00385365,0.0267123 0.00759773,0.039677Zm6.6,-12.39l0.18,-0.11h-0.09l5.41547e-10,-1.39636e-10c-0.0572859,0.0147705 -0.0926298,0.0722044 -0.08,0.13Zm0,-3.21l0.28,-0.07l-0.06,-0.24l-0.28,0.07l0.06,0.24Zm65.85,9.41l-0.63,-0.07l-0.11,0.24v0.12l3.77,-0.32v-0.23l-3,0.26Zm3.45,-0.29v0.23v0v-0.23Zm15.8,-2.07v0.23l0.41,0.07v-0.23l-0.41,-0.07Zm-0.58,0l-5.51331e-07,1.53509e-07c-1.23212,0.343064 -2.5015,0.534479 -3.78,0.57v0.23h0.26h0.14v0l0.31,-0.12c2.8,-0.31 3.13,-0.2 3.1,-0.51v-0.17Zm-17,-4.12l-0.25,-0.08l-2.97483e-07,6.73244e-07c-0.141202,0.319558 -0.24198,0.655486 -0.3,0.999999v0.1c0.2,0 0.37,-0.34 0.54,-1Zm-3.41,-1.84v-0.04h-0.13l-0.23,0.15l0.13,0.22c0.18,0 0.26,-0.1 0.24,-0.26Zm7.41,7.66v-0.23h-0.12v0.23Zm15.37,-3.47h0.18c0.1,0 0.15,-0.09 0.14,-0.24l-0.1,-0.22l-3.62807e-09,-2.01084e-11c-0.510212,-0.00282683 -1.01271,0.12452 -1.46,0.37v-0.12l-0.77,0.07c0,-0.23 -0.08,-0.35 -0.19,-0.34h-0.4c-0.47,0 -0.69,0 -0.92,0.2c0,-0.08 0,-0.12 -0.08,-0.12h-0.45l-0.26,0.15c0,-0.08 0,-0.12 -0.08,-0.12l-0.16,0.14v1.52973e-07h-0.62h-0.15v0.23l0.32,0.08h0.3l-1.93508e-09,-1.13451e-09c0.10254,0.0601175 0.222051,0.0847227 0.34,0.07l0.26,-0.13v0.1l7.52709e-07,-1.95779e-07c-0.808822,0.210373 -1.63059,0.367378 -2.46,0.47l1.75432e-08,1.4745e-08c-0.0704789,-0.0592375 -0.15811,-0.0942899 -0.25,-0.1v0l6.20153e-09,3.02308e-10c-0.110326,-0.00537805 -0.195403,-0.0991747 -0.190025,-0.209501c8.11486e-06,-0.000166469 1.64378e-05,-0.000332928 2.49688e-05,-0.000499377l0.52,-0.07l-1.3472e-07,-4.29116e-08c0.114872,0.0365895 0.231725,0.0666376 0.349998,0.0899997c0.42,-0.21 0.44,-0.29 0.66,-0.31v-0.23l5.4256e-07,-9.97202e-08c-0.877601,0.161299 -1.76771,0.244956 -2.65999,0.25h-0.08v-0.23c2.31,-0.28 1.54,-0.12 2.33,-0.34c0,0.08 0,0.12 0.08,0.12l-5.57861e-10,5.75881e-10c0.0853868,-0.0881459 0.198251,-0.144578 0.32,-0.16h0.16l-3.4911e-07,-1.06731e-08c0.906317,0.0277081 1.81119,-0.0904661 2.68,-0.349999v0.1l0.26,-0.13h0.24c0,-0.23 0.34,-0.27 0.46,-0.28v-0.25c-2.81,0.57 -3.55,0.41 -4.33,0.63v-0.1l2.27402e-07,-5.26361e-08c-0.327566,0.075821 -0.664545,0.102779 -0.999999,0.0800001l1.91906e-08,-5.80845e-09c-0.0893958,0.0270575 -0.169196,0.0791012 -0.23,0.15c0,-0.08 0,-0.12 -0.09,-0.12v0l-2.39,0.39c0,-0.07 0,-0.1 -0.09,-0.09l1.36685e-07,-4.00239e-08c-0.834451,0.244343 -1.69268,0.398557 -2.56,0.46l-1.66036e-08,3.01951e-09c-0.111554,0.020287 -0.217343,0.0646504 -0.31,0.13c0,-0.07 0,-0.1 -0.13,-0.09l-1,0.08l-0.68,0.17c0,-0.07 0,-0.1 -0.13,-0.09l-3.25573e-07,9.43168e-08c-0.326621,0.0946205 -0.661436,0.158235 -1,0.19v0c-0.17,0 0.08,0 0,-0.1l-0.21,0.12c-0.3,0 -0.14,0 -1.16,0c-1.8,0.22 -1.6,0.25 -1.8,0.26h-0.67l2.35994e-09,9.90185e-09c0.0115237,0.0483513 -0.0183309,0.0968897 -0.0666823,0.108413c-0.01091,0.00260023 -0.02221,0.00313832 -0.0333177,0.00158655c-0.76,-0.1 -1.16,-0.22 -1.16,-0.36c0.1,-0.726667 0.276667,-1.1 0.53,-1.12h0.13l-0.11,0.24h0.13c0.24,-0.13 0.35,-0.25 0.34,-0.36v-0.25h-0.24v-0.23l-6.85996e-09,-4.90653e-08c-0.0223894,-0.160139 0.0019166,-0.323336 0.07,-0.47l0.55,-0.89v0.23h0.26v-0.23l-0.15,-0.21l-9.43818e-08,9.63821e-08c0.128822,-0.131553 0.291464,-0.224985 0.47,-0.27v-0.12h-0.35v-0.35l2.9787e-07,-5.33265e-07c0.450422,-0.806374 0.786954,-1.67126 1,-2.57l0.25,0.1c0.16,0 0.23,-0.1 0.22,-0.27h-0.24v-0.1l-1.81686e-08,-1.77459e-07c-0.0172585,-0.168571 0.0139649,-0.338565 0.0900001,-0.49l-7.92335e-08,7.07439e-08c0.346169,-0.309078 0.536759,-0.756231 0.52,-1.22c0.07,0 0.11,0 0.12,0.11c0.33,-0.19 0.58,-0.68 0.76,-1.5l-6.69085e-08,1.3918e-07c0.971823,-2.02155 1.79728,-4.11025 2.47,-6.25c2.05,-5.52 2,-6.1 2.25,-7.41h-0.24l2.84846e-08,2.58848e-07c0.0181993,0.165382 -0.0131248,0.332444 -0.0900001,0.48l-5.86844e-08,-2.67922e-08c-0.122607,-0.0559755 -0.255263,-0.0865886 -0.39,-0.09v-0.1l-1.43919e-08,8.93073e-07c0.0100158,-0.621524 0.224385,-1.22246 0.609999,-1.71h0.11l0.21,0.8h0.24l-2.23268e-07,1.88353e-06c0.0399882,-0.337347 0.103475,-0.671492 0.189999,-0.999997c0,-0.12 -0.1,-0.2 -0.29,-0.21l-0.23,0.15c0,-0.17 0,-0.61 0,-1.3h-0.12l-8.67567e-08,-6.91965e-08c-0.161444,-0.128767 -0.27429,-0.308616 -0.32,-0.51l-1.33,0.13l3.0572e-08,1.77213e-07c-0.0249412,-0.144574 -0.0757546,-0.283464 -0.15,-0.41c0,-0.12 0.29,-0.24 0.9,-0.36l0.27,0.1l0.25,-0.15c0,0.08 0.06,0.12 0.15,0.11l0.25,-0.15c0,0.08 0.06,0.12 0.15,0.11h0.12v-0.27c-0.19,0 -0.68,0 -1.46,0l-0.25,0.17v-0.15c-6.25333,0.513333 -9.80333,0.81 -10.65,0.89c-0.11,0 -0.55,0 -1.32,0c0,0.1 -0.08,0.16 -0.27,0.18l-0.27,-0.12l-0.91,0.23l8.50013e-08,-7.60463e-09c-0.359283,0.0321431 -0.720717,0.0321432 -1.08,1.52092e-08l2.62534e-08,-2.09143e-08c-0.146064,0.116359 -0.323776,0.18605 -0.51,0.2l2.67,-0.17l-4.21559e-08,2.8608e-08c-0.19225,0.130465 -0.417757,0.203322 -0.65,0.21l-1.48729e-08,2.02135e-09c-0.18171,0.024696 -0.366628,-0.00670523 -0.53,-0.09l-5.9555e-07,1.83357e-07c-0.655262,0.201741 -1.32346,0.358768 -1.99999,0.469999l-0.27,-0.1l-4.36,0.67l3.89348e-09,1.77945e-09c-0.184463,-0.0843063 -0.38879,-0.115475 -0.59,-0.09l-3.28418e-07,4.30129e-08c-0.392855,0.0514522 -0.780824,0.135066 -1.16,0.249999l-2.11,0.88l0.16,0.26l1.19527e-07,-2.14516e-08c0.153215,-0.0274977 0.299403,-0.0852928 0.43,-0.17l0.75,0.07l-0.09,0.7l-1.53263e-07,2.78997e-08c-0.647181,0.117812 -1.18571,0.56532 -1.42001,1.18c-1,0.46 -1.55,0.78 -1.55,1v0.12h0.16l0.28,-0.15l0.33,0.39v0.54c0,0.166667 -1.73667,3.83333 -5.21,11c-3,6.9 -4.6,10.67 -4.75,11.35c-1,0.29 -1.63,0.71 -1.81,1.27c0,0.18 0.33,0.3 0.92,0.34v0.27l-0.27,0.45v0.54c0,0.28 0.753333,0.493333 2.26,0.64c0,-0.09 0,-0.15 0.14,-0.16l-4.48435e-08,2.98259e-06c-0.0101592,0.675688 -0.104213,1.3475 -0.28,2h0.16l9.68121e-08,-1.03087e-07c0.451925,-0.481218 0.757202,-1.08136 0.88,-1.73h0.13c0.15,0 0.31,0.16 0.49,0.52c-0.186667,0.0733333 -0.853333,1.55667 -2,4.45l0.16,0.26h0.16c1.36667,-3.46667 2.22667,-5.38333 2.58,-5.75c1.8,-0.16 4.91,-0.493333 9.33,-1l0.28,-0.17l-3.44924e-09,7.04503e-08c-0.00351097,0.0717111 0.0517762,0.132691 0.123487,0.136202c0.0157521,0.00077122 0.031513,-0.00133025 0.0465128,-0.00620173h0.29l0.28,-0.17l-3.44926e-09,7.04503e-08c-0.00351097,0.0717111 0.0517762,0.132691 0.123487,0.136202c0.0157521,0.00077122 0.031513,-0.00133025 0.0465128,-0.00620173l3.46,-0.400001c0.89,-0.07 1.3,-0.34 1.27,-0.8c0,-0.12 0.51,-0.26 1.57,-0.41l5.42958e-08,-6.09248e-10c0.156941,-0.00176101 0.312868,0.0253567 0.46,0.08c0,-0.08 0.52,-0.17 1.58,-0.26c0,-0.56 0.2,-0.86 0.52,-0.89v-0.27l-3.30715e-07,3.82107e-08c-0.340825,0.0393788 -0.676218,0.116519 -1,0.23l3.19484e-07,4.00149e-09c-0.447779,-0.00560836 -0.893665,-0.0592486 -1.33,-0.16l5.45768e-09,-3.46422e-09c-0.131298,0.0833405 -0.277208,0.141026 -0.43,0.17l-2.33,0.07l-0.28,0.15c0,-0.0866667 -0.0566667,-0.123333 -0.17,-0.11h-0.13l-0.3,0.15c0,-0.08 -0.25,-0.15 -0.74,-0.21l-0.3,0.18h-0.58v-0.0900006c3,-0.326667 4.48,-0.733333 4.44,-1.22l-1.776e-08,4.25419e-09c0.139644,-0.0334499 0.279964,0.0526371 0.313414,0.192281c0.00609093,0.0254278 0.00831137,0.051629 0.00658638,0.0777192l0.88,-0.22v-0.27l-7.18,0.2c0,0.09 0,0.15 -0.14,0.16l-0.88,-0.07l2.29641e-08,-1.34993e-09c-0.201926,0.0118702 -0.396239,0.0812679 -0.56,0.2l-0.33,-0.12l-1.53823e-07,9.54931e-09c-0.676122,0.0419735 -1.34623,0.152541 -2,0.329999l4.71635e-07,3.7164e-08c-0.665632,-0.0524505 -1.33436,-0.0524508 -1.99999,-8.26052e-07l-1.61,0.14l-0.850015,-0.0999985c0,-0.48 0.89,-2.81 2.79,-7l-5.30109e-08,1.87681e-07c0.281394,-0.996253 0.811305,-1.90467 1.54,-2.64l-3.05456e-08,-4.26645e-10c0.159577,0.0022289 0.316677,0.0397963 0.46,0.11l1.15,-0.39l0.59,0.09l-3.56241e-07,3.90174e-08c1.18253,-0.129517 2.34265,-0.415344 3.45,-0.85l-1.10494e-07,1.57481e-08c0.252027,-0.03592 0.508973,-0.0119385 0.75,0.0699999l0.88,-0.21l2.58,-0.18l-7.25996e-07,6.89213e-08c1.22962,-0.116732 2.44321,-0.364814 3.62,-0.74v-0.27c-0.48,0 -0.74,0 -0.75,-0.23c0,-0.36 -0.38,-0.51 -1.06,-0.46v-0.27l0.72,-0.21l1.88,-0.16v-0.27c-0.07,0 -0.46,0 -1.16,0v-0.29l0.73,-0.07c0.2,0 0.28,-0.11 0.26,-0.3c-1,0 -1.47,0 -1.48,-0.15c-6.82,0.333333 -10.24,0.396667 -10.26,0.19l-6.81745e-08,1.48011e-08c-0.154712,0.0335888 -0.300998,0.0982267 -0.43,0.19l-0.18,-0.28c1.80667,-3.84 2.86667,-5.77333 3.18,-5.8l2.18787e-08,-3.03678e-07c-0.0182628,0.253489 -0.0934618,0.499595 -0.22,0.72v0.12h0.29c0.72,-1.71 1.32,-2.6 1.83,-2.64c2.14,-0.19 -0.3,-0.33 4.29,-1l-8.73758e-08,-4.80658e-08c0.125794,0.0691997 0.266461,0.10694 0.41,0.11c1.8,-0.366667 4.30667,-0.746667 7.52,-1.14v-0.27l-1.71,0.16v-0.27l4.2047e-08,-3.14972e-09c0.186224,-0.01395 0.363936,-0.0836408 0.51,-0.2v0.15l3.71965e-08,-8.89356e-09c0.142337,-0.0340323 0.275469,-0.0988917 0.39,-0.19l-8.54394e-08,1.42221e-08c0.22967,-0.0382303 0.465474,-0.0104887 0.68,0.0799999l-2.80086e-07,7.8372e-08c0.472174,-0.132121 0.953493,-0.229053 1.44,-0.29l1.07,-0.1c0.26,-0.17 0.38,-0.32 0.37,-0.46v-0.12l-1.08355e-07,8.2561e-09c-0.314598,0.0239707 -0.631002,0.00377466 -0.939999,-0.0599999l-6.11729e-09,-5.21222e-08c-0.0173817,-0.1481 0.0885867,-0.28225 0.236687,-0.299632c0.00110357,-0.00012952 0.00220793,-0.000252226 0.00331301,-0.000368111l2,-0.19l0.91,-0.23c0,0.1 0.06,0.14 0.13,0.14l3.71965e-08,-8.89356e-09c0.142337,-0.0340323 0.275469,-0.0988917 0.39,-0.19h0.15l3.62834e-07,-7.9173e-07c-0.161486,0.352374 -0.295226,0.716814 -0.4,1.09h-0.26l-5.18364e-09,-6.42622e-08c-0.013646,-0.169171 -0.0648928,-0.333161 -0.15,-0.48h-0.13c-2.42,6.75 -3.5,9.89 -5.74,15.07c-0.41,1.32 -0.75,2.06 -1.05,2.22l-6.44022e-09,2.23061e-07c-0.0033471,0.115931 0.0879206,0.212626 0.203852,0.215973c0.0188996,0.000545658 0.0377863,-0.00146359 0.0561482,-0.00597327l5.78703e-08,7.57843e-07c0.0515865,0.675554 -0.109244,1.35034 -0.46,1.93c-1,3 -1.72,4.61 -2.08,4.91l0.100001,1.34l5.02676e-09,3.65067e-08c0.0165738,0.120367 -0.0675671,0.231379 -0.187934,0.247953c-0.0106245,0.00146293 -0.0213417,0.00214701 -0.032066,0.00204676h-0.24c0,-0.39 -0.18,-0.58 -0.43,-0.55h-0.13l3.33648e-07,-5.25691e-07c-0.335454,0.528537 -0.578901,1.11011 -0.72,1.72h0.24l3.84258e-08,-1.90406e-08c0.283685,-0.140571 0.459466,-0.433539 0.45,-0.75h0.48l0.28,0.1l-2.94595e-08,3.80998e-08c-0.188938,0.244353 -0.297267,0.541384 -0.31,0.85l0.13,0.22l-0.32,0.75v0.12l4.79793e-08,-1.94194e-09c0.323357,-0.0130879 0.642365,0.0780572 0.91,0.26l8.00579e-08,-1.10943e-08c0.267724,-0.0371009 0.522021,-0.140194 0.74,-0.3c0.28,0 1.32,0 3.12,0l0.9,-0.31l1.35157e-07,2.97679e-09c0.744046,0.0163874 1.48844,-0.00697894 2.22999,-0.069999h0.39l0.21,-0.14v0.12l-3.10344e-07,3.52921e-08c0.613348,-0.0697494 1.23372,-0.0461482 1.84,0.0699999v0.12h-0.55v0.23l3.78777e-08,-2.48565e-09c0.160557,-0.0105363 0.314068,-0.0698475 0.44,-0.17c0.14,0 0.22,0.07 0.23,0.23l-1.05397e-07,1.11503e-08c-0.255801,0.0270619 -0.507531,0.0841206 -0.75,0.17l-0.24,-0.08c-0.38,0.1 -0.3,0.13 -0.56,0.15l-0.38,-0.07l5.41093e-10,2.37048e-09c0.0110613,0.0484592 -0.0192557,0.0967102 -0.0677149,0.107771c-0.00730661,0.00166781 -0.0147929,0.00241644 -0.0222851,0.00222851l-6.19424e-09,1.00359e-07c-0.00680454,0.110247 0.0770523,0.205136 0.187299,0.211941c0.014262,0.000880263 0.0285773,0.00022956 0.0427007,-0.00194096h0.39l2,-0.18l0.77,-0.17c0,0.07 0,0.1 0.1,0.09l0.37,-0.14l0.7,-0.06c0.54,0 0.53,-0.08 1.71,-0.27c0,-0.07 0,-0.1 0.07,-0.11v0.1l1.38731e-07,-1.85544e-08c0.814247,-0.1089 1.61965,-0.275995 2.41001,-0.5v0.06c0.48,-0.11 0.21,-0.08 0.34,-0.18c0,0.08 0,0.12 0.08,0.12h0.34v-0.25h-0.68v0h-0.07h-0.09v0l1.09943e-07,-2.05933e-08c-0.250485,0.0469181 -0.505254,0.0670315 -0.759998,0.0600001l-1.71,0.09v-0.12l1,-0.13h0.34l0.2,-0.14v0.12c1.34,-0.11 1.82,0.22 8,-1.1c0.34,0 0.31,-0.31 0.52,-0.89l2.94744e-08,-2.54265e-09c-0.114506,0.00987798 -0.229365,-0.0144861 -0.33,-0.07l4.51764e-07,-1.09691e-07c-0.58073,0.141005 -1.17325,0.228042 -1.77,0.26c-0.08,0 -0.15,-0.07 -0.18,-0.21v-0.1h1l-9.20964e-09,9.78744e-10c0.354446,-0.0376685 0.69605,-0.153814 1,-0.34c0,0.08 -0.2,0.13 -0.08,0.12Zm-45.88,0.77h-0.44l-5.6534e-08,2.67796e-07c0.1465,-0.693955 0.381769,-1.36615 0.7,-2h0.29l1.37824e-07,-1.03935e-06c-0.0913151,0.68862 -0.276362,1.36152 -0.55,2Zm0.53,-2.12v-0.12c0,-0.15 0.08,-0.25 0.29,-0.3v0.12c0,0.18 -0.08,0.28 -0.29,0.3Zm5.86,4.52v0.12l-0.73,0.07v-0.12l0.73,-0.07Zm-0.88,-0.07c0,0.15 -0.21,0.32 -0.7,0.48l-0.89,-0.07h-0.29v-0.27l1.91,-0.18Zm5.88,-27.11h-0.44v-0.15c0,-0.15 0.07,-0.25 0.26,-0.3h0.16l0.3,0.12l1.49673e-08,9.53172e-08c0.022275,0.141856 -0.0746643,0.27491 -0.21652,0.297185c-0.0176823,0.00277657 -0.035604,0.00371981 -0.05348,0.00281472Zm6.66,-1.3h0.14v0.27h-0.4l-6.11729e-09,-5.21222e-08c-0.0173817,-0.1481 0.0885867,-0.28225 0.236687,-0.299632c0.00110357,-0.00012952 0.00220793,-0.000252226 0.00331301,-0.000368111Zm-1.66,0.58l-0.66,-0.07v-0.13l2.21795e-07,-1.34469e-08c0.563233,-0.0341474 1.12044,-0.134848 1.66,-0.3c0,0.1 0.1,0.14 0.27,0.12v0.27h-0.26l-1.48729e-08,2.02135e-09c-0.18171,0.024696 -0.366628,-0.00670523 -0.53,-0.09l-3.70782e-08,2.52388e-08c-0.152167,0.103579 -0.327154,0.16877 -0.51,0.19Zm0.83,2.41v-0.12l1.07,-0.1v0.12l-1.07,0.1Zm1.11,-0.91v-0.15h0.52v0.15h-0.52Zm0.12,-1.83h-0.14l0.12,-0.29l1.19,-0.11v0.15l1.07776e-07,-1.26603e-08c-0.399345,0.0469106 -0.794058,0.127191 -1.18,0.24Zm0.61,2.57v-0.27h0.52c0.18,0 0.273333,0.0833333 0.28,0.25l-0.78,0.07Zm3.16,-4.3l-0.67,0.19h-0.16l2.79844e-07,-2.48131e-08c-0.402542,0.0356925 -0.807453,0.0356926 -1.21,4.53124e-07c0.87,-0.06 1.7,-0.12 2,-0.17Zm-0.72,3v0.12l-0.92,0.08v-0.12l0.92,-0.08Zm1.51,0.72c0,-0.11 -0.19,-0.19 -0.55,-0.22l-0.92,0.26h-0.71c-0.16,-0.11 -0.24,-0.19 -0.25,-0.24h0.82l1.84,-0.3h0.94v0.15l-2.12518e-07,1.84018e-08c-0.401199,0.0347396 -0.797106,0.115263 -1.18,0.24Zm9.49,-2.45h0.21l4.4571e-08,-4.43538e-08c0.319359,-0.317803 0.695989,-0.572282 1.11,-0.75l6.14709e-08,-3.6454e-07c-0.20506,1.21606 -0.749264,2.34953 -1.57,3.27l-0.52,-0.32l4.48068e-07,-1.0509e-06c0.307562,-0.721355 0.564843,-1.46313 0.77,-2.22Zm-1.6,2.75h0.13c-0.18,0.34 -0.34,0.51 -0.47,0.52v-0.35l-9.03259e-09,1.51545e-09c0.131586,-0.0220769 0.255437,-0.0771217 0.36,-0.16Zm-1,2.47l-7.28177e-09,5.71136e-08c0.0800538,-0.627891 0.328885,-1.22232 0.72,-1.72v0.12c-0.13,0.93 -0.34,1.43 -0.61,1.46v0.59l-8.73627e-09,1.00155e-08c-0.183146,0.209963 -0.295159,0.472493 -0.32,0.75h-0.13l-0.07,-0.81c0.15,0 0.27,-0.15 0.35,-0.39Zm-0.4,1.34l5.80139e-08,-5.1935e-07c-0.0385535,0.345137 -0.129604,0.68236 -0.27,1h-0.13v-0.35c0.18,-0.41 0.33,-0.62 0.43,-0.62Zm-7.52,21.82v-0.1h0.24v0.35c-0.13,0 -0.22,-0.07 -0.26,-0.23Zm10.74,0.28c0,-0.08 0,-0.12 -0.13,-0.11l-0.61,0.06v-0.12h0.06l1.35,-0.2v0.12l5.23557e-08,3.96132e-09c-0.262669,-0.019874 -0.524962,0.0430762 -0.75,0.18Zm-0.72,-0.3c0.06,0 0,0.06 0,0.07c0,0.01 -0.07,0 0,-0.07Zm0.07,-1.68l-0.8,0.07v-0.16l0.73,-0.07l0.63,-0.16c0,0.07 0,0.1 0.13,0.09c0.75,-0.13 0.68,-0.17 1,-0.2c0.12,0 0.2,0.07 0.21,0.21l-1.93,0.17Zm2.8,-0.24l2.11993e-07,4.30408e-08c-0.259817,-0.0527504 -0.525197,-0.0729058 -0.79,-0.0600001v-0.09l0.72,-0.07v0.07c-0.07,0 0.2,0 0.07,0.12Zm0.06,-0.13v-0.1h0.39v0.1h-0.39Zm0.87,-0.07v-0.1l3.92348e-08,-1.02722e-08c0.103866,-0.0271938 0.199817,-0.0785961 0.28,-0.15l4.86304e-09,-7.11239e-10c0.153012,-0.0223784 0.295194,0.0835209 0.317572,0.236533c0.00113855,0.0077848 0.00194848,0.0156141 0.00242763,0.0234671Zm1.11,-0.14v-0.12h0.48v0.12h-0.48Zm0.66,-0.06c0,-0.14 0,-0.22 0.17,-0.24l0.16,0.21l-3.10975e-09,-1.25245e-08c-0.0119778,-0.0482409 0.0174192,-0.0970578 0.0656601,-0.109036c0.00143848,-0.000357163 0.00288557,-0.000678738 0.00433993,-0.000964429l0.12,0.22l-0.52,-0.07Zm9.17,-1.08v0v0Zm0.17,-0.12c0.07,0 0.11,-0.09 -0.07,-0.12c-0.18,-0.03 0.09,0.12 -0.09,0.13v0.08l0.1,-0.07l-0.1,0.08v0l-0.2,0.25l0.39,-0.14v0v-0.23Zm0.68,0.53h-0.07v0.23h0.55c0,-0.15 -0.37,-0.2 -0.49,-0.2Z"></path></g></svg>