<?xml version="1.0" encoding="UTF-8"?><svg width="64" height="64" version="1.1" viewBox="0 0 64 64" xmlns="http://www.w3.org/2000/svg" xmlns:xlink="http://www.w3.org/1999/xlink"><!--Generated by IJSVG (https://github.com/iconjar/IJSVG)--><path d="M248,8c-137,0 -248,111 -248,248c0,137 111,248 248,248c137,0 248,-111 248,-248c0,-137 -111,-248 -248,-248Zm128,421.6c-35.9,26.5 -80.1,42.4 -128,42.4c-47.9,0 -92.1,-15.9 -128,-42.4v-13.6c0,-35.3 28.7,-64 64,-64c11.1,0 27.5,11.4 64,11.4c36.6,0 52.8,-11.4 64,-11.4c35.3,0 64,28.7 64,64v13.6Zm30.6,-27.5c-6.8,-46.4 -46.3,-82.1 -94.6,-82.1c-20.5,0 -30.4,11.4 -64,11.4c-33.6,0 -43.4,-11.4 -64,-11.4c-48.3,0 -87.8,35.7 -94.6,82.1c-35.5,-38.5 -57.4,-89.7 -57.4,-146.1c0,-119.1 96.9,-216 216,-216c119.1,0 216,96.9 216,216c0,56.4 -21.9,107.6 -57.4,146.1Zm-158.6,-282.1c-48.6,0 -88,39.4 -88,88c0,48.6 39.4,88 88,88c48.6,0 88,-39.4 88,-88c0,-48.6 -39.4,-88 -88,-88Zm0,144c-30.9,0 -56,-25.1 -56,-56c0,-30.9 25.1,-56 56,-56c30.9,0 56,25.1 56,56c0,30.9 -25.1,56 -56,56Z" transform="scale(0.125)" fill="#000"></path></svg>