<?xml version="1.0" encoding="UTF-8"?><svg width="36" height="36" version="1.1" viewBox="0 0 36 36" xmlns="http://www.w3.org/2000/svg" xmlns:xlink="http://www.w3.org/1999/xlink"><!--Generated by IJSVG (https://github.com/iconjar/IJSVG)--><path d="M1094,1147h15451v15345h-15451v-15345Zm6485,11437c51,31 334,221 372,269c-1248,47 -2293,122 -3342,-565c-659,-431 -1362,-1317 -1454,-2451c-177,-2147 1654,-3976 3884,-3592c1229,212 1746,908 2345,1491c167,162 314,315 478,480c124,125 366,296 381,582c15,285 -180,504 -392,568c-344,102 -537,-108 -673,-243c-328,-328 -634,-636 -956,-959c-299,-300 -599,-615 -1154,-762c-1776,-473 -3156,1166 -2728,2706c284,1018 1157,1620 2202,1622c201,1 204,77 314,183c85,83 149,150 233,234l490,437Zm6674,-2394c-72,347 -465,945 -641,1158c-898,1084 -2254,1709 -3807,1453c-1519,-250 -2256,-1188 -3209,-2143c-191,-191 -803,-741 -862,-969c-120,-155 36,-731 540,-725c309,4 548,322 796,574l1371,1369c445,417 1044,786 1909,822c2361,95 3911,-2554 2478,-4608c-729,-1045 -2151,-1495 -3410,-1013c-175,67 -323,168 -472,223c-87,-46 -160,-109 -243,-163c-378,-249 -422,-233 -804,-421c53,-174 870,-586 1005,-645c1285,-561 2862,-328 3893,424c1013,740 1692,1886 1700,3250c2,343 -95,1217 -244,1414Zm-11765,-30c107,1039 854,2119 1680,2681c1187,806 2002,720 3642,720c728,0 1455,0 2183,0c1785,0 2717,-314 3943,-1511l445,-557c43,-48 15,-20 53,-48c13,-78 137,-251 193,-352c215,-390 354,-772 459,-1214c285,-1200 49,-2555 -609,-3583c-1292,-2017 -3902,-2841 -6136,-1711c-358,181 -1058,646 -1262,938c-176,5 -389,-32 -583,-33c-1724,-8 -3228,1055 -3813,2635c-209,566 -323,1367 -195,2035Z" transform="scale(0.00204093)" fill-rule="evenodd" fill="#F00"></path></svg>