<?xml version="1.0" encoding="UTF-8"?><svg width="36" height="36" version="1.1" viewBox="0 0 36 36" xmlns="http://www.w3.org/2000/svg" xmlns:xlink="http://www.w3.org/1999/xlink"><!--Generated by IJSVG (https://github.com/iconjar/IJSVG)--><g transform="scale(0.140625)"><path fill="#9B5C8F" d="M23.7587,0h208.379c13.1872,0 23.8626,10.6754 23.8626,23.8626v79.5419c0,13.1872 -10.6754,23.8626 -23.8626,23.8626h-74.7275l10.2567,25.1185l-45.1086,-25.1185h-98.6947c-13.1872,0 -23.8626,-10.6754 -23.8626,-23.8626v-79.5419c-0.10466,-13.0825 10.5707,-23.8626 23.7579,-23.8626v0Z"></path><path fill="#FFF" d="M14.5782,21.7496c1.45691,-1.97724 3.64228,-3.01789 6.5561,-3.22602c5.30732,-0.41626 8.3252,2.0813 9.05366,7.49268c3.22602,21.7496 6.76423,40.1691 10.5106,55.2585l22.7902,-43.3951c2.0813,-3.95447 4.68293,-6.03577 7.80488,-6.2439c4.57886,-0.312195 7.38862,2.60163 8.53333,8.74146c2.60163,13.8407 5.93171,25.6 9.88618,35.5902c2.70569,-26.4325 7.28455,-45.4764 13.7366,-57.2358c1.56098,-2.91382 3.85041,-4.37073 6.86829,-4.57886c2.3935,-0.20813 4.57886,0.520325 6.5561,2.0813c1.97724,1.56098 3.01789,3.53821 3.22602,5.93171c0.104065,1.87317 -0.208131,3.43415 -1.04065,4.99512c-4.05854,7.49268 -7.38862,20.0846 -10.0943,37.5675c-2.60163,16.9626 -3.53821,30.1789 -2.91382,39.6488c0.20813,2.60163 -0.20813,4.89106 -1.24878,6.86829c-1.24878,2.28943 -3.12195,3.53821 -5.51545,3.74634c-2.70569,0.20813 -5.51545,-1.04065 -8.22114,-3.85041c-9.67805,-9.88618 -17.3789,-24.6634 -22.9984,-44.3317c-6.76423,13.3203 -11.7593,23.3106 -14.9854,29.9707c-6.13984,11.7593 -11.3431,17.7951 -15.7138,18.1073c-2.80976,0.20813 -5.20325,-2.18537 -7.28455,-7.18049c-5.30732,-13.6325 -11.0309,-39.961 -17.1707,-78.9854c-0.41626,-2.70569 0.20813,-5.09919 1.66504,-6.97236Zm223.636,16.3382c-3.74634,-6.5561 -9.26179,-10.5106 -16.6504,-12.0715c-1.97724,-0.41626 -3.85041,-0.62439 -5.61951,-0.62439c-9.99024,0 -18.1073,5.20325 -24.4553,15.6098c-5.41138,8.84553 -8.11707,18.6276 -8.11707,29.3463c0,8.01301 1.66504,14.8813 4.99512,20.6049c3.74634,6.5561 9.26179,10.5106 16.6504,12.0715c1.97724,0.41626 3.85041,0.62439 5.61951,0.62439c10.0943,0 18.2114,-5.20325 24.4553,-15.6098c5.41138,-8.94959 8.11707,-18.7317 8.11707,-29.4504c0.104065,-8.11707 -1.66504,-14.8813 -4.99512,-20.5008Zm-13.1122,28.826c-1.45691,6.86829 -4.05854,11.9675 -7.90894,15.4016c-3.01789,2.70569 -5.82764,3.85041 -8.42927,3.33008c-2.49756,-0.520325 -4.57886,-2.70569 -6.13984,-6.76423c-1.24878,-3.22602 -1.87317,-6.45203 -1.87317,-9.46992c0,-2.60163 0.20813,-5.20325 0.728455,-7.59675c0.936586,-4.26667 2.70569,-8.42927 5.51545,-12.3837c3.43415,-5.09919 7.07642,-7.18049 10.8228,-6.45203c2.49756,0.520325 4.57886,2.70569 6.13984,6.76423c1.24878,3.22602 1.87317,6.45203 1.87317,9.46992c0,2.70569 -0.20813,5.30732 -0.728455,7.70081Zm-52.0325,-28.826c-3.74634,-6.5561 -9.36585,-10.5106 -16.6504,-12.0715c-1.97724,-0.41626 -3.85041,-0.62439 -5.61951,-0.62439c-9.99024,0 -18.1073,5.20325 -24.4553,15.6098c-5.41138,8.84553 -8.11707,18.6276 -8.11707,29.3463c0,8.01301 1.66504,14.8813 4.99512,20.6049c3.74634,6.5561 9.26179,10.5106 16.6504,12.0715c1.97724,0.41626 3.85041,0.62439 5.61951,0.62439c10.0943,0 18.2114,-5.20325 24.4553,-15.6098c5.41138,-8.94959 8.11707,-18.7317 8.11707,-29.4504c0,-8.11707 -1.66504,-14.8813 -4.99512,-20.5008Zm-13.2163,28.826c-1.45691,6.86829 -4.05854,11.9675 -7.90894,15.4016c-3.01789,2.70569 -5.82764,3.85041 -8.42927,3.33008c-2.49756,-0.520325 -4.57886,-2.70569 -6.13984,-6.76423c-1.24878,-3.22602 -1.87317,-6.45203 -1.87317,-9.46992c0,-2.60163 0.20813,-5.20325 0.728455,-7.59675c0.936585,-4.26667 2.70569,-8.42927 5.51545,-12.3837c3.43415,-5.09919 7.07642,-7.18049 10.8228,-6.45203c2.49756,0.520325 4.57886,2.70569 6.13984,6.76423c1.24878,3.22602 1.87317,6.45203 1.87317,9.46992c0.104065,2.70569 -0.20813,5.30732 -0.728455,7.70081v0v0Z"></path></g></svg>