<?xml version="1.0" encoding="UTF-8"?><svg width="36" height="36" version="1.1" viewBox="0 0 36 36" xmlns="http://www.w3.org/2000/svg" xmlns:xlink="http://www.w3.org/1999/xlink"><!--Generated by IJSVG (https://github.com/iconjar/IJSVG)--><g transform="scale(0.0703125)"><path fill="#4FC7EC" d="M235.788,279.062c13.565,0 21.229,8.199 21.229,21.927c0,15.287 -8.919,24.369 -23.367,24.369c-3.925,0 -6.782,-0.228 -9.093,-0.893v-44.073c1.952,-0.665 5.703,-1.33 11.231,-1.33Z"></path><path fill="#242238" d="M367.309,53.245l59.065,59.251l-0.228,0.218l-58.335,0.044l-0.545,-59.469Z"></path><path fill="#242238" d="M125.65,94.625h183.182v105.766h-183.182h-0.447h-38.807v-105.766h38.806h0.448Z"></path><path fill="#4FC7EC" d="M426.593,112.714v346.096h-300.943v-258.419h183.182v-105.766h-183.182v-41.434h241.616l0.043,0.054l-0.043,0.043l0.545,59.469l58.335,-0.044l0.229,-0.218l0.218,0.219Zm-81.254,226.71l4.316,-15.625c-5.081,-2.289 -12.2,-4.328 -21.86,-4.328c-20.206,0 -32.407,11.188 -32.407,25.798c0,12.463 9.279,20.335 23.521,25.297c10.292,3.686 14.359,6.738 14.359,12.071c0,5.592 -4.711,9.278 -13.608,9.278c-8.254,0 -16.257,-2.671 -21.469,-5.343l-3.947,16.017c4.83,2.673 14.491,5.214 24.283,5.214c23.508,0 34.564,-12.203 34.564,-26.563c0,-12.069 -7.12,-19.952 -22.244,-25.547c-11.057,-4.197 -15.886,-6.607 -15.886,-12.07c0,-4.449 4.066,-8.266 12.451,-8.266c8.397,-0.001 14.491,2.421 17.927,4.067Zm-72.445,-3.881c7.142,-8.418 11.067,-20.827 11.067,-35.438c0,-14.622 -5.18,-27.02 -12.845,-34.554c-8.036,-7.971 -19.986,-11.961 -36.756,-11.961c-16.584,0 -28.361,1.33 -36.746,3.097v147.299h26.943v-53.386c2.497,0.447 5.703,0.665 9.268,0.665c16.062,0.001 29.789,-4.872 39.069,-15.722Z"></path><path fill="#242238" d="M330.847,355.692c-11.057,-4.197 -15.886,-6.607 -15.886,-12.07c0,-4.449 4.066,-8.266 12.451,-8.266c8.396,0 14.491,2.422 17.927,4.067l4.316,-15.625c-5.081,-2.289 -12.2,-4.328 -21.86,-4.328c-20.206,0 -32.407,11.188 -32.407,25.798c0,12.463 9.279,20.335 23.521,25.297c10.292,3.686 14.359,6.738 14.359,12.071c0,5.592 -4.711,9.278 -13.608,9.278c-8.254,0 -16.257,-2.671 -21.469,-5.343l-3.947,16.017c4.83,2.673 14.491,5.214 24.283,5.214c23.508,0 34.564,-12.203 34.564,-26.563c0,-12.069 -7.12,-19.952 -22.244,-25.547Z"></path><path fill="#242238" d="M234.053,253.59c-16.585,0 -28.053,1.33 -37.053,3.097v147.313h27v-53.399c3,0.447 5.981,0.665 9.547,0.665c16.062,0 29.929,-4.873 39.208,-15.723c7.141,-8.418 11.137,-20.827 11.137,-35.438c0,-14.622 -5.298,-27.02 -12.963,-34.554c-8.035,-7.97 -20.106,-11.961 -36.876,-11.961Zm-0.681,71.767c-3.925,0 -6.372,-0.228 -9.372,-0.893v-44.073c1,-0.665 5.981,-1.33 11.51,-1.33c13.564,0 21.229,8.199 21.229,21.927c0,15.287 -8.92,24.369 -23.367,24.369Z"></path><path fill="#4FC7EC" d="M247.183,129.397c-4.394,-3.315 -9.8,-4.874 -18.457,-4.874c-5.201,0 -10.726,0.338 -13.726,0.949v44.749c2,0.338 6.158,0.676 11.501,0.676c8.92,0 16.114,-1.897 20.912,-5.877c4.394,-3.718 7.517,-9.737 7.517,-18.46c0,-8.048 -3.015,-13.652 -7.747,-17.163Zm-19.131,33.452c-1.287,0 -3.052,0 -4.052,-0.196v-29.811c1,-0.207 2.841,-0.403 5.131,-0.403c8.854,0 14.403,5.004 14.328,14.458c0,10.882 -6.074,16.018 -15.407,15.952Z"></path><path fill="#4FC7EC" d="M195.793,143.387c-5.877,-2.236 -8.439,-3.511 -8.439,-6.422c0,-2.366 2.159,-4.395 6.619,-4.395c4.459,0 7.709,1.287 9.53,2.17l2.3,-8.319c-2.704,-1.211 -6.487,-2.301 -11.623,-2.301c-10.75,0 -17.239,5.954 -17.239,13.717c0,6.629 4.939,10.816 12.506,13.456c5.474,1.962 7.633,3.576 7.633,6.422c0,2.977 -2.497,4.939 -7.229,4.939c-4.394,0 -8.658,-1.428 -11.427,-2.846l-2.093,8.516c2.573,1.417 7.708,2.77 12.91,2.77c12.507,0 18.384,-6.488 18.384,-14.12c-5.68434e-14,-6.424 -3.785,-10.611 -11.832,-13.587Z"></path><path fill="#4FC7EC" d="M166.648,128.176c-3.042,-2.432 -7.967,-3.653 -14.324,-3.653c-6.28,0 -10.324,0.414 -14.324,0.949v45.528h10v-16.874c1,0.142 2.673,0.207 4.024,0.207c6.074,0 11.537,-1.483 15.048,-4.797c2.704,-2.573 4.313,-6.357 4.313,-10.816c0,-4.459 -1.826,-8.244 -4.737,-10.544Zm-14.7,18.252c-1.482,0 -2.948,-0.065 -3.948,-0.272v-13.444c1,-0.207 2.673,-0.415 4.767,-0.415c5.136,0 8.036,2.508 8.036,6.695c0,4.667 -3.381,7.436 -8.855,7.436Z"></path></g></svg>