<?xml version="1.0" encoding="UTF-8"?><svg width="36" height="36" version="1.1" viewBox="0 0 36 36" xmlns="http://www.w3.org/2000/svg" xmlns:xlink="http://www.w3.org/1999/xlink"><!--Generated by IJSVG (https://github.com/iconjar/IJSVG)--><g transform="scale(0.0703125)"><path fill="#FE7903" d="M367.309,53.245l59.065,59.251l-0.228,0.218l-58.335,0.044l-0.545,-59.469Z"></path><path fill="#261003" d="M426.593,112.714v346.096h-300.943v-258.419h183.182v-105.766h-183.182v-41.434h241.616l0.043,0.054l-0.043,0.043l0.545,59.469l58.335,-0.044l0.229,-0.218l0.218,0.219Z"></path><path fill="#FE7903" d="M125.65,94.625h183.182v105.766h-183.182h-0.447h-38.807v-105.766h38.806h0.448Z"></path><path fill="#261003" d="M216.053,124.163h10.642v46.886h-10.642Z"></path><path fill="#261003" d="M193.209,151.095l-2.922,-9.955c-0.829,-2.781 -1.668,-6.259 -2.355,-9.04h-0.142c-0.698,2.78 -1.396,6.324 -2.16,9.04l-2.78,9.955h10.359Zm2.018,-26.932l14.545,46.886h-11.405l-3.62,-12.026h-13.423l-3.347,12.026h-10.991l14.338,-46.886h13.903Z"></path><path fill="#FE7903" d="M323.346,293.53h26.594v117.128h-26.594Z"></path><path fill="#FE7903" d="M271.323,256.098l36.321,154.56h-28.504l-9.038,-39.679h-33.54l-8.342,39.679h-27.456l35.797,-154.56h34.762Zm-5.036,88.735l-7.308,-32.787c-2.082,-9.171 -4.175,-20.63 -5.909,-29.8h-0.338c-1.744,9.17 -3.489,20.858 -5.397,29.8l-6.946,32.787h25.898Z"></path></g></svg>