<?xml version="1.0" encoding="UTF-8"?><svg width="36" height="36" version="1.1" viewBox="0 0 36 36" xmlns="http://www.w3.org/2000/svg" xmlns:xlink="http://www.w3.org/1999/xlink"><!--Generated by IJSVG (https://github.com/iconjar/IJSVG)--><g transform="scale(0.0703125)"><path fill="#37F902" d="M64,64h384v384h-384Z"></path><path fill="#072500" d="M87,87h337.9v337.9h-337.9Z"></path><path fill="#35F902" d="M238,264.7c-7.6,42.9 -36.4,67.7 -78.6,70.4c-12.5,0.8 -25.1,-0.2 -37.7,-0.1c-5.8,0.1 -7.7,-2.5 -7.7,-8.1c0.1,-55 0.1,-110 0,-165c0,-3.9 0.6,-6.8 5.3,-6.8c20.1,0.1 40.3,-2.7 60.3,1.6c33.5,7.3 54.4,30.6 58.7,64.9c2.3,14.5 2.5,28.8 -0.3,43.1Z"></path><path fill="#35F903" d="M408.3,203.1c0.5,6.9 -2.6,14.7 -4.3,21.9c-7.4,31.3 -15.4,62.4 -23.4,93.6c-3.9,15.1 -4,15.1 -19.9,15.1c-17.9,0 -14.7,2 -17.8,-14.1c-4.8,-25 -9.7,-50.1 -14.9,-77c-3.4,11.4 -4.9,19.3 -7.1,30.1c-4.3,18.6 -7.2,37.4 -12.6,55.8c-1.3,4.5 -3.1,5.3 -6.9,5.3c-6.3,0 -11.9,0.1 -18.1,0c-6.3,-0.1 -8.8,-2.2 -10.1,-8c-8.3,-37.5 -16.7,-75 -25.2,-112.4c-2.4,-10.5 -1.4,-11.8 9.2,-11.8c0.8,0 1.6,0 2.4,0c18.1,-0.1 18.3,-0.2 21.3,16.8c3.7,21.6 7,43.3 10.5,65c0.5,4.3 1.4,11.1 1.9,15.4c1.5,-5.7 2.5,-10.5 4.1,-20.1c4.4,-21.2 8.9,-42.5 13,-63.8c2.6,-13.2 2.3,-13.5 15.9,-13.3c22,0.4 18.5,-4.2 22.6,18.8c4,22.9 3.4,19.9 7.5,42.8c0.3,1.5 5.9,30.6 6.8,32.5c3.6,-20.7 6.7,-39 10.3,-57.2c2.3,-11.5 3.1,-23.3 7.4,-34.3c9,-3.5 18.2,-1.8 27.4,-1.1Z"></path><path fill="#072500" d="M144.7,244.3c0,-18.3 0.2,-36.6 -0.1,-54.9c-0.1,-6 1.7,-8.2 8.1,-8.2c9.3,0.1 18.3,1 26.8,4.7c18.4,7.8 26.5,23.3 28.1,41.9c1.3,15.5 2.1,31.4 -4,46.5c-9.9,24.6 -27.3,34.8 -52.4,32.9c-5.1,-0.4 -6.7,-2.1 -6.6,-7.1c0.2,-18.6 0.1,-37.2 0.1,-55.8c0,0 0,0 0,0Z"></path><path fill="#35F903" d="M407.1,213.2c2.4,-10.5 3.8,-11.7 -6.9,-11.7c-0.8,0 -1.6,0 -2.4,0c-18.1,-0.1 -18.3,-0.2 -21.3,16.8c-3.7,21.6 -7,43.3 -10.5,65l41.1,-70.1Z"></path></g></svg>