<?xml version="1.0" encoding="UTF-8"?><svg width="36" height="36" version="1.1" viewBox="0 0 36 36" xmlns="http://www.w3.org/2000/svg" xmlns:xlink="http://www.w3.org/1999/xlink"><!--Generated by IJSVG (https://github.com/iconjar/IJSVG)--><g transform="scale(0.0703125)"><path fill="#26000D" d="M367.309,53.245l59.065,59.251l-0.228,0.218l-58.335,0.044l-0.545,-59.469Z"></path><path fill="#26000D" d="M125.65,94.625h183.182v105.766h-183.182h-0.447h-38.807v-105.766h38.806h0.448Z"></path><path fill="#FF418A" d="M426.593,112.714v346.096h-300.943v-258.419h183.182v-105.766h-183.182v-41.434h241.616l0.043,0.054l-0.043,0.043l0.545,59.469l58.335,-0.044l0.229,-0.218l0.218,0.219Z"></path><path fill="#FF418A" d="M251.119,146.941c0.055,-7.818 -4.525,-11.95 -11.841,-11.95c-1.896,0 -3.129,0.174 -3.849,0.338v24.621c0.719,0.174 1.897,0.174 2.955,0.174c7.708,0.054 12.735,-4.198 12.735,-13.183Zm-12.735,-18.482c7.153,0 11.787,1.287 15.407,4.024c3.914,2.9 6.367,7.534 6.367,14.186c0,7.196 -2.616,12.157 -6.247,15.232c-3.968,3.293 -9.999,4.863 -17.369,4.863c-4.405,0 -7.535,-0.272 -9.661,-0.557v-36.963c3.128,-0.513 7.207,-0.785 11.503,-0.785Z"></path><path fill="#FF418A" d="M199.501,160.124c7.708,0.055 12.725,-4.198 12.725,-13.183c0.065,-7.818 -4.515,-11.95 -11.831,-11.95c-1.897,0 -3.129,0.174 -3.86,0.338v24.621c0.731,0.174 1.908,0.174 2.966,0.174Zm15.407,-27.641c3.915,2.9 6.368,7.534 6.368,14.186c0,7.196 -2.617,12.157 -6.259,15.232c-3.958,3.293 -9.988,4.863 -17.358,4.863c-4.405,0 -7.535,-0.272 -9.661,-0.557v-36.963c3.129,-0.513 7.207,-0.785 11.503,-0.785c7.142,-2.84217e-14 11.787,1.287 15.407,4.024Z"></path><path fill="#FF418A" d="M173.354,155.424h0.164c-0.556,-4.972 -0.73,-10.053 -0.73,-15.69v-11.002h7.818v37.64h-8.93l-8.046,-14.512c-2.225,-4.024 -4.678,-8.887 -6.532,-13.303l-0.164,0.054c0.229,4.983 0.338,10.282 0.338,16.432v11.329h-7.818v-37.64h9.933l7.818,13.794c2.234,3.968 4.469,8.657 6.149,12.898Z"></path><path fill="#FF418A" d="M133.533,128.731h8.538v37.64h-8.538Z"></path><path fill="#26000D" d="M339.047,416.219h-22.777l-1.178,-12.146h-0.339c-5.222,9.269 -15.178,14.001 -25.81,14.001c-19.571,0 -35.251,-16.704 -35.251,-42.351c-0.174,-27.827 17.206,-43.854 36.942,-43.854c10.118,0 18.044,3.544 21.752,9.289h0.339v-44.716h25.645v95.146c5.68434e-14,9.278 0.339,19.07 0.677,24.631Zm-26.321,-36.766v-10.796c0,-1.362 -0.164,-3.217 -0.339,-4.568c-1.516,-6.913 -7.077,-12.649 -15.014,-12.649c-11.635,0 -17.708,10.458 -17.708,23.443c0,14.001 6.913,22.778 17.544,22.778c7.415,0 13.325,-5.049 14.84,-12.311c0.513,-1.864 0.677,-3.716 0.677,-5.897Z"></path><path fill="#26000D" d="M211.658,287.719h25.809v128.5h-25.809Z"></path></g></svg>