<?xml version="1.0" encoding="UTF-8"?><svg width="36" height="36" version="1.1" viewBox="0 0 36 36" xmlns="http://www.w3.org/2000/svg" xmlns:xlink="http://www.w3.org/1999/xlink"><!--Generated by IJSVG (https://github.com/iconjar/IJSVG)--><defs><linearGradient id="a" x1="384.021" x2="127.979" gradientUnits="userSpaceOnUse" y1="32.2605" y2="475.74" gradientTransform="matrix(1,0,0,1,0,2)"><stop offset="0%" stop-color="#FB9643"></stop><stop offset="100%" stop-color="#F65A70"></stop></linearGradient></defs><g transform="scale(0.0703125)"><path fill="url(#a)" d="M437.019,74.9807c99.9742,99.9742 99.9742,262.064 0,362.039c-99.9742,99.9742 -262.064,99.9742 -362.039,0c-99.9742,-99.9742 -99.9742,-262.064 -5.68434e-14,-362.039c99.9742,-99.9742 262.064,-99.9742 362.039,-5.68434e-14"></path><path fill="#FFF" d="M305.237,118.863c26.7509,26.7509 26.7509,70.1227 0,96.8736c-26.7509,26.7509 -70.1227,26.7509 -96.8736,0c-26.7509,-26.7509 -26.7509,-70.1227 0,-96.8736c26.7509,-26.7509 70.1227,-26.7509 96.8736,-1.42109e-14"></path><path fill="#FFF" d="M395.937,276.263c26.7509,26.7509 26.7509,70.1227 0,96.8736c-26.7509,26.7509 -70.1227,26.7509 -96.8736,0c-26.7509,-26.7509 -26.7509,-70.1227 0,-96.8736c26.7509,-26.7509 70.1227,-26.7509 96.8736,0"></path><path fill="#FFF" d="M212.937,276.263c26.7509,26.7509 26.7509,70.1227 0,96.8736c-26.7509,26.7509 -70.1227,26.7509 -96.8736,0c-26.7509,-26.7509 -26.7509,-70.1227 -1.42109e-14,-96.8736c26.7509,-26.7509 70.1227,-26.7509 96.8736,0"></path></g></svg>