<?xml version="1.0" encoding="UTF-8"?><svg width="32" height="32" version="1.1" viewBox="0 0 32 32" xmlns="http://www.w3.org/2000/svg" xmlns:xlink="http://www.w3.org/1999/xlink"><!--Generated by IJSVG (https://github.com/iconjar/IJSVG)--><path d="M180.41,203.01c-0.72,22.65 10.6,32.68 10.88,39.05l2.7132e-07,-2.63887e-06c-0.270479,2.6307 -1.79848,4.96742 -4.1,6.27l-12.8,8.96l-8.63395e-09,6.05269e-09c-1.65647,1.16124 -3.60917,1.82717 -5.63,1.92c-0.43,-0.02 -8.19,1.83 -20.48,-25.61l4.93805e-07,-6.16394e-07c-15.1953,18.9675 -38.3096,29.8399 -62.61,29.45c-16.28,0.89 -60.4,-9.24 -58.13,-56.21c-1.59,-38.28 34.06,-62.06 70.93,-60.05c7.1,0.02 21.6,0.37 46.99,6.27v-15.62c2.69,-26.46 -14.7,-46.99 -44.81,-43.91c-2.4,0.01 -19.4,-0.5 -45.84,10.11c-7.36,3.38 -8.3,2.82 -10.75,2.82c-7.41,0 -4.36,-21.48 -2.94,-24.2c5.21,-6.4 35.86,-18.35 65.94,-18.18l3.3345e-06,-2.949e-07c20.1125,-1.77873 40.1171,4.4285 55.69,17.28l1.4595e-06,1.63254e-06c12.792,14.3086 19.1762,33.2261 17.67,52.36l-0.01,69.29Zm-86.42,32.39c32.43,-0.47 46.16,-19.97 49.29,-30.47c2.46,-10.05 2.05,-16.41 2.05,-27.4c-9.67,-2.32 -23.59,-4.85 -39.56,-4.87c-15.15,-1.14 -42.82,5.63 -41.74,32.26c-1.24,16.79 11.12,31.4 29.96,30.48Zm170.92,23.05c-7.86,0.72 -11.52,-4.86 -12.68,-10.37l-49.8,-164.65c-0.97,-2.78 -1.61,-5.65 -1.92,-8.58l-2.15945e-07,-1.42001e-06c-0.382513,-2.51533 1.34505,-4.86499 3.86,-5.25c0.24,-0.04 -2.13,0 22.25,0c8.78,-0.88 11.64,6.03 12.55,10.37l35.72,140.83l33.16,-140.83c0.53,-3.22 2.94,-11.07 12.8,-10.24h17.16c2.17,-0.18 11.11,-0.5 12.68,10.37l33.42,142.63l36.87,-142.63c0.48,-2.18 2.72,-11.37 12.68,-10.37h19.72c0.85,-0.13 6.15,-0.81 5.25,8.58c-0.43,1.85 3.41,-10.66 -52.75,169.9c-1.15,5.51 -4.82,11.09 -12.68,10.37h-18.69c-10.94,1.15 -12.51,-9.66 -12.68,-10.75l-33.16,-137.13l-32.78,136.99c-0.16,1.09 -1.73,11.9 -12.68,10.75h-18.3Zm273.48,5.63c-5.88,0.01 -33.92,-0.3 -57.36,-12.29l2.84647e-08,1.20521e-08c-4.77521,-2.02183 -7.85908,-6.72463 -7.81,-11.91v-10.75c0,-8.45 6.2,-6.9 8.83,-5.89c10.04,4.06 16.48,7.14 28.81,9.6c36.65,7.53 52.77,-2.3 56.72,-4.48c13.15,-7.81 14.19,-25.68 5.25,-34.95c-10.48,-8.79 -15.48,-9.12 -53.13,-21c-4.64,-1.29 -43.7,-13.61 -43.79,-52.36c-0.61,-28.24 25.05,-56.18 69.52,-55.95c12.67,-0.01 46.43,4.13 55.57,15.62c1.35,2.09 2.02,4.55 1.92,7.04v10.11c0,4.44 -1.62,6.66 -4.87,6.66c-7.71,-0.86 -21.39,-11.17 -49.16,-10.75c-6.89,-0.36 -39.89,0.91 -38.41,24.97c-0.43,18.96 26.61,26.07 29.7,26.89c36.46,10.97 48.65,12.79 63.12,29.58c17.14,22.25 7.9,48.3 4.35,55.44c-19.08,37.49 -68.42,34.44 -69.26,34.42Zm40.2,104.86c-70.03,51.72 -171.69,79.25 -258.49,79.25l-1.48042e-05,9.76279e-08c-117.119,0.772355 -230.292,-42.2929 -317.27,-120.73c-6.53,-5.89 -0.77,-13.96 7.17,-9.47l1.49404e-05,8.54631e-06c96.4845,55.1916 205.725,84.191 316.88,84.12l3.0254e-05,-1.62244e-07c83.0074,-0.445148 165.109,-17.2842 241.59,-49.55c11.78,-5 21.77,7.8 10.12,16.38Zm29.19,-33.29c-8.96,-11.52 -59.28,-5.38 -81.81,-2.69c-6.79,0.77 -7.94,-5.12 -1.79,-9.47c40.07,-28.17 105.88,-20.1 113.44,-10.63c7.55,9.47 -2.05,75.41 -39.56,106.91c-5.76,4.87 -11.27,2.3 -8.71,-4.1c8.44,-21.25 27.39,-68.49 18.43,-80.02Z" transform="scale(0.05)" fill="#000"></path></svg>