<?xml version="1.0" encoding="UTF-8"?><svg width="40" height="40" version="1.1" viewBox="0 0 48 48" xmlns="http://www.w3.org/2000/svg" xmlns:xlink="http://www.w3.org/1999/xlink"><!--Generated by IJSVG (https://github.com/iconjar/IJSVG)--><path d="M22.66,67.833v-15.937h6.534c1.407,0 2.431,0.037 3.073,0.108c0.642,0.072 1.193,0.191 1.655,0.357c0.808,0.303 1.426,0.775 1.855,1.417c0.429,0.642 0.644,1.421 0.644,2.337c0,0.722 -0.161,1.351 -0.481,1.888c-0.321,0.537 -0.803,0.979 -1.444,1.325c0.844,0.303 1.468,0.758 1.871,1.363c0.404,0.606 0.606,1.393 0.606,2.358c0,0.945 -0.196,1.766 -0.59,2.462c-0.394,0.695 -0.965,1.231 -1.715,1.606c-0.505,0.26 -1.082,0.443 -1.73,0.552c-0.649,0.108 -1.725,0.162 -3.225,0.162h-7.053Zm4.965,-9.575h2.109c0.707,0 1.205,-0.104 1.493,-0.313c0.288,-0.209 0.433,-0.563 0.433,-1.061c0,-0.526 -0.155,-0.887 -0.465,-1.081c-0.311,-0.195 -1.028,-0.293 -2.153,-0.293h-1.417v2.748Zm0,5.853h2.369c0.786,0 1.346,-0.115 1.677,-0.347c0.332,-0.23 0.498,-0.609 0.498,-1.136c0,-0.527 -0.17,-0.901 -0.509,-1.125c-0.339,-0.224 -0.908,-0.335 -1.709,-0.335h-2.326v2.943Zm14.064,3.722v-15.937h12.734v3.819h-7.617v2.12h6.439v3.657h-6.439v2.467h7.931v3.873h-13.048Zm22.307,0h-4.631v-15.937h6.231l2.207,7.952c0.029,0.108 0.087,0.355 0.173,0.741c0.087,0.386 0.21,0.918 0.368,1.596c0.101,-0.534 0.195,-1.001 0.281,-1.401c0.087,-0.4 0.162,-0.701 0.228,-0.903l2.261,-7.984h6.221v15.937h-4.63l0.043,-7.844c0,-0.476 0.002,-0.939 0.006,-1.391c0.003,-0.45 0.009,-0.917 0.016,-1.4c-0.173,0.822 -0.382,1.72 -0.627,2.693l-0.033,0.141l-1.969,7.801h-3.57l-1.99,-7.627c-0.094,-0.347 -0.188,-0.743 -0.281,-1.19c-0.093,-0.447 -0.217,-1.053 -0.368,-1.817c0.021,0.686 0.038,1.272 0.049,1.764c0.011,0.49 0.017,0.883 0.017,1.179v7.69Zm21.253,-65.75h-6.916h-57.001h-13.799c-2.205,1.77636e-15 -4,1.795 -4,4v34.854v37.89v15.09c0,2.205 1.795,4 4,4h84.931c2.205,0 4,-1.795 4,-4v-15.09v-37.89v-26.344l-11.215,-12.51Zm-25.25,19.083h4.416c1.381,0 2.5,-1.245 2.5,-2.782v-13.301h8.418v19.166c0,0.552 -0.449,1 -1,1h-40.872v-20.166h24.037v13.301c0.001,1.537 1.12,2.782 2.501,2.782Zm-29.538,-16.083v20.166h-5.13c-0.553,0 -1,-0.448 -1,-1v-19.166h6.13Zm-23.928,38.855h86.931v31.89h-86.931v-31.89Zm86.93,49.979c0,0.551 -0.449,1 -1,1h-84.93c-0.551,0 -1,-0.449 -1,-1v-15.09h86.931v15.09Zm-86.93,-52.979v-34.855c-8.88178e-16,-0.551 0.449,-1 1,-1h13.799v19.166c0,2.206 1.793,4 4,4h49.001c2.205,0 4,-1.794 4,-4v-19.166h5.576l9.555,10.657v25.197h-86.931Z" transform="scale(0.384)" fill="#000"></path></svg>