<?xml version="1.0" encoding="UTF-8"?><svg width="32" height="32" version="1.1" viewBox="0 0 32 32" xmlns="http://www.w3.org/2000/svg" xmlns:xlink="http://www.w3.org/1999/xlink"><!--Generated by IJSVG (https://github.com/iconjar/IJSVG)--><g transform="scale(1.33333)"><path fill="#303C42" d="M16.87,8.65l-0.1,-0.06l-3.09319e-09,-2.04023e-09c-0.230515,-0.152045 -0.54064,-0.0884321 -0.692685,0.142083c-0.0676331,0.102538 -0.0951545,0.226385 -0.077315,0.347917l1.7829e-08,1.17874e-07c0.030667,0.202751 -0.0317968,0.408514 -0.17,0.56l7.33592e-09,-7.70351e-09c-0.21654,0.22739 -0.516012,0.357282 -0.83,0.36l2.6479e-08,1.23356e-09c-0.541492,-0.025226 -0.974774,-0.458508 -1,-1l-7.24587e-09,-1.83573e-07c-0.0214286,-0.542891 0.056518,-1.08513 0.23,-1.6l1.3552e-07,-4.08757e-07c0.202931,-0.612083 0.29438,-1.25561 0.27,-1.9c0,-2 -0.24,-3.08 -2.66,-5.36l1.74034e-08,1.71446e-08c-0.196719,-0.193794 -0.513293,-0.191423 -0.707087,0.00529677c-0.117852,0.119631 -0.167778,0.290433 -0.132913,0.454704c0.58,2.86 -1.17,4.4 -3.39,6.27c-0.61,0.56 -1.32,1.13 -1.96,1.78c-3.02,3.01 -3.65,5.66 -3.65,7.35c0,3 1.11,6.79 6.39,8h0.12l1.22501e-08,3.14145e-10c0.276052,0.0070791 0.505574,-0.210966 0.512654,-0.487018c0.00483217,-0.188432 -0.0967171,-0.363567 -0.262654,-0.452982c-1.89,-1.75 -2.26,-2.63 -2.26,-3.56l8.68355e-09,-8.49645e-08c0.0989662,-0.968338 0.517672,-1.87612 1.19,-2.58l-1.08761e-07,2.88448e-06c-0.015541,0.412175 0.0924085,0.819595 0.310001,1.17l-1.3339e-08,-1.67486e-08c0.482596,0.605951 1.22611,0.944249 2,0.909998c1.18,0 2,-1 2,-2.5l7.32752e-08,6.19664e-07c-0.0900418,-0.761455 -0.474001,-1.4576 -1.07,-1.94l-2.83223e-07,-2.23972e-07c-0.490949,-0.388241 -0.82196,-0.943486 -0.93,-1.56l-4.58463e-08,8.67793e-06c0.00210619,-0.398775 0.0836953,-0.793128 0.239997,-1.16l1.16558e-07,1.98857e-07c0.2488,0.424473 0.590728,0.786916 1,1.06c0.25,0.18 0.62,0.42 1.05,0.69c1.66,1 4.74,3 4.74,4.9c0,2.48 -0.91,3.24 -2.79,4.59l4.88644e-08,-3.41038e-08c-0.226445,0.158042 -0.281896,0.46973 -0.123854,0.696175c0.0942957,0.135108 0.249099,0.21509 0.413854,0.213825h0.11c3.63,-0.8 7.39,-4 7.39,-8c0,-4 -3.49,-6.25001 -5.16,-7.34001Z"></path></g></svg>