<?xml version="1.0" encoding="UTF-8"?><svg width="40" height="40" version="1.1" viewBox="0 0 40 40" xmlns="http://www.w3.org/2000/svg" xmlns:xlink="http://www.w3.org/1999/xlink"><!--Generated by IJSVG (https://github.com/iconjar/IJSVG)--><path d="M208,88.001h-80v212.498c0,52.58 -18.032,67.261 -49.412,67.261c-14.705,0 -27.948,-2.521 -38.25,-6.063l-8.338,62.207c14.7,5.062 37.259,8.096 54.907,8.096c72.048,0 121.093,-33.871 121.093,-130.98v-213.019Zm174.463,-8.001c-77.443,0 -126.463,43.998 -126.463,102.154c0,50.083 37.751,81.44 92.641,101.665c39.7,14.158 55.392,26.808 55.392,47.539c0,22.756 -18.139,37.425 -52.448,37.425c-31.863,0 -60.789,-10.64 -80.394,-21.255v-0.021l-15.191,63.22c18.639,10.638 53.441,21.255 91.167,21.255c90.687,-0.002 132.833,-48.552 132.833,-105.698c0,-48.55 -26.958,-79.9 -85.278,-102.163c-43.139,-17.191 -61.27,-26.795 -61.27,-48.542c0,-17.2 15.688,-32.869 48.043,-32.869c31.846,0 53.744,10.707 66.505,17.291l19.125,-64c-20,-8.781 -46.937,-16.001 -84.662,-16.001Z" transform="scale(0.078125)" fill="#000"></path></svg>