<?xml version="1.0" encoding="UTF-8"?><svg width="40" height="40" version="1.1" viewBox="0 0 48 48" xmlns="http://www.w3.org/2000/svg" xmlns:xlink="http://www.w3.org/1999/xlink"><!--Generated by IJSVG (https://github.com/iconjar/IJSVG)--><g transform="scale(0.0768)"><path fill="#000" d="M464,462.5h-425v-425h425v425Zm-400,-25h375v-375h-375v375Z"></path><path fill="#000" d="M51.5,137.5h400v25h-400Z"></path><path fill="#000" d="M101.5,87.5h50v25h-50Z"></path><path fill="#000" d="M201.5,87.5h200v25h-200Z"></path><path fill="#000" d="M101.5,200h75v125h-75Z"></path><path fill="#000" d="M101.5,350h75v100h-75Z"></path><path fill="#000" d="M214,200h75v73h-75Z"></path><path fill="#000" d="M214,301h75v99h-75Z"></path><path fill="#000" d="M214,425h75v25h-75Z"></path><path fill="#000" d="M326.5,200h75v100h-75Z"></path><path fill="#000" d="M326.5,325h75v50.448h-75Z"></path><path fill="#000" d="M326.5,400h75v50h-75Z"></path></g></svg>