<?xml version="1.0" encoding="UTF-8"?><svg version="1.1" viewBox="0 0 32 32" xmlns="http://www.w3.org/2000/svg" xmlns:xlink="http://www.w3.org/1999/xlink"><!--Generated by IJSVG (https://github.com/iconjar/IJSVG)--><g transform="matrix(1,0,0,1,0,-1020.36)"><path fill="none" stroke="#000" stroke-linecap="round" stroke-linejoin="round" stroke-width="1" d="M26.4964,1027.87v21.5c0,0.831 -0.66899,1.5 -1.49998,1.5h-18c-0.83099,0 -1.49998,-0.669 -1.49998,-1.5v-26c0,-0.831 0.66899,-1.5 1.49998,-1.5h13.5Z"></path><path fill="#000" d="M5,24.0039v2v2v1c0,1.108 0.89198,2 2,2h18c1.10802,0 2,-0.892 2,-2v-1v-2v-2h-2h-18h-2Zm17.5176,0.978516l5.45183e-09,2.48452e-10c0.152519,0.00695066 0.293506,0.0831985 0.382813,0.207031l2.09766,2.80078v-2.49023l-4.54391e-09,-2.90424e-07c-0.00432029,-0.276136 0.21603,-0.503491 0.492166,-0.507811c7.02021e-06,-1.09835e-07 1.40404e-05,-2.19522e-07 2.10606e-05,-3.29061e-07l1.73128e-08,-2.70912e-10c0.276136,-0.00432102 0.503492,0.216029 0.507813,0.492165c8.16111e-05,0.00521539 8.16146e-05,0.0104317 1.03058e-08,0.0156471l2.85482e-10,3.98828l1.03056e-08,1.35646e-06c0.00209774,0.276162 -0.220075,0.501736 -0.496237,0.503834c-0.160067,0.00121587 -0.311041,-0.0742719 -0.406108,-0.203055l-0.0136712,-0.0175769l1.84565e-08,3.60423e-11c-0.000650999,-1.2713e-06 -0.001302,-1.27133e-06 -0.001953,-7.20846e-11l-2.08203,-2.7793v2.5l1.65077e-08,1.16733e-06c0.0039047,0.276142 -0.216788,0.503165 -0.49293,0.50707c-0.276142,0.0039047 -0.503165,-0.216788 -0.50707,-0.49293c-6.66457e-05,-0.00471323 -6.66447e-05,-0.00942716 3.21898e-09,-0.0141404l1.32887e-08,-3.96289l-6.71728e-09,-8.00006e-08c-0.0231074,-0.275202 0.181255,-0.517029 0.456457,-0.540136c0.00409394,-0.000343749 0.00819196,-0.000637032 0.0122931,-0.000879782l-1.72288e-08,8.75936e-10c0.016916,-0.000860035 0.0338649,-0.000860034 0.0507809,3.03517e-09l1.72288e-08,-0.005859Zm-13.0254,0.015625l-1.35758e-08,2.12431e-10c0.276136,-0.00432092 0.503492,0.216029 0.507813,0.492165c8.16081e-05,0.00521532 8.16108e-05,0.0104316 8.11335e-09,0.0156469l-1.9782e-10,2.99219c0,0 1.4e-05,0.009765 0,0.009765l2.42197e-08,1.42392e-06c0.000761453,0.0447709 -0.00449398,0.0894412 -0.0156254,0.132813c-0.0733437,0.756199 -0.710435,1.35937 -1.48437,1.35937c-0.822345,0 -1.5,-0.6776 -1.5,-1.5l-2.82287e-09,-2.4045e-07c-0.00323296,-0.275387 0.216816,-0.501548 0.492188,-0.505859l-1.61584e-09,2.51958e-11c0.276136,-0.00430601 0.50348,0.216056 0.507786,0.492193c7.10322e-05,0.00455517 7.98111e-05,0.00911109 2.63342e-05,0.0136665c-1.89697e-11,0.2857 0.214371,0.5 0.5,0.5c0.285631,0 0.5,-0.2143 0.5,-0.5v-2.99219l-4.42187e-09,-2.82624e-07c-0.00432029,-0.276136 0.21603,-0.503491 0.492166,-0.507811c7.18424e-06,-1.12401e-07 1.43685e-05,-2.24647e-07 2.15527e-05,-3.36738e-07l-2.82625e-07,-0.001953Zm2.94922,0.001953l-2.505e-08,1.27361e-09c0.0169164,-0.000860073 0.0338656,-0.000860074 0.050782,-2.54721e-09l-1.67549e-08,5.89342e-10c0.0117151,-0.000412068 0.023441,-0.000412068 0.035156,9.4925e-11l1.96484,5.89342e-10l-2.84531e-08,4.02398e-10c0.276142,-0.00390536 0.503166,0.216786 0.507071,0.492929c0.00390536,0.276142 -0.216786,0.503166 -0.492929,0.507071c-0.00471322,6.6657e-05 -0.00942716,6.66672e-05 -0.0141404,3.05988e-08l-2,-3.01964e-08c-0.285649,0 -0.5,0.2144 -0.5,0.5c0,0.2857 0.214351,0.5 0.5,0.5l-1.11756e-08,3.93097e-10c0.011715,-0.000412068 0.023441,-0.000412068 0.035156,-7.86191e-10l0.964844,3.93094e-10l-4.22638e-09,7.35447e-11c0.0360544,-0.000627386 0.0720709,0.00264699 0.107421,0.009766c0.772313,0.0568 1.39258,0.704634 1.39258,1.49023c-1e-06,0.787 -0.622416,1.43328 -1.39649,1.48828l5.48189e-08,-1.2091e-08c-0.0340028,0.00749972 -0.068696,0.0114274 -0.103515,0.011719l-2,1.64886e-09l-1.52583e-08,2.15792e-10c-0.276142,0.00390533 -0.503166,-0.216786 -0.507071,-0.492929c-0.00390533,-0.276142 0.216786,-0.503166 0.492929,-0.507071c0.00471322,-6.66566e-05 0.00942716,-6.66664e-05 0.0141404,-2.93626e-08l2,2.95784e-08c0.285648,0 0.5,-0.2143 0.5,-0.5c0,-0.2856 -0.214352,-0.5 -0.5,-0.5h-1l-2.91749e-08,-2.74497e-10c-0.0314877,-0.000296258 -0.0628771,-0.00356611 -0.0937498,-0.00976597c-0.778698,-0.0499 -1.40625,-0.699834 -1.40625,-1.49023c-1e-06,-0.7836 0.617221,-1.42828 1.38672,-1.48828l-1.00605e-08,2.55791e-09c0.0205635,-0.00522834 0.041439,-0.00914258 0.0624998,-0.011719Zm6.05859,0c1.37479,0 2.5,1.1252 2.5,2.5c0,1.3748 -1.12521,2.5 -2.5,2.5c-1.37479,0 -2.5,-1.1252 -2.5,-2.5c0,-1.3748 1.12521,-2.5 2.5,-2.5Zm0,1c-0.834349,0 -1.5,0.6657 -1.5,1.5c0,0.8344 0.665651,1.5 1.5,1.5c0.834349,0 1.5,-0.6656 1.5,-1.5c0,-0.8343 -0.665651,-1.5 -1.5,-1.5Z" transform="matrix(1,0,0,1,0,1020.36)"></path><path fill="#000" stroke="#000" stroke-linecap="round" stroke-linejoin="round" stroke-width="1" d="M26.4964,1027.87h-4.49997c-0.83099,0 -1.49998,-0.6691 -1.49998,-1.5v-4.5"></path><path fill="#000" d="M13.5078,1030.37c-1.09935,0 -2,0.9007 -2,2v0.9551v0.045c0,0.5627 -0.43735,1 -1,1l1.77523e-08,2.4329e-10c-0.242599,-0.00332545 -0.452582,0.167976 -0.498046,0.4063l-2.15367e-08,1.15944e-07c-0.0310267,0.167035 0.0248776,0.338397 0.148437,0.455l2.45913e-08,2.34743e-08c0.0239588,0.0228707 0.0501306,0.0433044 0.0781299,0.0609999l-3.98142e-08,-2.46039e-08c0.042978,0.026559 0.0897328,0.0464516 0.138672,0.059l-4.34595e-08,-1.16313e-08c0.0319442,0.00854935 0.0646576,0.0139089 0.0976599,0.016l2.28903e-08,8.0513e-10c0.0117164,0.000412161 0.0234436,0.00041216 0.03516,-1.61049e-09c0.56265,0 1,0.4374 1,1v0.047v0.9531c0,1.0994 0.90065,2 2,2l-2.84531e-08,-4.02451e-10c0.276142,0.00390536 0.503166,-0.216786 0.507071,-0.492929c0.00390536,-0.276142 -0.216786,-0.503166 -0.492929,-0.507071c-0.00471322,-6.6657e-05 -0.00942716,-6.66672e-05 -0.0141404,-3.05988e-08c-0.562647,0 -1,-0.4373 -1,-1v-0.9531v-0.047c0,-0.5983 -0.272971,-1.1325 -0.693359,-1.5c0.420928,-0.3675 0.693359,-0.9012 0.693359,-1.5v-0.045v-0.9551c0,-0.5626 0.437352,-1 1,-1l-2.84531e-08,-4.02451e-10c0.276142,0.00390536 0.503166,-0.216786 0.507071,-0.492929c0.00390536,-0.276142 -0.216786,-0.503166 -0.492929,-0.507071c-0.00471322,-6.6657e-05 -0.00942716,-6.66672e-05 -0.0141404,-3.05988e-08Zm3.93359,0l2.13117e-08,-1.09208e-09c-0.276136,0.0141495 -0.488518,0.249472 -0.474368,0.525608c0.0141403,0.275956 0.249179,0.488278 0.525148,0.474392c0.562647,0 1,0.4374 1,1v0.9551v0.045c0,0.5988 0.272431,1.1325 0.693359,1.5c-0.420388,0.3675 -0.693359,0.9017 -0.693359,1.5v0.047v0.9531c0,0.5627 -0.437353,1 -1,1l-1.52583e-08,-2.15778e-10c-0.276142,-0.00390533 -0.503166,0.216786 -0.507071,0.492929c-0.00390533,0.276142 0.216786,0.503166 0.492929,0.507071c0.00471322,6.66566e-05 0.00942716,6.66664e-05 0.0141404,2.93626e-08c1.09935,0 2,-0.9006 2,-2v-0.9531v-0.047c0,-0.5626 0.43735,-1 1,-1l2.81517e-08,4.0427e-10c0.11806,0.00169489 0.232911,-0.0384406 0.324218,-0.1133l1.43981e-08,-1.22538e-08c0.0129574,-0.0110277 0.0253435,-0.0227096 0.03711,-0.035l2.4319e-08,-2.45957e-08c0.194174,-0.196383 0.192383,-0.512992 -0.00400023,-0.707166c-0.0950254,-0.0939564 -0.223704,-0.145969 -0.357328,-0.144434c-0.56265,0 -1,-0.4373 -1,-1v-0.045v-0.9551c0,-1.0993 -0.90065,-2 -2,-2l2.88513e-08,1.46679e-09c-0.0169155,-0.000859996 -0.0338639,-0.000860007 -0.0507794,-3.26233e-08Zm-1.94141,1.9961h-2.18557e-08c-0.276142,1.20706e-08 -0.5,0.223858 -0.5,0.5c0,0 0,0 0,0l5.32907e-15,7.54978e-08c4.16963e-08,0.276142 0.223858,0.5 0.5,0.5h-2.18557e-08c0.276142,1.20706e-08 0.5,-0.223858 0.5,-0.5c0,0 0,0 0,0v0c0,-0.276142 -0.223858,-0.5 -0.5,-0.5Zm-0.0078,1.9941l-9.8109e-09,1.5325e-10c-0.275393,0.00430453 -0.495456,0.230493 -0.4922,0.5059v3l-1.56969e-08,1.11e-06c-0.00390473,0.276142 0.216787,0.503165 0.49293,0.50707c0.276142,0.00390473 0.503165,-0.216787 0.50707,-0.49293c6.66463e-05,-0.00471323 6.66457e-05,-0.00942716 -1.59744e-09,-0.0141404v-3l3.34602e-09,-2.83059e-07c0.00326428,-0.276151 -0.217954,-0.502661 -0.494105,-0.505926c-0.00456915,-5.40103e-05 -0.00913882,-4.53887e-05 -0.0137077,2.58624e-05Z"></path></g></svg>