<?xml version="1.0" encoding="UTF-8"?><svg width="32" height="32" version="1.1" viewBox="0 0 32 32" xmlns="http://www.w3.org/2000/svg" xmlns:xlink="http://www.w3.org/1999/xlink"><!--Generated by IJSVG (https://github.com/iconjar/IJSVG)--><path d="M31.168,8c-0.469,-0.012 -0.879,0.168 -1.09,0.688c-0.36,0.87 0.535,1.722 0.856,2.167c0.222,0.31 0.511,0.657 0.671,1.004c0.106,0.23 0.122,0.461 0.211,0.704c0.223,0.597 0.579,1.277 0.864,1.832c0.144,0.28 0.304,0.574 0.488,0.824c0.113,0.152 0.305,0.222 0.336,0.457c-0.188,0.265 -0.2,0.676 -0.305,1.011c-0.476,1.504 -0.297,3.375 0.395,4.485c0.215,0.344 0.718,1.074 1.406,0.797c0.602,-0.246 0.469,-1.008 0.64,-1.684c0.04,-0.148 0.016,-0.262 0.094,-0.363v0.031c0.18,0.367 0.364,0.735 0.547,1.098c0.41,0.656 1.133,1.34 1.742,1.804c0.317,0.239 0.567,0.653 0.977,0.793v-0.03h-0.031c-0.078,-0.126 -0.203,-0.177 -0.305,-0.274l1.49672e-07,1.45594e-07c-0.253843,-0.246927 -0.487896,-0.513413 -0.7,-0.797l-7.55523e-07,-1.03889e-06c-0.562235,-0.77311 -1.06214,-1.58968 -1.495,-2.44199c-0.215,-0.41 -0.403,-0.863 -0.582,-1.28c-0.07,-0.165 -0.07,-0.407 -0.215,-0.493c-0.2,0.309 -0.488,0.555 -0.64,0.918c-0.243,0.578 -0.278,1.285 -0.368,2.016c-0.055,0.02 -0.031,0.004 -0.059,0.03c-0.425,-0.105 -0.578,-0.542 -0.734,-0.917c-0.398,-0.95 -0.476,-2.48 -0.121,-3.57c0.09,-0.286 0.5,-1.176 0.336,-1.438c-0.078,-0.262 -0.344,-0.41 -0.488,-0.61l-4.4019e-07,-6.08329e-07c-0.193021,-0.266748 -0.356953,-0.553379 -0.489,-0.855c-0.328,-0.742 -0.636,-1.601 -0.984,-2.351c-0.164,-0.36 -0.441,-0.72 -0.672,-1.04c-0.254,-0.35 -0.535,-0.609 -0.734,-1.038c-0.067,-0.149 -0.164,-0.391 -0.059,-0.547c0.031,-0.106 0.078,-0.149 0.184,-0.184c0.176,-0.137 0.668,0.043 0.855,0.121c0.488,0.203 0.899,0.399 1.313,0.672c0.199,0.133 0.398,0.387 0.64,0.461h0.274c0.433,0.098 0.914,0.027 1.312,0.152c0.711,0.215 1.348,0.551 1.922,0.914l2.18545e-07,1.38741e-07c1.77648,1.12778 3.22062,2.70826 4.184,4.579c0.16,0.304 0.23,0.597 0.37,0.918c0.278,0.648 0.634,1.32 0.915,1.953c0.277,0.636 0.55,1.273 0.945,1.8c0.207,0.278 1.012,0.43 1.375,0.582c0.254,0.11 0.676,0.223 0.914,0.368c0.465,0.277 0.91,0.609 1.344,0.918c0.219,0.152 0.883,0.484 0.918,0.761c-1.074,-0.027 -1.895,0.07 -2.594,0.367c-0.199,0.086 -0.52,0.086 -0.55,0.336c0.105,0.114 0.124,0.286 0.21,0.426c0.168,0.27 0.45,0.633 0.704,0.824c0.277,0.207 0.558,0.43 0.855,0.614c0.523,0.316 1.11,0.5 1.617,0.82c0.297,0.191 0.598,0.43 0.887,0.64c0.144,0.11 0.238,0.274 0.426,0.34v-0.03c-0.098,-0.126 -0.121,-0.298 -0.211,-0.427l-0.403,-0.402l7.21372e-08,9.31792e-08c-0.397951,-0.514032 -0.870506,-0.965689 -1.402,-1.34c-0.418,-0.3 -1.352,-0.707 -1.523,-1.191l-0.032,-0.031c0.293,-0.032 0.641,-0.141 0.914,-0.215c0.461,-0.121 0.868,-0.09 1.34,-0.211c0.215,-0.063 0.43,-0.125 0.645,-0.184v-0.125c-0.238,-0.242 -0.41,-0.57 -0.672,-0.793c-0.684,-0.582 -1.43,-1.164 -2.2,-1.648c-0.425,-0.27 -0.952,-0.445 -1.402,-0.672c-0.152,-0.078 -0.418,-0.117 -0.52,-0.246c-0.237,-0.3 -0.366,-0.684 -0.55,-1.035l1.15302e-06,2.24483e-06c-0.391,-0.761239 -0.757188,-1.53497 -1.09799,-2.31997c-0.23,-0.528 -0.382,-1.051 -0.671,-1.528c-1.387,-2.277 -2.88,-3.656 -5.192,-5.008c-0.492,-0.289 -1.082,-0.398 -1.707,-0.547c-0.34,-0.023 -0.672,-0.043 -1.012,-0.062c-0.203,-0.086 -0.418,-0.336 -0.609,-0.461c-0.48,-0.3 -1.426,-0.824 -2.207,-0.836Zm3.309,3.313l9.12368e-08,9.22933e-10c-0.185507,-0.00187656 -0.370548,0.0189447 -0.550999,0.0619999v0.031h0.031c0.105,0.219 0.297,0.36 0.43,0.547l0.3,0.645l0.032,-0.032c0.187,-0.132 0.277,-0.347 0.277,-0.671c-0.078,-0.079 -0.09,-0.18 -0.152,-0.274c-0.09,-0.129 -0.258,-0.2 -0.367,-0.309Zm-32.61,12.682c-0.3,0.012 -0.629,0.07 -0.984,0.184c-0.594,0.18 -0.887,0.535 -0.887,1.258v7.563h2.004v-7.379l2.777,6.309c0.344,0.785 0.813,1.066 1.73,1.066c0.923,0 1.372,-0.281 1.716,-1.066l2.777,-6.15v7.22h2v-7.563c0,-0.722 -0.29,-1.078 -0.887,-1.257c-1.422,-0.45 -2.379,-0.063 -2.808,0.91l-2.852,6.414l-2.758,-6.414c-0.312,-0.73 -0.937,-1.13 -1.828,-1.094Zm24.38,0.004c-0.79,0 -3.247,0.094 -3.247,2v1.234c0,0.875 0.77,1.59 2.438,1.766c0.187,0.012 0.375,0.027 0.562,0.027c0,0 1.945,-0.039 2,-0.027c1.125,0 1,0.875 1,1v1c0,0.137 -0.031,1 -1.012,1h-4.988v1h5.008c0.656,0 1.293,-0.137 1.8,-0.375c0.844,-0.387 1.192,-0.91 1.192,-1.598v-1.43c0,-1.533 -1.906,-1.596 -3,-1.596h-2c-0.785,0 -0.906,-0.477 -1,-1v-1c0.094,-0.398 0.27,-0.938 0.965,-1h5.035v-1Zm7.733,0c-1.476,0.203 -1.996,0.938 -1.996,2v5c0,0.973 0.543,1.559 1.66,1.863c0.376,0.106 0.715,0.149 1.036,0.149l2.226,-0.011h1.309l1.113,1h2.25l-1.547,-1.395c0.727,-0.3 0.953,-0.761 0.953,-1.625v-4.98c0,-1.063 -0.691,-1.797 -2.168,-2Zm8.02,0.001v6.957c0,1.207 0.684,1.887 2.492,2.023c0.168,0.008 0.34,0.02 0.508,0.02h5v-1h-4.621c-1.031,-7.10543e-15 -1.379,-0.434 -1.379,-1.05v-6.95Zm-6.828,1h2.574c0.68,0 1.137,0.547 1.238,1c0,0 0.016,4.656 0.016,5c0,0.344 -0.191,0.5 -0.191,0.5l-0.543,-0.5h-2.266l1.113,1h-1.941c-0.695,0 -1.086,-0.516 -1.188,-1v-4.898c0,-0.532 0.407,-1.102 1.188,-1.102Zm-21.172,2c0.04,0.04 0,4.262 0,4.344c0.016,0.875 1.125,1.64 2.863,1.656h3.137v0.066c0,0.188 0.137,0.813 -1,0.934h-5v1h5.215c0.883,-0.027 2.797,-0.227 2.785,-1.758c0,-0.027 0.008,-6.242 0,-6.242h-2v5c-0.031,0 -2.477,0.008 -2.969,0c-0.965,-0.016 -1.047,-0.566 -1.031,-0.777v-4.223Z" transform="scale(0.64)" fill="#000"></path></svg>