<?xml version="1.0" encoding="UTF-8"?><svg width="32" height="32" version="1.1" viewBox="0 0 32 32" xmlns="http://www.w3.org/2000/svg" xmlns:xlink="http://www.w3.org/1999/xlink"><!--Generated by IJSVG (https://github.com/iconjar/IJSVG)--><g transform="scale(1.0778)"><g transform="matrix(1,0,0,1,-7.75,-1021.42)"><g transform="matrix(1,0,0,1,771.917,120.014)"><path fill="#494A48" stroke="#121211" stroke-width="1" d="M-748.167,916.1c0,6.489 -4.712,9.5 -7.75,9.5c-3.038,0 -7.75,-3.011 -7.75,-9.5c0,-6.489 7.75,-14 7.75,-14c0,0 7.75,7.509 7.75,14Z"></path><g transform="matrix(1,0,0,1,0.133,0)"><path fill="#323824" fill-rule="evenodd" d="M-756.367,-114.061l1.00123e-08,-1.5892e-10c-0.276108,0.00438237 -0.496384,0.231764 -0.492002,0.507872c6.77118e-07,4.26613e-05 1.3597e-06,8.53225e-05 2.04774e-06,0.000127984v5.035l-1.891,-1.891l2.66721e-09,2.75178e-09c-0.0941713,-0.0971537 -0.223696,-0.151994 -0.359,-0.152l2.37214e-08,-1.47082e-11c-0.203434,0.000126067 -0.386509,0.123494 -0.463,0.312l1.62332e-08,-4.01282e-08c-0.0764301,0.188934 -0.0305359,0.405349 0.116,0.547l2.6,2.6v2.836l-2.391,-2.391l2.66721e-09,2.75179e-09c-0.0941713,-0.0971537 -0.223696,-0.151994 -0.359,-0.152l2.37214e-08,-1.47082e-11c-0.203434,0.000126067 -0.386509,0.123494 -0.463,0.312l1.62332e-08,-4.01282e-08c-0.0764301,0.188934 -0.0305359,0.405349 0.116,0.547l3.1,3.1v2.836l-2.641,-2.641l2.66721e-09,2.75179e-09c-0.0941713,-0.0971537 -0.223696,-0.151994 -0.359,-0.152l2.37214e-08,-1.47082e-11c-0.203434,0.000126067 -0.386509,0.123494 -0.463,0.312l1.62332e-08,-4.01282e-08c-0.0764301,0.188934 -0.0305359,0.405349 0.116,0.547l3.348,3.348v3.742l-2.41556e-07,-4.74624e-08c0.310117,0.0609336 0.625003,0.0943966 0.941,0.1c0.019,0 0.039,0 0.059,0v-3.842l3.35,-3.348l-1.53041e-08,1.53086e-08c0.195191,-0.19525 0.195191,-0.51175 3.0608e-08,-0.707l2.09286e-08,2.09223e-08c-0.19525,-0.195191 -0.51175,-0.195191 -0.707,-4.18445e-08l-2.643,2.641v-2.836l3.1,-3.1l-1.53041e-08,1.53086e-08c0.195191,-0.19525 0.195191,-0.51175 3.0608e-08,-0.707l2.09285e-08,2.09223e-08c-0.19525,-0.195191 -0.51175,-0.195191 -0.707,-4.18445e-08l-2.393,2.391v-2.834l2.6,-2.6l-1.53041e-08,1.53086e-08c0.195191,-0.19525 0.195191,-0.51175 3.0608e-08,-0.707l2.09285e-08,2.09223e-08c-0.19525,-0.195191 -0.51175,-0.195191 -0.707,-4.18445e-08l-1.893,1.891v-5.035l1.53597e-08,-9.80476e-07c0.00211657,-0.135119 -0.0505496,-0.265341 -0.146001,-0.361l9.35938e-09,9.33895e-09c-0.0956592,-0.0954509 -0.225881,-0.148117 -0.361,-0.146Z" transform="matrix(1,0,0,1,-0.133,1020.36)"></path></g><path fill="#323824" fill-rule="evenodd" stroke="#27241E" stroke-width="1" d="M-755.926,906.1l1.00123e-08,-1.58934e-10c-0.276108,0.00438237 -0.496384,0.231764 -0.492002,0.507872c6.77118e-07,4.26613e-05 1.3597e-06,8.53225e-05 2.04774e-06,0.000127984v23.486v7.5498e-08c4.16964e-08,0.276142 0.223858,0.5 0.5,0.5h-2.18557e-08c0.276142,1.20706e-08 0.5,-0.223858 0.5,-0.5v-23.489l1.29432e-09,-7.33972e-08c0.00238882,-0.135464 -0.0502979,-0.266098 -0.146,-0.362l9.3595e-09,9.33903e-09c-0.0956592,-0.0954509 -0.225881,-0.148117 -0.361,-0.146Z"></path><path fill="#323824" fill-rule="evenodd" stroke="#24221D" stroke-width="1" d="M-758.668,909.6l-1.39927e-08,-1.92131e-11c-0.203798,-0.000281226 -0.387372,0.123157 -0.464,0.312l1.62332e-08,-4.01282e-08c-0.0764301,0.188934 -0.0305359,0.405349 0.116,0.547l2.744,2.744l-3.07654e-08,-3.0756e-08c0.19525,0.195191 0.51175,0.195191 0.707,6.1512e-08l2.746,-2.744l-1.53041e-08,1.53086e-08c0.195191,-0.19525 0.195191,-0.51175 3.0608e-08,-0.707l2.09286e-08,2.09222e-08c-0.19525,-0.195191 -0.51175,-0.195191 -0.707,-4.18445e-08l-2.392,2.391l-2.391,-2.391l2.66732e-09,2.75179e-09c-0.0941713,-0.0971537 -0.223696,-0.151994 -0.359,-0.152Z"></path><path fill="#323824" fill-rule="evenodd" stroke="#24221D" stroke-width="1" d="M-759.168,913.348l-1.39927e-08,-1.93268e-11c-0.203798,-0.000281226 -0.387372,0.123157 -0.464,0.312l1.62332e-08,-4.01282e-08c-0.0764301,0.188934 -0.0305359,0.405349 0.116,0.547l3.244,3.244l-3.07654e-08,-3.0756e-08c0.19525,0.195191 0.51175,0.195191 0.707,6.1512e-08l3.246,-3.244l-1.53041e-08,1.53086e-08c0.195191,-0.19525 0.195191,-0.51175 3.0608e-08,-0.707l2.09286e-08,2.09222e-08c-0.19525,-0.195191 -0.51175,-0.195191 -0.707,-4.18445e-08l-2.893,2.891l-2.891,-2.891l2.66732e-09,2.75179e-09c-0.0941713,-0.0971537 -0.223696,-0.151994 -0.359,-0.152Z"></path><path fill="#323824" fill-rule="evenodd" stroke="#24221D" stroke-width="1" d="M-759.418,917.348l-4.46016e-09,6.36646e-12c-0.203679,0.000291083 -0.386824,0.124102 -0.463,0.313l1.62332e-08,-4.01282e-08c-0.0764301,0.188934 -0.0305359,0.405349 0.116,0.547l3.494,3.494l-3.07654e-08,-3.0756e-08c0.19525,0.195191 0.51175,0.195191 0.707,6.1512e-08l3.5,-3.494l-1.53041e-08,1.53087e-08c0.195191,-0.19525 0.195191,-0.51175 3.0608e-08,-0.707l2.09285e-08,2.09222e-08c-0.19525,-0.195191 -0.51175,-0.195191 -0.707,-4.18445e-08l-3.143,3.141l-3.141,-3.141l1.36788e-09,1.41915e-09c-0.0949653,-0.0985246 -0.226161,-0.153822 -0.363,-0.153Z"></path></g></g></g></svg>