<?xml version="1.0" encoding="UTF-8"?><svg width="32" height="32" version="1.1" viewBox="0 0 32 32" xmlns="http://www.w3.org/2000/svg" xmlns:xlink="http://www.w3.org/1999/xlink"><!--Generated by IJSVG (https://github.com/iconjar/IJSVG)--><path d="M34.902,2c-2.039,0 -3.804,0.55 -5.027,1.094c-1.2,-0.403 -3.188,-1.09 -5.574,-0.594c-1.39,0.242 -2.668,0.816 -3.84,1.695c-1.93,-0.93 -3.945,-1.5 -6.059,-1.593c-1.3,-0.102 -6.601,0.5 -8.504,3.296c-0.698,1.102 -1.398,2.5 -1.698,4.2c-0.3,1.5 -0.3,3.203 0.2,6.703c0.3,2.398 0.703,4 1.601,7.297c0.102,0.3 0.602,1.902 2.102,6.304c0.296,0.797 0.898,2.297 2.097,3.696c0.801,1 1.602,1.601 2.602,1.601c1.3,0 2.199,-0.898 3,-1.898c0.058,-0.067 0.12,-0.14 0.18,-0.207c-0.075,0.117 -0.141,0.246 -0.18,0.406c-0.2,1 1,1.8 2,2.2c0.8,0.398 1.699,0.5 2.398,0.5c0.899,0 1.602,-0.2 2,-0.298c0.344,-0.117 1.086,-0.437 1.88,-0.965c0.034,2.555 0.058,5.57 0.12,6.262c0.301,2.602 1,4.399 2.301,5.399c1,0.8 2.8,0.902 2.902,0.902c1.797,0 4.597,-1.2 5.797,-3.098c0.602,-0.902 0.801,-1.703 1,-2.804c0.2,-0.598 0.399,-4.098 0.5,-4.797c0.137,-1.106 0.242,-2.196 0.348,-3.254c0.66,0.172 1.473,0.355 2.355,0.355c1.598,0 3.7,-1.101 4.098,-1.304c0.8,-0.598 2.398,-1.996 1.7,-3.196c-0.4,-0.703 -1,-0.703 -2.5,-0.5c0,0 -2.4,0.297 -2.602,0.196c-0.145,-0.055 -0.368,-0.196 -0.618,-0.38c0.52,-0.804 0.98,-1.6 1.52,-2.316l1.34353e-06,-2.5621e-06c0.930245,-1.77397 1.73294,-3.61196 2.402,-5.5l2.35973e-06,-6.49941e-06c0.699383,-1.92631 1.26604,-3.89825 1.696,-5.90198c0.703,-3 0.902,-4.398 0.5,-6c-0.797,-2.8 -3.7,-5.2 -4.899,-5.898c-0.799998,-0.40301 -2.798,-1.60201 -5.798,-1.60201Zm0,2c2.5,0 4.2,1 5.098,1.398c1.102,0.602 3.602,2.602 3.8,4.5c0.102,1.102 0.2,2.204 -0.5,5.102c-0.398,1.398 -0.8,3.2 -1.702,5.7c-0.5,1.398 -1.098,3.1 -2.297,5.202c-0.031,0.051 -0.067,0.106 -0.098,0.16c0.117,-0.421 0.2,-0.761 0.2,-0.761c0.199,-1 0.199,-1.801 0.097,-3c-0.102,-0.602 -0.2,-2.102 -0.2,-2.703c0,-0.297 0.298,-3.399 0.4,-4.5c0.1,-1.797 -1,-4 -1.298,-4.399c-1.5,-2.3 -2.3,-3.597 -3.902,-4.898l-5.3414e-07,-4.61693e-07c-0.630427,-0.54492 -1.30322,-1.03881 -2.012,-1.477c0.735,-0.18 1.547,-0.324 2.414,-0.324Zm-8.836,0.41c1.305,0.031 2.41,0.39 3.235,0.692c2.101,0.699 3.398,1.796 4,2.296c1.3,1.102 2,2.204 3.5,4.504c0.11,0.22 0.394,0.684 0.62,1.332c-2.046,-0.187 -3.405,0.532 -4.222,1.266c-1.199,1 -1.101,2.5 -1,3.598c0,0.8 0.203,1.804 1.703,5.203c0.598,1.5 1.196,3.097 1.797,4.199l-2.0005e-08,-3.93312e-08c0.307352,0.604276 0.678104,1.17415 1.106,1.7c-0.239,0.12 -0.48,0.277 -0.707,0.5c-0.598,0.698 -0.7,1.402 -0.899,2.702c-0.199,1 -0.398,3.098 -0.5,4.797c0,0.7 -0.297,4.102 -0.398,4.602c-0.301,1 -0.403,1.5 -0.801,2.101c-0.7,1.098 -2.898,2 -4.2,1.899c-0.398,0 -1,0 -1.5,-0.399c-1.1,-0.8 -1.5,-2.601 -1.6,-4c-0.102,-1 0,-8.203 -0.2,-9.804c-0.102,-0.399 -0.2,-1.399 -1,-2.098c-0.336,-0.281 -1.031,-0.426 -1.688,-0.523c0.008,-0.336 0.028,-0.672 0.09,-0.977c0.098,-0.602 0.297,-0.902 0.5,-1.402c0.098,-0.297 0.297,-0.696 0.5,-1.196c0.899,-2.8 0.696,-6.504 0.196,-8.804c-0.098,-0.2 -0.5,-1.797 -1.899,-2.696c-1.5,-0.902 -3.101,-0.402 -4,-0.101l4.00094e-07,-1.1684e-07c-0.38263,0.11174 -0.752876,0.262184 -1.105,0.449c0.062,-0.418 0.117,-0.84 0.207,-1.25c0.398,-2 0.8,-3.7 2.101,-5.398c1.399,-1.704 2.996,-2.802 4.798,-3.102l-1.22758e-07,1.93742e-08c0.452,-0.0713366 0.909546,-0.10146 1.367,-0.0900001Zm-12.347,0.176c0.234,-0.004 0.433,0 0.582,0.016c1.562,0.082 3.058,0.449 4.543,1.074c-0.184,0.203 -0.367,0.406 -0.543,0.625c-1.7,2 -2.102,4.097 -2.5,6.199c-0.5,2.5 -0.602,5.098 -0.203,7.7l-0.196,1.898c-0.101,1 -0.304,2.902 0.797,4.902l4.33712e-07,7.57061e-07c0.354985,0.61964 0.785251,1.19299 1.281,1.707l-2.22239e-07,2.92681e-07c-0.998336,1.31478 -2.05957,2.58058 -3.18,3.793c-0.6,0.7 -1.1,1.2 -1.5,1.2c-0.1,0 -0.5,-0.2 -1.1,-0.9c-1.102,-1.198 -1.5,-2.5 -1.7,-3c-1.2,-3.6 -1.898,-5.902 -2,-6.202c-0.8,-3.2 -1.2,-4.797 -1.602,-7.098c-0.5,-3.2 -0.5,-4.8 -0.199,-6.098c0.301,-1.402 0.801,-2.504 1.301,-3.3c1.227,-1.926 4.594,-2.473 6.219,-2.516Zm22.945,10.539c0.32,0 0.668,0.04 1.035,0.117c-0.011,0.934 -0.398,3.863 -0.398,4.258c0,0.8 0.199,2.398 0.199,3c0.102,1.102 0.102,1.7 0,2.5c0,0 -0.148,0.715 -0.3,1.223c-0.466,-1.051 -0.981,-2.305 -1.602,-3.723c-1.5,-3.398 -1.598,-4.098 -1.598,-4.598c0,-0.703 0,-1.601 0.598,-2c0.562,-0.5 1.246,-0.77 2.066,-0.777Zm-15.523,0.293c0.199,0.023 0.382,0.082 0.558,0.18c0.801,0.402 1,1.402 1,1.402c0.5,2.2 0.7,5.5 -0.101,7.7c-0.098,0.398 -0.297,0.698 -0.399,1c-0.199,0.5 -0.398,1 -0.601,1.898c-0.051,0.37 -0.075,0.738 -0.086,1.105c-0.692,-0.144 -1.344,-0.39 -1.813,-0.703c-0.8,-0.398 -1.398,-1.102 -1.797,-1.902c-0.703,-1.5 -0.601,-2.899 -0.5,-3.696l0.196,-2.304l-1.01271e-06,-7.99959e-06c-0.141688,-1.11923 -0.205841,-2.24691 -0.191999,-3.37499l-2.65952e-07,2.34204e-07c0.545815,-0.480657 1.19384,-0.830829 1.895,-1.024c0.601,-0.148 1.258,-0.355 1.84,-0.281Zm14.746,0.672l9.2431e-08,-3.28888e-09c-0.232979,0.00828984 -0.46405,0.0452344 -0.687999,0.11c-0.398,0.1 -0.5,0.1 -0.601,0.3c-0.098,0.2 0.203,0.5 0.304,0.7c0.098,0 0.399,0.3 0.797,0.202c0.301,-0.101 0.5,-0.3 0.602,-0.402c0.101,-0.102 0.5,-0.602 0.199,-0.8c-0.102,-0.102 -0.352,-0.126 -0.613,-0.11Zm-14.973,0.726l-2.06516e-08,1.39843e-09c-0.109991,0.00744807 -0.217404,0.0366809 -0.316,0.086c-0.098,0 -0.297,0.098 -0.399,0.297c-0.101,0.2 0,0.399 0.102,0.5c0.199,0.301 0.5,0.602 1,0.602c0.101,0 0.5,0 0.797,-0.301c0,0 0.304,-0.3 0.304,-0.598c-0.101,-0.203 -0.3,-0.3 -0.601,-0.402c-0.227,-0.074 -0.563,-0.207 -0.887,-0.184Zm-1.84,13.086c0.613,0.328 1.352,0.594 2.16,0.778c-0.214,0.43 -0.523,0.785 -0.832,1.02c-0.703,0.5 -1.601,0.8 -2.5,1c-0.203,0 -0.3,0.1 -0.5,0.1c-0.484,0.138 -0.953,0.29 -1.273,0.622c0.98,-1.09 1.965,-2.293 2.945,-3.52Zm19.281,0.801c0.438,0.328 0.868,0.57 1.243,0.7c0.601,0.199 1.101,0.199 2.902,0c-0.3,0.296 -1.2,0.796 -2.5,1c-0.836,0.081 -1.875,-0.118 -2.719,-0.36c0.078,-0.566 0.168,-0.89 0.317,-1.043c0.054,-0.05 0.386,-0.152 0.757,-0.297Zm-15.058,0.3c0.207,0.036 0.371,0.063 0.402,0.095c0.2,0.203 0.301,0.703 0.301,0.902c0.012,0.172 0.02,0.605 0.027,0.906c-0.824,0.965 -2.148,1.5 -2.43,1.594c-0.398,0.2 -1.597,0.398 -2.796,0c1,-0.3 2,-0.598 2.797,-1.2c0.699,-0.5 1.3,-1.296 1.699,-2.296Z" transform="scale(0.64)" fill="#000"></path></svg>