<?xml version="1.0" encoding="UTF-8"?><svg width="32" height="32" version="1.1" viewBox="0 0 32 32" xmlns="http://www.w3.org/2000/svg" xmlns:xlink="http://www.w3.org/1999/xlink"><!--Generated by IJSVG (https://github.com/iconjar/IJSVG)--><g transform="scale(2)"><g transform="matrix(1,0,0,1,0,-1036.36)"><path fill="#000" fill-rule="evenodd" stroke="none" stroke-linecap="round" stroke-linejoin="round" d="M7,3l1.55285e-08,1.13241e-10c-0.0748619,-0.000545929 -0.149548,0.0073158 -0.222656,0.0234374c-1.54085,0.117454 -2.77734,1.40816 -2.77734,2.97656c0,1.57072 1.23957,2.864 2.7832,2.97852l8.53829e-09,1.80126e-09c0.0712677,0.0150348 0.143965,0.022239 0.216797,0.0214844l2,9.04059e-11c0.571287,0 1,0.4288 1,1c0,0.5714 -0.428713,1 -1,1h-4l-3.1069e-08,-3.93003e-10c-0.552285,-0.00698603 -1.00566,0.435066 -1.01265,0.987351c-0.00698603,0.552285 0.435066,1.00566 0.987351,1.01265c0.00843257,0.000106666 0.0168662,0.000106666 0.0252987,-7.86008e-10l4,3.93005e-10l-3.26454e-08,-2.37993e-10c0.0748621,0.000545767 0.149549,-0.00731615 0.222656,-0.023438c1.54085,-0.117437 2.77735,-1.40797 2.77734,-2.97656c0,-1.57052 -1.23957,-2.86398 -2.7832,-2.97852l2.25661e-08,4.76061e-09c-0.0712677,-0.0150348 -0.143965,-0.022239 -0.216797,-0.0214844l-2,2.3894e-10c-0.571285,0 -1,-0.4286 -1,-1c0,-0.5711 0.428715,-1 1,-1h4l-5.63538e-08,-7.12841e-10c0.552285,0.00698608 1.00566,-0.435066 1.01265,-0.987351c0.00698608,-0.552285 -0.435066,-1.00566 -0.987351,-1.01265c-0.00843257,-0.000106667 -0.0168662,-0.000106668 -0.0252987,-1.42568e-09l-4,7.12838e-10Z" transform="matrix(1,0,0,1,0,1036.36)"></path></g></g></svg>