<?xml version="1.0" encoding="UTF-8"?><svg width="36" height="36" version="1.1" viewBox="0 0 36 36" xmlns="http://www.w3.org/2000/svg" xmlns:xlink="http://www.w3.org/1999/xlink"><!--Generated by IJSVG (https://github.com/iconjar/IJSVG)--><g transform="scale(0.28125)"><path fill="#8ED6FB" d="M117.29,98.1l-51.05,28.9v-22.51l31.76,-17.49l19.29,11.1Zm3.5,-3.16v-60.39l-18.68,10.8v38.81l18.67,10.77Zm-110.08,3.16l51,28.88v-22.49l-31.77,-17.49Zm-3.5,-3.16v-60.39l18.68,10.8v38.81Zm2.19,-64.3l52.36,-29.64v21.76l-33.55,18.45l-0.27,0.15Zm109.18,0l-52.34,-29.64v21.76l33.55,18.44l0.27,0.15l18.54,-10.71Z"></path><path fill="#1C78C0" d="M61.76,99.37l-31.39,-17.27v-34.18l31.39,18.08Zm4.48,0l31.39,-17.25v-34.2l-31.39,18.08Zm-33.74,-55.37l31.5,-17.34l31.5,17.34l-31.5,18.16l-31.5,-18.16Z"></path></g></svg>